<ttFont>
<head>
    <!-- Most of this table will be recalculated by the compiler -->
    <tableVersion value="1.0"/>
    <fontRevision value="1.0"/>
    <checkSumAdjustment value="0x4ccb45d3"/>
    <magicNumber value="0x5f0f3cf5"/>
    <flags value="00000000 00011011"/>
    <unitsPerEm value="1000"/>
    <created value="Sat Dec  6 13:43:37 2025"/>
    <modified value="Sat Dec  6 13:49:10 2025"/>
    <xMin value="-56"/>
    <yMin value="-251"/>
    <xMax value="1102"/>
    <yMax value="750"/>
    <macStyle value="00000000 00000010"/>
    <lowestRecPPEM value="6"/>
    <fontDirectionHint value="2"/>
    <indexToLocFormat value="0"/>
    <glyphDataFormat value="0"/>
  </head>
    <TTGlyph name="A" xMin="31" yMin="0" xMax="707" yMax="714">
      <contour>
        <pt x="617" y="72" on="1"/>
        <pt x="620" y="56" on="0"/>
        <pt x="629" y="38" on="0"/>
        <pt x="648" y="30" on="0"/>
        <pt x="681" y="29" on="0"/>
        <pt x="707" y="29" on="1"/>
        <pt x="702" y="0" on="1"/>
        <pt x="693" y="1" on="0"/>
        <pt x="660" y="2" on="0"/>
        <pt x="624" y="2" on="0"/>
        <pt x="590" y="2" on="0"/>
        <pt x="579" y="2" on="1"/>
        <pt x="568" y="2" on="0"/>
        <pt x="532" y="2" on="0"/>
        <pt x="493" y="2" on="0"/>
        <pt x="458" y="1" on="0"/>
        <pt x="449" y="0" on="1"/>
        <pt x="450" y="6" on="0"/>
        <pt x="452" y="22" on="0"/>
        <pt x="454" y="29" on="1"/>
        <pt x="463" y="29" on="0"/>
        <pt x="490" y="30" on="0"/>
        <pt x="516" y="36" on="0"/>
        <pt x="535" y="50" on="0"/>
        <pt x="535" y="62" on="1"/>
        <pt x="504" y="233" on="1"/>
        <pt x="252" y="233" on="1"/>
        <pt x="238" y="207" on="0"/>
        <pt x="204" y="142" on="0"/>
        <pt x="189" y="111" on="1"/>
        <pt x="178" y="90" on="0"/>
        <pt x="174" y="79" on="0"/>
        <pt x="174" y="72" on="1"/>
        <pt x="174" y="58" on="0"/>
        <pt x="200" y="30" on="0"/>
        <pt x="234" y="29" on="1"/>
        <pt x="233" y="23" on="0"/>
        <pt x="231" y="7" on="0"/>
        <pt x="229" y="0" on="1"/>
        <pt x="219" y="1" on="0"/>
        <pt x="193" y="2" on="0"/>
        <pt x="165" y="2" on="0"/>
        <pt x="138" y="2" on="0"/>
        <pt x="127" y="2" on="1"/>
        <pt x="115" y="2" on="0"/>
        <pt x="99" y="2" on="0"/>
        <pt x="80" y="2" on="0"/>
        <pt x="54" y="1" on="0"/>
        <pt x="31" y="0" on="1"/>
        <pt x="36" y="29" on="1"/>
        <pt x="83" y="30" on="0"/>
        <pt x="136" y="64" on="0"/>
        <pt x="152" y="95" on="1"/>
        <pt x="462" y="695" on="1"/>
        <pt x="468" y="707" on="0"/>
        <pt x="475" y="714" on="0"/>
        <pt x="485" y="714" on="1"/>
        <pt x="495" y="714" on="0"/>
        <pt x="502" y="706" on="0"/>
        <pt x="504" y="693" on="1"/>
      </contour>
      <contour>
        <pt x="267" y="262" on="1"/>
        <pt x="499" y="262" on="1"/>
        <pt x="438" y="595" on="1"/>
      </contour>
    </TTGlyph>
    <TTGlyph name="AE" xMin="31" yMin="0" xMax="917" yMax="683">
      <contour>
        <pt x="184" y="99" on="1"/>
        <pt x="179" y="90" on="0"/>
        <pt x="175" y="80" on="0"/>
        <pt x="175" y="72" on="1"/>
        <pt x="175" y="58" on="0"/>
        <pt x="190" y="40" on="0"/>
        <pt x="209" y="31" on="0"/>
        <pt x="229" y="28" on="0"/>
        <pt x="234" y="28" on="1"/>
        <pt x="229" y="0" on="1"/>
        <pt x="208" y="2" on="0"/>
        <pt x="149" y="2" on="0"/>
        <pt x="127" y="2" on="1"/>
        <pt x="113" y="2" on="0"/>
        <pt x="96" y="2" on="0"/>
        <pt x="77" y="2" on="0"/>
        <pt x="52" y="1" on="0"/>
        <pt x="31" y="0" on="1"/>
        <pt x="36" y="29" on="1"/>
        <pt x="85" y="30" on="0"/>
        <pt x="138" y="67" on="0"/>
        <pt x="154" y="97" on="1"/>
        <pt x="446" y="653" on="1"/>
        <pt x="437" y="654" on="0"/>
        <pt x="417" y="654" on="0"/>
        <pt x="408" y="654" on="1"/>
        <pt x="367" y="654" on="1"/>
        <pt x="371" y="683" on="1"/>
        <pt x="917" y="683" on="1"/>
        <pt x="906" y="460" on="1"/>
        <pt x="884" y="460" on="1"/>
        <pt x="885" y="470" on="0"/>
        <pt x="885" y="500" on="0"/>
        <pt x="885" y="511" on="1"/>
        <pt x="885" y="543" on="0"/>
        <pt x="878" y="596" on="0"/>
        <pt x="849" y="634" on="0"/>
        <pt x="791" y="654" on="0"/>
        <pt x="740" y="654" on="1"/>
        <pt x="637" y="654" on="1"/>
        <pt x="608" y="654" on="0"/>
        <pt x="589" y="642" on="0"/>
        <pt x="585" y="619" on="1"/>
        <pt x="539" y="343" on="1"/>
        <pt x="627" y="343" on="1"/>
        <pt x="658" y="343" on="0"/>
        <pt x="700" y="353" on="0"/>
        <pt x="728" y="379" on="0"/>
        <pt x="745" y="425" on="0"/>
        <pt x="750" y="460" on="1"/>
        <pt x="772" y="460" on="1"/>
        <pt x="728" y="197" on="1"/>
        <pt x="706" y="197" on="1"/>
        <pt x="709" y="211" on="0"/>
        <pt x="712" y="233" on="0"/>
        <pt x="712" y="251" on="1"/>
        <pt x="712" y="286" on="0"/>
        <pt x="673" y="314" on="0"/>
        <pt x="622" y="314" on="1"/>
        <pt x="534" y="314" on="1"/>
        <pt x="494" y="71" on="1"/>
        <pt x="492" y="59" on="0"/>
        <pt x="491" y="52" on="0"/>
        <pt x="491" y="50" on="1"/>
        <pt x="491" y="36" on="0"/>
        <pt x="509" y="29" on="0"/>
        <pt x="533" y="29" on="1"/>
        <pt x="635" y="29" on="1"/>
        <pt x="697" y="29" on="0"/>
        <pt x="774" y="57" on="0"/>
        <pt x="824" y="114" on="0"/>
        <pt x="858" y="199" on="0"/>
        <pt x="877" y="256" on="1"/>
        <pt x="899" y="256" on="1"/>
        <pt x="816" y="0" on="1"/>
        <pt x="336" y="0" on="1"/>
        <pt x="337" y="6" on="0"/>
        <pt x="339" y="22" on="0"/>
        <pt x="341" y="29" on="1"/>
        <pt x="362" y="29" on="0"/>
        <pt x="390" y="30" on="0"/>
        <pt x="407" y="38" on="0"/>
        <pt x="416" y="55" on="0"/>
        <pt x="419" y="70" on="1"/>
        <pt x="459" y="314" on="1"/>
        <pt x="297" y="314" on="1"/>
      </contour>
      <contour>
        <pt x="312" y="343" on="1"/>
        <pt x="464" y="343" on="1"/>
        <pt x="507" y="601" on="1"/>
        <pt x="509" y="613" on="0"/>
        <pt x="510" y="620" on="0"/>
        <pt x="510" y="623" on="1"/>
        <pt x="510" y="634" on="0"/>
        <pt x="501" y="645" on="0"/>
        <pt x="489" y="650" on="0"/>
        <pt x="476" y="651" on="0"/>
        <pt x="473" y="651" on="1"/>
      </contour>
    </TTGlyph>
    <TTGlyph name="B" xMin="43" yMin="0" xMax="697" yMax="683">
      <contour>
        <pt x="506" y="683" on="1"/>
        <pt x="548" y="683" on="0"/>
        <pt x="619" y="660" on="0"/>
        <pt x="669" y="621" on="0"/>
        <pt x="697" y="567" on="0"/>
        <pt x="697" y="535" on="1"/>
        <pt x="697" y="503" on="0"/>
        <pt x="667" y="445" on="0"/>
        <pt x="615" y="398" on="0"/>
        <pt x="545" y="365" on="0"/>
        <pt x="505" y="357" on="1"/>
        <pt x="541" y="353" on="0"/>
        <pt x="602" y="328" on="0"/>
        <pt x="646" y="288" on="0"/>
        <pt x="670" y="236" on="0"/>
        <pt x="670" y="206" on="1"/>
        <pt x="670" y="167" on="0"/>
        <pt x="631" y="93" on="0"/>
        <pt x="563" y="35" on="0"/>
        <pt x="471" y="0" on="0"/>
        <pt x="419" y="0" on="1"/>
        <pt x="43" y="0" on="1"/>
        <pt x="48" y="29" on="1"/>
        <pt x="68" y="29" on="1"/>
        <pt x="94" y="29" on="0"/>
        <pt x="125" y="33" on="0"/>
        <pt x="141" y="43" on="0"/>
        <pt x="148" y="60" on="0"/>
        <pt x="150" y="72" on="1"/>
        <pt x="239" y="607" on="1"/>
        <pt x="241" y="617" on="0"/>
        <pt x="242" y="624" on="0"/>
        <pt x="242" y="626" on="1"/>
        <pt x="242" y="641" on="0"/>
        <pt x="217" y="654" on="0"/>
        <pt x="172" y="654" on="1"/>
        <pt x="152" y="654" on="1"/>
        <pt x="157" y="683" on="1"/>
      </contour>
      <contour>
        <pt x="419" y="365" on="1"/>
        <pt x="462" y="365" on="0"/>
        <pt x="532" y="395" on="0"/>
        <pt x="582" y="444" on="0"/>
        <pt x="609" y="507" on="0"/>
        <pt x="609" y="539" on="1"/>
        <pt x="609" y="558" on="0"/>
        <pt x="598" y="598" on="0"/>
        <pt x="571" y="632" on="0"/>
        <pt x="528" y="654" on="0"/>
        <pt x="495" y="654" on="1"/>
        <pt x="369" y="654" on="1"/>
        <pt x="340" y="654" on="0"/>
        <pt x="321" y="642" on="0"/>
        <pt x="317" y="619" on="1"/>
        <pt x="275" y="365" on="1"/>
      </contour>
      <contour>
        <pt x="393" y="29" on="1"/>
        <pt x="431" y="29" on="0"/>
        <pt x="499" y="58" on="0"/>
        <pt x="550" y="108" on="0"/>
        <pt x="580" y="175" on="0"/>
        <pt x="580" y="214" on="1"/>
        <pt x="580" y="238" on="0"/>
        <pt x="566" y="285" on="0"/>
        <pt x="536" y="322" on="0"/>
        <pt x="491" y="345" on="0"/>
        <pt x="459" y="345" on="1"/>
        <pt x="272" y="345" on="1"/>
        <pt x="226" y="71" on="1"/>
        <pt x="224" y="59" on="0"/>
        <pt x="223" y="52" on="0"/>
        <pt x="223" y="50" on="1"/>
        <pt x="223" y="36" on="0"/>
        <pt x="241" y="29" on="0"/>
        <pt x="265" y="29" on="1"/>
      </contour>
    </TTGlyph>
    <TTGlyph name="C" xMin="106" yMin="-21" xMax="768" yMax="704">
      <contour>
        <pt x="726" y="440" on="1"/>
        <pt x="724" y="426" on="0"/>
        <pt x="718" y="421" on="0"/>
        <pt x="710" y="421" on="1"/>
        <pt x="700" y="421" on="0"/>
        <pt x="697" y="429" on="0"/>
        <pt x="697" y="443" on="1"/>
        <pt x="697" y="461" on="1"/>
        <pt x="697" y="498" on="0"/>
        <pt x="677" y="574" on="0"/>
        <pt x="634" y="636" on="0"/>
        <pt x="568" y="675" on="0"/>
        <pt x="521" y="675" on="1"/>
        <pt x="461" y="675" on="0"/>
        <pt x="338" y="615" on="0"/>
        <pt x="291" y="556" on="1"/>
        <pt x="260" y="517" on="0"/>
        <pt x="222" y="425" on="0"/>
        <pt x="202" y="340" on="0"/>
        <pt x="196" y="269" on="0"/>
        <pt x="196" y="249" on="1"/>
        <pt x="196" y="177" on="0"/>
        <pt x="240" y="83" on="0"/>
        <pt x="304" y="29" on="0"/>
        <pt x="378" y="8" on="0"/>
        <pt x="408" y="8" on="1"/>
        <pt x="454" y="8" on="0"/>
        <pt x="539" y="43" on="0"/>
        <pt x="608" y="103" on="0"/>
        <pt x="657" y="183" on="0"/>
        <pt x="667" y="228" on="1"/>
        <pt x="670" y="242" on="0"/>
        <pt x="674" y="249" on="0"/>
        <pt x="681" y="249" on="1"/>
        <pt x="684" y="249" on="0"/>
        <pt x="692" y="246" on="0"/>
        <pt x="692" y="239" on="1"/>
        <pt x="692" y="238" on="0"/>
        <pt x="685" y="204" on="0"/>
        <pt x="664" y="151" on="0"/>
        <pt x="623" y="87" on="0"/>
        <pt x="589" y="57" on="1"/>
        <pt x="573" y="43" on="0"/>
        <pt x="533" y="15" on="0"/>
        <pt x="483" y="-7" on="0"/>
        <pt x="426" y="-21" on="0"/>
        <pt x="393" y="-21" on="1"/>
        <pt x="335" y="-21" on="0"/>
        <pt x="231" y="21" on="0"/>
        <pt x="152" y="99" on="0"/>
        <pt x="106" y="211" on="0"/>
        <pt x="106" y="280" on="1"/>
        <pt x="106" y="366" on="0"/>
        <pt x="175" y="519" on="0"/>
        <pt x="288" y="636" on="0"/>
        <pt x="434" y="704" on="0"/>
        <pt x="511" y="704" on="1"/>
        <pt x="566" y="704" on="0"/>
        <pt x="652" y="658" on="0"/>
        <pt x="681" y="613" on="1"/>
        <pt x="745" y="695" on="1"/>
        <pt x="747" y="698" on="0"/>
        <pt x="754" y="704" on="0"/>
        <pt x="758" y="704" on="1"/>
        <pt x="768" y="704" on="0"/>
        <pt x="768" y="694" on="1"/>
        <pt x="768" y="693" on="0"/>
        <pt x="766" y="685" on="0"/>
        <pt x="766" y="683" on="1"/>
      </contour>
    </TTGlyph>
    <TTGlyph name="D" xMin="42" yMin="0" xMax="755" yMax="683">
      <contour>
        <pt x="505" y="683" on="1"/>
        <pt x="562" y="683" on="0"/>
        <pt x="654" y="639" on="0"/>
        <pt x="719" y="563" on="0"/>
        <pt x="755" y="461" on="0"/>
        <pt x="755" y="402" on="1"/>
        <pt x="755" y="321" on="0"/>
        <pt x="694" y="175" on="0"/>
        <pt x="592" y="65" on="0"/>
        <pt x="461" y="0" on="0"/>
        <pt x="392" y="0" on="1"/>
        <pt x="42" y="0" on="1"/>
        <pt x="47" y="29" on="1"/>
        <pt x="67" y="29" on="1"/>
        <pt x="93" y="29" on="0"/>
        <pt x="124" y="33" on="0"/>
        <pt x="140" y="43" on="0"/>
        <pt x="147" y="60" on="0"/>
        <pt x="149" y="72" on="1"/>
        <pt x="238" y="607" on="1"/>
        <pt x="240" y="617" on="0"/>
        <pt x="241" y="624" on="0"/>
        <pt x="241" y="626" on="1"/>
        <pt x="241" y="641" on="0"/>
        <pt x="216" y="654" on="0"/>
        <pt x="171" y="654" on="1"/>
        <pt x="151" y="654" on="1"/>
        <pt x="156" y="683" on="1"/>
      </contour>
      <contour>
        <pt x="228" y="71" on="1"/>
        <pt x="226" y="59" on="0"/>
        <pt x="225" y="52" on="0"/>
        <pt x="225" y="50" on="1"/>
        <pt x="225" y="36" on="0"/>
        <pt x="243" y="29" on="0"/>
        <pt x="267" y="29" on="1"/>
        <pt x="372" y="29" on="1"/>
        <pt x="443" y="29" on="0"/>
        <pt x="551" y="93" on="0"/>
        <pt x="589" y="144" on="1"/>
        <pt x="613" y="177" on="0"/>
        <pt x="644" y="262" on="0"/>
        <pt x="661" y="346" on="0"/>
        <pt x="668" y="419" on="0"/>
        <pt x="668" y="438" on="1"/>
        <pt x="668" y="502" on="0"/>
        <pt x="631" y="586" on="0"/>
        <pt x="575" y="635" on="0"/>
        <pt x="507" y="654" on="0"/>
        <pt x="476" y="654" on="1"/>
        <pt x="371" y="654" on="1"/>
        <pt x="342" y="654" on="0"/>
        <pt x="323" y="642" on="0"/>
        <pt x="319" y="619" on="1"/>
      </contour>
    </TTGlyph>
    <TTGlyph name="E" xMin="41" yMin="0" xMax="698" yMax="681">
      <contour>
        <pt x="598" y="0" on="1"/>
        <pt x="41" y="0" on="1"/>
        <pt x="46" y="29" on="1"/>
        <pt x="77" y="29" on="0"/>
        <pt x="114" y="30" on="0"/>
        <pt x="135" y="39" on="0"/>
        <pt x="145" y="57" on="0"/>
        <pt x="148" y="74" on="1"/>
        <pt x="236" y="599" on="1"/>
        <pt x="237" y="605" on="0"/>
        <pt x="239" y="618" on="0"/>
        <pt x="239" y="624" on="1"/>
        <pt x="239" y="640" on="0"/>
        <pt x="223" y="648" on="0"/>
        <pt x="208" y="650" on="1"/>
        <pt x="195" y="652" on="0"/>
        <pt x="168" y="652" on="0"/>
        <pt x="150" y="652" on="1"/>
        <pt x="155" y="681" on="1"/>
        <pt x="698" y="681" on="1"/>
        <pt x="687" y="458" on="1"/>
        <pt x="665" y="458" on="1"/>
        <pt x="665" y="463" on="0"/>
        <pt x="667" y="495" on="0"/>
        <pt x="667" y="506" on="1"/>
        <pt x="667" y="545" on="0"/>
        <pt x="654" y="601" on="0"/>
        <pt x="618" y="636" on="0"/>
        <pt x="554" y="652" on="0"/>
        <pt x="503" y="652" on="1"/>
        <pt x="374" y="652" on="1"/>
        <pt x="357" y="652" on="0"/>
        <pt x="337" y="649" on="0"/>
        <pt x="327" y="641" on="0"/>
        <pt x="322" y="627" on="0"/>
        <pt x="320" y="616" on="1"/>
        <pt x="279" y="368" on="1"/>
        <pt x="368" y="368" on="1"/>
        <pt x="403" y="368" on="0"/>
        <pt x="447" y="379" on="0"/>
        <pt x="475" y="406" on="0"/>
        <pt x="490" y="451" on="0"/>
        <pt x="496" y="485" on="1"/>
        <pt x="518" y="485" on="1"/>
        <pt x="474" y="222" on="1"/>
        <pt x="452" y="222" on="1"/>
        <pt x="455" y="236" on="0"/>
        <pt x="458" y="257" on="0"/>
        <pt x="458" y="274" on="1"/>
        <pt x="458" y="312" on="0"/>
        <pt x="417" y="339" on="0"/>
        <pt x="363" y="339" on="1"/>
        <pt x="274" y="339" on="1"/>
        <pt x="229" y="73" on="1"/>
        <pt x="227" y="61" on="0"/>
        <pt x="226" y="54" on="0"/>
        <pt x="226" y="50" on="1"/>
        <pt x="226" y="36" on="0"/>
        <pt x="245" y="29" on="0"/>
        <pt x="270" y="29" on="1"/>
        <pt x="402" y="29" on="1"/>
        <pt x="469" y="29" on="0"/>
        <pt x="552" y="58" on="0"/>
        <pt x="606" y="115" on="0"/>
        <pt x="640" y="200" on="0"/>
        <pt x="659" y="256" on="1"/>
        <pt x="681" y="256" on="1"/>
      </contour>
    </TTGlyph>
    <TTGlyph name="F" xMin="41" yMin="0" xMax="684" yMax="681">
      <contour>
        <pt x="230" y="79" on="1"/>
        <pt x="228" y="68" on="0"/>
        <pt x="227" y="61" on="0"/>
        <pt x="227" y="59" on="1"/>
        <pt x="227" y="40" on="0"/>
        <pt x="254" y="33" on="0"/>
        <pt x="272" y="31" on="1"/>
        <pt x="280" y="30" on="0"/>
        <pt x="294" y="29" on="0"/>
        <pt x="309" y="29" on="0"/>
        <pt x="327" y="29" on="0"/>
        <pt x="340" y="29" on="1"/>
        <pt x="336" y="0" on="1"/>
        <pt x="325" y="1" on="0"/>
        <pt x="285" y="2" on="0"/>
        <pt x="240" y="2" on="0"/>
        <pt x="197" y="2" on="0"/>
        <pt x="184" y="2" on="1"/>
        <pt x="173" y="2" on="0"/>
        <pt x="132" y="2" on="0"/>
        <pt x="89" y="2" on="0"/>
        <pt x="50" y="1" on="0"/>
        <pt x="41" y="0" on="1"/>
        <pt x="46" y="29" on="1"/>
        <pt x="77" y="29" on="0"/>
        <pt x="114" y="30" on="0"/>
        <pt x="135" y="39" on="0"/>
        <pt x="145" y="57" on="0"/>
        <pt x="148" y="74" on="1"/>
        <pt x="236" y="599" on="1"/>
        <pt x="237" y="605" on="0"/>
        <pt x="239" y="618" on="0"/>
        <pt x="239" y="624" on="1"/>
        <pt x="239" y="640" on="0"/>
        <pt x="223" y="648" on="0"/>
        <pt x="208" y="650" on="1"/>
        <pt x="195" y="652" on="0"/>
        <pt x="168" y="652" on="0"/>
        <pt x="150" y="652" on="1"/>
        <pt x="155" y="681" on="1"/>
        <pt x="684" y="681" on="1"/>
        <pt x="673" y="458" on="1"/>
        <pt x="651" y="458" on="1"/>
        <pt x="652" y="469" on="0"/>
        <pt x="653" y="496" on="0"/>
        <pt x="653" y="507" on="1"/>
        <pt x="653" y="546" on="0"/>
        <pt x="640" y="601" on="0"/>
        <pt x="606" y="636" on="0"/>
        <pt x="544" y="652" on="0"/>
        <pt x="494" y="652" on="1"/>
        <pt x="374" y="652" on="1"/>
        <pt x="357" y="652" on="0"/>
        <pt x="337" y="649" on="0"/>
        <pt x="327" y="641" on="0"/>
        <pt x="322" y="627" on="0"/>
        <pt x="320" y="616" on="1"/>
        <pt x="276" y="355" on="1"/>
        <pt x="362" y="355" on="1"/>
        <pt x="395" y="355" on="0"/>
        <pt x="438" y="365" on="0"/>
        <pt x="466" y="391" on="0"/>
        <pt x="482" y="437" on="0"/>
        <pt x="488" y="472" on="1"/>
        <pt x="510" y="472" on="1"/>
        <pt x="466" y="209" on="1"/>
        <pt x="444" y="209" on="1"/>
        <pt x="447" y="223" on="0"/>
        <pt x="450" y="245" on="0"/>
        <pt x="450" y="262" on="1"/>
        <pt x="450" y="299" on="0"/>
        <pt x="409" y="326" on="0"/>
        <pt x="357" y="326" on="1"/>
        <pt x="271" y="326" on="1"/>
      </contour>
    </TTGlyph>
    <TTGlyph name="G" xMin="106" yMin="-21" xMax="767" yMax="704">
      <contour>
        <pt x="655" y="20" on="1"/>
        <pt x="653" y="8" on="0"/>
        <pt x="649" y="1" on="0"/>
        <pt x="644" y="1" on="1"/>
        <pt x="640" y="1" on="0"/>
        <pt x="627" y="15" on="0"/>
        <pt x="612" y="34" on="0"/>
        <pt x="598" y="57" on="0"/>
        <pt x="595" y="66" on="1"/>
        <pt x="582" y="46" on="0"/>
        <pt x="540" y="14" on="0"/>
        <pt x="487" y="-9" on="0"/>
        <pt x="426" y="-21" on="0"/>
        <pt x="394" y="-21" on="1"/>
        <pt x="334" y="-21" on="0"/>
        <pt x="229" y="22" on="0"/>
        <pt x="151" y="100" on="0"/>
        <pt x="106" y="211" on="0"/>
        <pt x="106" y="280" on="1"/>
        <pt x="106" y="366" on="0"/>
        <pt x="175" y="519" on="0"/>
        <pt x="289" y="636" on="0"/>
        <pt x="434" y="704" on="0"/>
        <pt x="510" y="704" on="1"/>
        <pt x="528" y="704" on="0"/>
        <pt x="569" y="698" on="0"/>
        <pt x="614" y="679" on="0"/>
        <pt x="659" y="644" on="0"/>
        <pt x="681" y="614" on="1"/>
        <pt x="744" y="695" on="1"/>
        <pt x="746" y="698" on="0"/>
        <pt x="753" y="704" on="0"/>
        <pt x="757" y="704" on="1"/>
        <pt x="767" y="704" on="0"/>
        <pt x="767" y="694" on="1"/>
        <pt x="767" y="693" on="0"/>
        <pt x="765" y="685" on="0"/>
        <pt x="765" y="683" on="1"/>
        <pt x="725" y="440" on="1"/>
        <pt x="723" y="426" on="0"/>
        <pt x="717" y="421" on="0"/>
        <pt x="709" y="421" on="1"/>
        <pt x="699" y="421" on="0"/>
        <pt x="696" y="429" on="0"/>
        <pt x="696" y="443" on="1"/>
        <pt x="696" y="461" on="1"/>
        <pt x="696" y="497" on="0"/>
        <pt x="676" y="572" on="0"/>
        <pt x="634" y="635" on="0"/>
        <pt x="567" y="675" on="0"/>
        <pt x="520" y="675" on="1"/>
        <pt x="457" y="675" on="0"/>
        <pt x="324" y="605" on="0"/>
        <pt x="277" y="536" on="1"/>
        <pt x="250" y="497" on="0"/>
        <pt x="218" y="410" on="0"/>
        <pt x="201" y="331" on="0"/>
        <pt x="196" y="267" on="0"/>
        <pt x="196" y="250" on="1"/>
        <pt x="196" y="176" on="0"/>
        <pt x="242" y="82" on="0"/>
        <pt x="309" y="28" on="0"/>
        <pt x="384" y="8" on="0"/>
        <pt x="413" y="8" on="1"/>
        <pt x="444" y="8" on="0"/>
        <pt x="503" y="24" on="0"/>
        <pt x="551" y="53" on="0"/>
        <pt x="584" y="93" on="0"/>
        <pt x="589" y="118" on="1"/>
        <pt x="590" y="124" on="0"/>
        <pt x="595" y="154" on="0"/>
        <pt x="601" y="185" on="0"/>
        <pt x="605" y="211" on="0"/>
        <pt x="605" y="212" on="1"/>
        <pt x="605" y="220" on="0"/>
        <pt x="598" y="232" on="0"/>
        <pt x="580" y="239" on="0"/>
        <pt x="546" y="242" on="0"/>
        <pt x="519" y="242" on="1"/>
        <pt x="488" y="242" on="1"/>
        <pt x="493" y="271" on="1"/>
        <pt x="503" y="270" on="0"/>
        <pt x="542" y="269" on="0"/>
        <pt x="586" y="269" on="0"/>
        <pt x="627" y="269" on="0"/>
        <pt x="639" y="269" on="1"/>
        <pt x="650" y="269" on="0"/>
        <pt x="685" y="269" on="0"/>
        <pt x="721" y="269" on="0"/>
        <pt x="754" y="270" on="0"/>
        <pt x="764" y="271" on="1"/>
        <pt x="763" y="265" on="0"/>
        <pt x="761" y="249" on="0"/>
        <pt x="759" y="242" on="1"/>
        <pt x="738" y="242" on="0"/>
        <pt x="711" y="240" on="0"/>
        <pt x="695" y="232" on="0"/>
        <pt x="687" y="217" on="0"/>
        <pt x="685" y="204" on="1"/>
      </contour>
    </TTGlyph>
    <TTGlyph name="Gamma" xMin="41" yMin="0" xMax="657" yMax="681">
      <contour>
        <pt x="230" y="77" on="1"/>
        <pt x="227" y="62" on="0"/>
        <pt x="227" y="59" on="1"/>
        <pt x="227" y="50" on="0"/>
        <pt x="234" y="39" on="0"/>
        <pt x="252" y="32" on="0"/>
        <pt x="285" y="29" on="0"/>
        <pt x="311" y="29" on="1"/>
        <pt x="340" y="29" on="1"/>
        <pt x="336" y="0" on="1"/>
        <pt x="325" y="1" on="0"/>
        <pt x="285" y="2" on="0"/>
        <pt x="240" y="2" on="0"/>
        <pt x="197" y="2" on="0"/>
        <pt x="184" y="2" on="1"/>
        <pt x="173" y="2" on="0"/>
        <pt x="132" y="2" on="0"/>
        <pt x="89" y="2" on="0"/>
        <pt x="50" y="1" on="0"/>
        <pt x="41" y="0" on="1"/>
        <pt x="46" y="29" on="1"/>
        <pt x="66" y="29" on="1"/>
        <pt x="92" y="29" on="0"/>
        <pt x="123" y="33" on="0"/>
        <pt x="139" y="43" on="0"/>
        <pt x="146" y="60" on="0"/>
        <pt x="148" y="72" on="1"/>
        <pt x="236" y="601" on="1"/>
        <pt x="238" y="614" on="0"/>
        <pt x="239" y="621" on="0"/>
        <pt x="239" y="624" on="1"/>
        <pt x="239" y="631" on="0"/>
        <pt x="235" y="642" on="0"/>
        <pt x="222" y="649" on="0"/>
        <pt x="194" y="652" on="0"/>
        <pt x="170" y="652" on="1"/>
        <pt x="150" y="652" on="1"/>
        <pt x="151" y="658" on="0"/>
        <pt x="153" y="674" on="0"/>
        <pt x="155" y="681" on="1"/>
        <pt x="657" y="681" on="1"/>
        <pt x="646" y="458" on="1"/>
        <pt x="624" y="458" on="1"/>
        <pt x="625" y="471" on="0"/>
        <pt x="626" y="496" on="0"/>
        <pt x="626" y="509" on="1"/>
        <pt x="626" y="543" on="0"/>
        <pt x="617" y="596" on="0"/>
        <pt x="586" y="633" on="0"/>
        <pt x="528" y="652" on="0"/>
        <pt x="479" y="652" on="1"/>
        <pt x="372" y="652" on="1"/>
        <pt x="343" y="652" on="0"/>
        <pt x="324" y="640" on="0"/>
        <pt x="320" y="618" on="1"/>
      </contour>
    </TTGlyph>
    <TTGlyph name="H" xMin="41" yMin="0" xMax="806" yMax="683">
      <contour>
        <pt x="609" y="71" on="1"/>
        <pt x="608" y="65" on="0"/>
        <pt x="607" y="59" on="0"/>
        <pt x="607" y="57" on="1"/>
        <pt x="607" y="50" on="0"/>
        <pt x="612" y="39" on="0"/>
        <pt x="627" y="32" on="0"/>
        <pt x="654" y="29" on="0"/>
        <pt x="677" y="29" on="1"/>
        <pt x="697" y="29" on="1"/>
        <pt x="695" y="22" on="0"/>
        <pt x="693" y="6" on="0"/>
        <pt x="692" y="0" on="1"/>
        <pt x="683" y="1" on="0"/>
        <pt x="647" y="2" on="0"/>
        <pt x="606" y="2" on="0"/>
        <pt x="567" y="2" on="0"/>
        <pt x="556" y="2" on="1"/>
        <pt x="545" y="2" on="0"/>
        <pt x="507" y="2" on="0"/>
        <pt x="466" y="2" on="0"/>
        <pt x="430" y="1" on="0"/>
        <pt x="421" y="0" on="1"/>
        <pt x="426" y="29" on="1"/>
        <pt x="446" y="29" on="1"/>
        <pt x="472" y="29" on="0"/>
        <pt x="503" y="33" on="0"/>
        <pt x="519" y="43" on="0"/>
        <pt x="526" y="59" on="0"/>
        <pt x="528" y="72" on="1"/>
        <pt x="573" y="341" on="1"/>
        <pt x="274" y="341" on="1"/>
        <pt x="229" y="71" on="1"/>
        <pt x="228" y="65" on="0"/>
        <pt x="227" y="59" on="0"/>
        <pt x="227" y="57" on="1"/>
        <pt x="227" y="50" on="0"/>
        <pt x="232" y="39" on="0"/>
        <pt x="247" y="32" on="0"/>
        <pt x="274" y="29" on="0"/>
        <pt x="297" y="29" on="1"/>
        <pt x="317" y="29" on="1"/>
        <pt x="315" y="22" on="0"/>
        <pt x="313" y="6" on="0"/>
        <pt x="312" y="0" on="1"/>
        <pt x="303" y="1" on="0"/>
        <pt x="267" y="2" on="0"/>
        <pt x="226" y="2" on="0"/>
        <pt x="187" y="2" on="0"/>
        <pt x="176" y="2" on="1"/>
        <pt x="165" y="2" on="0"/>
        <pt x="127" y="2" on="0"/>
        <pt x="86" y="2" on="0"/>
        <pt x="50" y="1" on="0"/>
        <pt x="41" y="0" on="1"/>
        <pt x="46" y="29" on="1"/>
        <pt x="66" y="29" on="1"/>
        <pt x="92" y="29" on="0"/>
        <pt x="123" y="33" on="0"/>
        <pt x="139" y="43" on="0"/>
        <pt x="146" y="60" on="0"/>
        <pt x="148" y="72" on="1"/>
        <pt x="237" y="607" on="1"/>
        <pt x="239" y="617" on="0"/>
        <pt x="240" y="624" on="0"/>
        <pt x="240" y="626" on="1"/>
        <pt x="240" y="641" on="0"/>
        <pt x="215" y="654" on="0"/>
        <pt x="170" y="654" on="1"/>
        <pt x="150" y="654" on="1"/>
        <pt x="155" y="683" on="1"/>
        <pt x="164" y="682" on="0"/>
        <pt x="200" y="681" on="0"/>
        <pt x="241" y="681" on="0"/>
        <pt x="279" y="681" on="0"/>
        <pt x="290" y="681" on="1"/>
        <pt x="301" y="681" on="0"/>
        <pt x="339" y="681" on="0"/>
        <pt x="380" y="681" on="0"/>
        <pt x="417" y="682" on="0"/>
        <pt x="426" y="683" on="1"/>
        <pt x="421" y="654" on="1"/>
        <pt x="401" y="654" on="1"/>
        <pt x="376" y="654" on="0"/>
        <pt x="345" y="650" on="0"/>
        <pt x="328" y="641" on="0"/>
        <pt x="321" y="624" on="0"/>
        <pt x="319" y="612" on="1"/>
        <pt x="279" y="370" on="1"/>
        <pt x="578" y="370" on="1"/>
        <pt x="617" y="607" on="1"/>
        <pt x="619" y="617" on="0"/>
        <pt x="620" y="624" on="0"/>
        <pt x="620" y="626" on="1"/>
        <pt x="620" y="641" on="0"/>
        <pt x="595" y="654" on="0"/>
        <pt x="550" y="654" on="1"/>
        <pt x="530" y="654" on="1"/>
        <pt x="535" y="683" on="1"/>
        <pt x="544" y="682" on="0"/>
        <pt x="580" y="681" on="0"/>
        <pt x="621" y="681" on="0"/>
        <pt x="659" y="681" on="0"/>
        <pt x="670" y="681" on="1"/>
        <pt x="681" y="681" on="0"/>
        <pt x="719" y="681" on="0"/>
        <pt x="760" y="681" on="0"/>
        <pt x="797" y="682" on="0"/>
        <pt x="806" y="683" on="1"/>
        <pt x="801" y="654" on="1"/>
        <pt x="781" y="654" on="1"/>
        <pt x="756" y="654" on="0"/>
        <pt x="725" y="650" on="0"/>
        <pt x="708" y="641" on="0"/>
        <pt x="701" y="624" on="0"/>
        <pt x="699" y="612" on="1"/>
      </contour>
    </TTGlyph>
    <TTGlyph name="I" xMin="36" yMin="0" xMax="430" yMax="683">
      <contour>
        <pt x="230" y="77" on="1"/>
        <pt x="228" y="65" on="0"/>
        <pt x="227" y="59" on="0"/>
        <pt x="227" y="57" on="1"/>
        <pt x="227" y="40" on="0"/>
        <pt x="255" y="29" on="0"/>
        <pt x="300" y="29" on="1"/>
        <pt x="321" y="29" on="1"/>
        <pt x="317" y="0" on="1"/>
        <pt x="308" y="1" on="0"/>
        <pt x="270" y="2" on="0"/>
        <pt x="228" y="2" on="0"/>
        <pt x="188" y="2" on="0"/>
        <pt x="177" y="2" on="1"/>
        <pt x="166" y="2" on="0"/>
        <pt x="126" y="2" on="0"/>
        <pt x="83" y="2" on="0"/>
        <pt x="45" y="1" on="0"/>
        <pt x="36" y="0" on="1"/>
        <pt x="41" y="29" on="1"/>
        <pt x="63" y="29" on="1"/>
        <pt x="90" y="29" on="0"/>
        <pt x="121" y="33" on="0"/>
        <pt x="139" y="43" on="0"/>
        <pt x="146" y="59" on="0"/>
        <pt x="148" y="72" on="1"/>
        <pt x="237" y="607" on="1"/>
        <pt x="240" y="622" on="0"/>
        <pt x="240" y="625" on="1"/>
        <pt x="240" y="633" on="0"/>
        <pt x="235" y="644" on="0"/>
        <pt x="220" y="651" on="0"/>
        <pt x="191" y="654" on="0"/>
        <pt x="167" y="654" on="1"/>
        <pt x="145" y="654" on="1"/>
        <pt x="147" y="661" on="0"/>
        <pt x="149" y="677" on="0"/>
        <pt x="150" y="683" on="1"/>
        <pt x="159" y="682" on="0"/>
        <pt x="197" y="681" on="0"/>
        <pt x="239" y="681" on="0"/>
        <pt x="279" y="681" on="0"/>
        <pt x="290" y="681" on="1"/>
        <pt x="301" y="681" on="0"/>
        <pt x="341" y="681" on="0"/>
        <pt x="383" y="681" on="0"/>
        <pt x="421" y="682" on="0"/>
        <pt x="430" y="683" on="1"/>
        <pt x="426" y="654" on="1"/>
        <pt x="404" y="654" on="1"/>
        <pt x="378" y="654" on="0"/>
        <pt x="346" y="650" on="0"/>
        <pt x="329" y="641" on="0"/>
        <pt x="321" y="624" on="0"/>
        <pt x="319" y="612" on="1"/>
      </contour>
    </TTGlyph>
    <TTGlyph name="J" xMin="68" yMin="-21" xMax="565" yMax="683">
      <contour>
        <pt x="405" y="146" on="1"/>
        <pt x="399" y="109" on="0"/>
        <pt x="360" y="48" on="0"/>
        <pt x="304" y="4" on="0"/>
        <pt x="236" y="-21" on="0"/>
        <pt x="201" y="-21" on="1"/>
        <pt x="172" y="-21" on="0"/>
        <pt x="123" y="-3" on="0"/>
        <pt x="88" y="29" on="0"/>
        <pt x="68" y="71" on="0"/>
        <pt x="68" y="95" on="1"/>
        <pt x="68" y="115" on="0"/>
        <pt x="79" y="141" on="0"/>
        <pt x="97" y="157" on="0"/>
        <pt x="117" y="163" on="0"/>
        <pt x="126" y="163" on="1"/>
        <pt x="149" y="163" on="0"/>
        <pt x="170" y="137" on="0"/>
        <pt x="170" y="121" on="1"/>
        <pt x="170" y="98" on="0"/>
        <pt x="136" y="64" on="0"/>
        <pt x="113" y="64" on="1"/>
        <pt x="110" y="64" on="0"/>
        <pt x="102" y="66" on="0"/>
        <pt x="100" y="66" on="1"/>
        <pt x="106" y="47" on="0"/>
        <pt x="129" y="21" on="0"/>
        <pt x="157" y="6" on="0"/>
        <pt x="187" y="-1" on="0"/>
        <pt x="199" y="-1" on="1"/>
        <pt x="221" y="-1" on="0"/>
        <pt x="262" y="23" on="0"/>
        <pt x="296" y="64" on="0"/>
        <pt x="320" y="116" on="0"/>
        <pt x="325" y="144" on="1"/>
        <pt x="401" y="601" on="1"/>
        <pt x="403" y="614" on="0"/>
        <pt x="404" y="621" on="0"/>
        <pt x="404" y="624" on="1"/>
        <pt x="404" y="632" on="0"/>
        <pt x="399" y="643" on="0"/>
        <pt x="381" y="651" on="0"/>
        <pt x="347" y="654" on="0"/>
        <pt x="318" y="654" on="1"/>
        <pt x="287" y="654" on="1"/>
        <pt x="291" y="683" on="1"/>
        <pt x="302" y="682" on="0"/>
        <pt x="341" y="681" on="0"/>
        <pt x="385" y="681" on="0"/>
        <pt x="426" y="681" on="0"/>
        <pt x="439" y="681" on="1"/>
        <pt x="450" y="681" on="0"/>
        <pt x="485" y="681" on="0"/>
        <pt x="522" y="681" on="0"/>
        <pt x="556" y="682" on="0"/>
        <pt x="565" y="683" on="1"/>
        <pt x="560" y="654" on="1"/>
        <pt x="539" y="654" on="0"/>
        <pt x="511" y="653" on="0"/>
        <pt x="494" y="645" on="0"/>
        <pt x="485" y="628" on="0"/>
        <pt x="482" y="613" on="1"/>
      </contour>
    </TTGlyph>
    <TTGlyph name="K" xMin="41" yMin="0" xMax="820" yMax="683">
      <contour>
        <pt x="632" y="78" on="1"/>
        <pt x="641" y="61" on="0"/>
        <pt x="657" y="42" on="0"/>
        <pt x="678" y="32" on="0"/>
        <pt x="705" y="29" on="0"/>
        <pt x="724" y="29" on="1"/>
        <pt x="718" y="0" on="1"/>
        <pt x="698" y="1" on="0"/>
        <pt x="674" y="2" on="0"/>
        <pt x="653" y="2" on="0"/>
        <pt x="629" y="2" on="0"/>
        <pt x="608" y="2" on="1"/>
        <pt x="597" y="2" on="0"/>
        <pt x="562" y="2" on="0"/>
        <pt x="524" y="2" on="0"/>
        <pt x="491" y="1" on="0"/>
        <pt x="482" y="0" on="1"/>
        <pt x="483" y="6" on="0"/>
        <pt x="485" y="22" on="0"/>
        <pt x="487" y="29" on="1"/>
        <pt x="494" y="29" on="0"/>
        <pt x="513" y="30" on="0"/>
        <pt x="531" y="36" on="0"/>
        <pt x="544" y="50" on="0"/>
        <pt x="544" y="63" on="1"/>
        <pt x="544" y="71" on="0"/>
        <pt x="541" y="80" on="0"/>
        <pt x="536" y="89" on="1"/>
        <pt x="398" y="367" on="1"/>
        <pt x="259" y="252" on="1"/>
        <pt x="229" y="71" on="1"/>
        <pt x="228" y="65" on="0"/>
        <pt x="227" y="59" on="0"/>
        <pt x="227" y="57" on="1"/>
        <pt x="227" y="50" on="0"/>
        <pt x="232" y="39" on="0"/>
        <pt x="247" y="32" on="0"/>
        <pt x="274" y="29" on="0"/>
        <pt x="297" y="29" on="1"/>
        <pt x="317" y="29" on="1"/>
        <pt x="315" y="22" on="0"/>
        <pt x="313" y="6" on="0"/>
        <pt x="312" y="0" on="1"/>
        <pt x="303" y="1" on="0"/>
        <pt x="267" y="2" on="0"/>
        <pt x="226" y="2" on="0"/>
        <pt x="187" y="2" on="0"/>
        <pt x="176" y="2" on="1"/>
        <pt x="165" y="2" on="0"/>
        <pt x="127" y="2" on="0"/>
        <pt x="86" y="2" on="0"/>
        <pt x="50" y="1" on="0"/>
        <pt x="41" y="0" on="1"/>
        <pt x="46" y="29" on="1"/>
        <pt x="66" y="29" on="1"/>
        <pt x="92" y="29" on="0"/>
        <pt x="123" y="33" on="0"/>
        <pt x="139" y="43" on="0"/>
        <pt x="146" y="60" on="0"/>
        <pt x="148" y="72" on="1"/>
        <pt x="237" y="607" on="1"/>
        <pt x="239" y="617" on="0"/>
        <pt x="240" y="624" on="0"/>
        <pt x="240" y="626" on="1"/>
        <pt x="240" y="641" on="0"/>
        <pt x="215" y="654" on="0"/>
        <pt x="170" y="654" on="1"/>
        <pt x="150" y="654" on="1"/>
        <pt x="155" y="683" on="1"/>
        <pt x="164" y="682" on="0"/>
        <pt x="200" y="681" on="0"/>
        <pt x="241" y="681" on="0"/>
        <pt x="279" y="681" on="0"/>
        <pt x="290" y="681" on="1"/>
        <pt x="301" y="681" on="0"/>
        <pt x="339" y="681" on="0"/>
        <pt x="380" y="681" on="0"/>
        <pt x="417" y="682" on="0"/>
        <pt x="426" y="683" on="1"/>
        <pt x="421" y="654" on="1"/>
        <pt x="401" y="654" on="1"/>
        <pt x="376" y="654" on="0"/>
        <pt x="345" y="650" on="0"/>
        <pt x="328" y="641" on="0"/>
        <pt x="321" y="624" on="0"/>
        <pt x="319" y="612" on="1"/>
        <pt x="264" y="282" on="1"/>
        <pt x="646" y="602" on="1"/>
        <pt x="655" y="613" on="0"/>
        <pt x="655" y="627" on="1"/>
        <pt x="655" y="641" on="0"/>
        <pt x="635" y="654" on="0"/>
        <pt x="621" y="654" on="1"/>
        <pt x="622" y="660" on="0"/>
        <pt x="624" y="676" on="0"/>
        <pt x="626" y="683" on="1"/>
        <pt x="635" y="682" on="0"/>
        <pt x="663" y="681" on="0"/>
        <pt x="695" y="681" on="0"/>
        <pt x="724" y="681" on="0"/>
        <pt x="734" y="681" on="1"/>
        <pt x="751" y="681" on="0"/>
        <pt x="774" y="681" on="0"/>
        <pt x="792" y="681" on="0"/>
        <pt x="809" y="682" on="0"/>
        <pt x="820" y="683" on="1"/>
        <pt x="815" y="654" on="1"/>
        <pt x="808" y="654" on="0"/>
        <pt x="780" y="651" on="0"/>
        <pt x="742" y="639" on="0"/>
        <pt x="695" y="615" on="0"/>
        <pt x="669" y="593" on="1"/>
        <pt x="460" y="419" on="1"/>
      </contour>
    </TTGlyph>
    <TTGlyph name="L" xMin="41" yMin="0" xMax="613" yMax="683">
      <contour>
        <pt x="544" y="0" on="1"/>
        <pt x="41" y="0" on="1"/>
        <pt x="46" y="29" on="1"/>
        <pt x="66" y="29" on="1"/>
        <pt x="92" y="29" on="0"/>
        <pt x="123" y="33" on="0"/>
        <pt x="139" y="43" on="0"/>
        <pt x="146" y="60" on="0"/>
        <pt x="148" y="72" on="1"/>
        <pt x="237" y="607" on="1"/>
        <pt x="239" y="617" on="0"/>
        <pt x="240" y="624" on="0"/>
        <pt x="240" y="626" on="1"/>
        <pt x="240" y="641" on="0"/>
        <pt x="215" y="654" on="0"/>
        <pt x="170" y="654" on="1"/>
        <pt x="150" y="654" on="1"/>
        <pt x="155" y="683" on="1"/>
        <pt x="164" y="682" on="0"/>
        <pt x="202" y="681" on="0"/>
        <pt x="246" y="681" on="0"/>
        <pt x="286" y="681" on="0"/>
        <pt x="297" y="681" on="1"/>
        <pt x="309" y="681" on="0"/>
        <pt x="352" y="681" on="0"/>
        <pt x="398" y="681" on="0"/>
        <pt x="439" y="682" on="0"/>
        <pt x="449" y="683" on="1"/>
        <pt x="445" y="654" on="1"/>
        <pt x="415" y="654" on="1"/>
        <pt x="385" y="654" on="0"/>
        <pt x="349" y="650" on="0"/>
        <pt x="329" y="641" on="0"/>
        <pt x="321" y="624" on="0"/>
        <pt x="319" y="612" on="1"/>
        <pt x="229" y="71" on="1"/>
        <pt x="227" y="59" on="0"/>
        <pt x="226" y="52" on="0"/>
        <pt x="226" y="50" on="1"/>
        <pt x="226" y="36" on="0"/>
        <pt x="244" y="29" on="0"/>
        <pt x="268" y="29" on="1"/>
        <pt x="355" y="29" on="1"/>
        <pt x="421" y="29" on="0"/>
        <pt x="504" y="72" on="0"/>
        <pt x="555" y="139" on="0"/>
        <pt x="581" y="219" on="0"/>
        <pt x="591" y="256" on="1"/>
        <pt x="613" y="256" on="1"/>
      </contour>
    </TTGlyph>
    <TTGlyph name="Lambda" xMin="31" yMin="0" xMax="653" yMax="714">
      <contour>
        <pt x="169" y="97" on="1"/>
        <pt x="166" y="92" on="0"/>
        <pt x="163" y="82" on="0"/>
        <pt x="163" y="73" on="1"/>
        <pt x="163" y="58" on="0"/>
        <pt x="179" y="41" on="0"/>
        <pt x="200" y="31" on="0"/>
        <pt x="220" y="28" on="0"/>
        <pt x="224" y="28" on="1"/>
        <pt x="219" y="0" on="1"/>
        <pt x="198" y="2" on="0"/>
        <pt x="142" y="2" on="0"/>
        <pt x="120" y="2" on="1"/>
        <pt x="106" y="2" on="0"/>
        <pt x="88" y="2" on="0"/>
        <pt x="71" y="2" on="0"/>
        <pt x="49" y="1" on="0"/>
        <pt x="31" y="0" on="1"/>
        <pt x="32" y="6" on="0"/>
        <pt x="34" y="22" on="0"/>
        <pt x="36" y="29" on="1"/>
        <pt x="74" y="30" on="0"/>
        <pt x="124" y="62" on="0"/>
        <pt x="139" y="93" on="1"/>
        <pt x="436" y="697" on="1"/>
        <pt x="440" y="705" on="0"/>
        <pt x="447" y="714" on="0"/>
        <pt x="458" y="714" on="1"/>
        <pt x="469" y="714" on="0"/>
        <pt x="474" y="705" on="0"/>
        <pt x="476" y="694" on="1"/>
        <pt x="574" y="69" on="1"/>
        <pt x="576" y="54" on="0"/>
        <pt x="586" y="38" on="0"/>
        <pt x="604" y="30" on="0"/>
        <pt x="632" y="29" on="0"/>
        <pt x="653" y="29" on="1"/>
        <pt x="648" y="0" on="1"/>
        <pt x="638" y="1" on="0"/>
        <pt x="607" y="2" on="0"/>
        <pt x="574" y="2" on="0"/>
        <pt x="542" y="2" on="0"/>
        <pt x="531" y="2" on="1"/>
        <pt x="521" y="2" on="0"/>
        <pt x="484" y="2" on="0"/>
        <pt x="446" y="2" on="0"/>
        <pt x="412" y="1" on="0"/>
        <pt x="403" y="0" on="1"/>
        <pt x="407" y="29" on="1"/>
        <pt x="408" y="29" on="1"/>
        <pt x="417" y="29" on="0"/>
        <pt x="445" y="30" on="0"/>
        <pt x="471" y="36" on="0"/>
        <pt x="490" y="50" on="0"/>
        <pt x="490" y="63" on="1"/>
        <pt x="490" y="65" on="0"/>
        <pt x="488" y="75" on="0"/>
        <pt x="488" y="76" on="1"/>
        <pt x="408" y="583" on="1"/>
      </contour>
    </TTGlyph>
    <TTGlyph name="M" xMin="44" yMin="0" xMax="966" yMax="683">
      <contour>
        <pt x="464" y="94" on="1"/>
        <pt x="777" y="666" on="1"/>
        <pt x="784" y="679" on="0"/>
        <pt x="796" y="683" on="0"/>
        <pt x="811" y="683" on="1"/>
        <pt x="966" y="683" on="1"/>
        <pt x="964" y="676" on="0"/>
        <pt x="962" y="660" on="0"/>
        <pt x="961" y="654" on="1"/>
        <pt x="941" y="654" on="1"/>
        <pt x="916" y="654" on="0"/>
        <pt x="885" y="650" on="0"/>
        <pt x="868" y="641" on="0"/>
        <pt x="861" y="624" on="0"/>
        <pt x="859" y="612" on="1"/>
        <pt x="769" y="71" on="1"/>
        <pt x="768" y="65" on="0"/>
        <pt x="767" y="59" on="0"/>
        <pt x="767" y="57" on="1"/>
        <pt x="767" y="50" on="0"/>
        <pt x="772" y="39" on="0"/>
        <pt x="787" y="32" on="0"/>
        <pt x="814" y="29" on="0"/>
        <pt x="837" y="29" on="1"/>
        <pt x="857" y="29" on="1"/>
        <pt x="855" y="22" on="0"/>
        <pt x="853" y="6" on="0"/>
        <pt x="852" y="0" on="1"/>
        <pt x="843" y="1" on="0"/>
        <pt x="808" y="2" on="0"/>
        <pt x="768" y="2" on="0"/>
        <pt x="731" y="2" on="0"/>
        <pt x="720" y="2" on="1"/>
        <pt x="709" y="2" on="0"/>
        <pt x="672" y="2" on="0"/>
        <pt x="632" y="2" on="0"/>
        <pt x="597" y="1" on="0"/>
        <pt x="588" y="0" on="1"/>
        <pt x="593" y="29" on="1"/>
        <pt x="613" y="29" on="1"/>
        <pt x="639" y="29" on="0"/>
        <pt x="670" y="33" on="0"/>
        <pt x="686" y="43" on="0"/>
        <pt x="693" y="60" on="0"/>
        <pt x="695" y="72" on="1"/>
        <pt x="792" y="653" on="1"/>
        <pt x="791" y="653" on="1"/>
        <pt x="442" y="17" on="1"/>
        <pt x="435" y="4" on="0"/>
        <pt x="424" y="0" on="0"/>
        <pt x="422" y="0" on="1"/>
        <pt x="414" y="0" on="0"/>
        <pt x="410" y="9" on="0"/>
        <pt x="408" y="21" on="1"/>
        <pt x="273" y="648" on="1"/>
        <pt x="272" y="648" on="1"/>
        <pt x="181" y="107" on="1"/>
        <pt x="179" y="94" on="0"/>
        <pt x="178" y="87" on="0"/>
        <pt x="178" y="82" on="1"/>
        <pt x="178" y="49" on="0"/>
        <pt x="229" y="29" on="0"/>
        <pt x="263" y="29" on="1"/>
        <pt x="257" y="0" on="1"/>
        <pt x="234" y="2" on="0"/>
        <pt x="175" y="2" on="0"/>
        <pt x="151" y="2" on="1"/>
        <pt x="141" y="2" on="0"/>
        <pt x="112" y="2" on="0"/>
        <pt x="82" y="2" on="0"/>
        <pt x="54" y="1" on="0"/>
        <pt x="44" y="0" on="1"/>
        <pt x="49" y="29" on="1"/>
        <pt x="102" y="29" on="0"/>
        <pt x="150" y="64" on="0"/>
        <pt x="155" y="97" on="1"/>
        <pt x="240" y="607" on="1"/>
        <pt x="242" y="617" on="0"/>
        <pt x="243" y="624" on="0"/>
        <pt x="243" y="626" on="1"/>
        <pt x="243" y="641" on="0"/>
        <pt x="218" y="654" on="0"/>
        <pt x="173" y="654" on="1"/>
        <pt x="153" y="654" on="1"/>
        <pt x="158" y="683" on="1"/>
        <pt x="312" y="683" on="1"/>
        <pt x="329" y="683" on="0"/>
        <pt x="337" y="677" on="0"/>
        <pt x="341" y="662" on="1"/>
      </contour>
    </TTGlyph>
    <TTGlyph name="N" xMin="41" yMin="0" xMax="806" yMax="683">
      <contour>
        <pt x="596" y="140" on="1"/>
        <pt x="669" y="577" on="1"/>
        <pt x="671" y="590" on="0"/>
        <pt x="672" y="597" on="0"/>
        <pt x="672" y="601" on="1"/>
        <pt x="672" y="618" on="0"/>
        <pt x="656" y="639" on="0"/>
        <pt x="632" y="650" on="0"/>
        <pt x="602" y="654" on="0"/>
        <pt x="587" y="654" on="1"/>
        <pt x="593" y="683" on="1"/>
        <pt x="616" y="681" on="0"/>
        <pt x="675" y="681" on="0"/>
        <pt x="699" y="681" on="1"/>
        <pt x="710" y="681" on="0"/>
        <pt x="738" y="681" on="0"/>
        <pt x="768" y="681" on="0"/>
        <pt x="796" y="682" on="0"/>
        <pt x="806" y="683" on="1"/>
        <pt x="804" y="676" on="0"/>
        <pt x="802" y="660" on="0"/>
        <pt x="801" y="654" on="1"/>
        <pt x="771" y="654" on="0"/>
        <pt x="733" y="643" on="0"/>
        <pt x="709" y="623" on="0"/>
        <pt x="697" y="598" on="0"/>
        <pt x="694" y="583" on="1"/>
        <pt x="597" y="3" on="1"/>
        <pt x="594" y="0" on="0"/>
        <pt x="587" y="0" on="1"/>
        <pt x="580" y="0" on="0"/>
        <pt x="576" y="6" on="0"/>
        <pt x="571" y="15" on="1"/>
        <pt x="280" y="606" on="1"/>
        <pt x="279" y="607" on="0"/>
        <pt x="274" y="617" on="0"/>
        <pt x="274" y="618" on="1"/>
        <pt x="273" y="619" on="0"/>
        <pt x="273" y="620" on="0"/>
        <pt x="272" y="621" on="1"/>
        <pt x="270" y="623" on="0"/>
        <pt x="269" y="627" on="0"/>
        <pt x="265" y="631" on="1"/>
        <pt x="178" y="107" on="1"/>
        <pt x="176" y="94" on="0"/>
        <pt x="175" y="87" on="0"/>
        <pt x="175" y="82" on="1"/>
        <pt x="175" y="49" on="0"/>
        <pt x="226" y="29" on="0"/>
        <pt x="260" y="29" on="1"/>
        <pt x="254" y="0" on="1"/>
        <pt x="231" y="2" on="0"/>
        <pt x="172" y="2" on="0"/>
        <pt x="148" y="2" on="1"/>
        <pt x="138" y="2" on="0"/>
        <pt x="109" y="2" on="0"/>
        <pt x="79" y="2" on="0"/>
        <pt x="51" y="1" on="0"/>
        <pt x="41" y="0" on="1"/>
        <pt x="46" y="29" on="1"/>
        <pt x="100" y="29" on="0"/>
        <pt x="147" y="65" on="0"/>
        <pt x="152" y="97" on="1"/>
        <pt x="244" y="647" on="1"/>
        <pt x="237" y="649" on="0"/>
        <pt x="207" y="654" on="0"/>
        <pt x="175" y="654" on="1"/>
        <pt x="150" y="654" on="1"/>
        <pt x="155" y="683" on="1"/>
        <pt x="309" y="683" on="1"/>
        <pt x="323" y="683" on="0"/>
        <pt x="331" y="679" on="0"/>
        <pt x="336" y="669" on="1"/>
      </contour>
    </TTGlyph>
    <TTGlyph name="O" xMin="105" yMin="-21" xMax="769" yMax="704">
      <contour>
        <pt x="769" y="406" on="1"/>
        <pt x="769" y="320" on="0"/>
        <pt x="702" y="165" on="0"/>
        <pt x="593" y="48" on="0"/>
        <pt x="452" y="-21" on="0"/>
        <pt x="377" y="-21" on="1"/>
        <pt x="319" y="-21" on="0"/>
        <pt x="220" y="22" on="0"/>
        <pt x="147" y="100" on="0"/>
        <pt x="105" y="209" on="0"/>
        <pt x="105" y="274" on="1"/>
        <pt x="105" y="358" on="0"/>
        <pt x="170" y="513" on="0"/>
        <pt x="280" y="632" on="0"/>
        <pt x="422" y="704" on="0"/>
        <pt x="498" y="704" on="1"/>
        <pt x="554" y="704" on="0"/>
        <pt x="652" y="662" on="0"/>
        <pt x="726" y="584" on="0"/>
        <pt x="769" y="474" on="0"/>
      </contour>
      <contour>
        <pt x="381" y="2" on="1"/>
        <pt x="444" y="2" on="0"/>
        <pt x="553" y="77" on="0"/>
        <pt x="634" y="200" on="0"/>
        <pt x="681" y="360" on="0"/>
        <pt x="681" y="444" on="1"/>
        <pt x="681" y="507" on="0"/>
        <pt x="648" y="597" on="0"/>
        <pt x="595" y="655" on="0"/>
        <pt x="528" y="682" on="0"/>
        <pt x="494" y="682" on="1"/>
        <pt x="438" y="682" on="0"/>
        <pt x="331" y="620" on="0"/>
        <pt x="248" y="508" on="0"/>
        <pt x="197" y="349" on="0"/>
        <pt x="197" y="252" on="1"/>
        <pt x="197" y="185" on="0"/>
        <pt x="230" y="90" on="0"/>
        <pt x="282" y="30" on="0"/>
        <pt x="348" y="2" on="0"/>
      </contour>
    </TTGlyph>
    <TTGlyph name="OE" xMin="118" yMin="-21" xMax="1026" yMax="704">
      <contour>
        <pt x="925" y="0" on="1"/>
        <pt x="542" y="0" on="1"/>
        <pt x="533" y="0" on="0"/>
        <pt x="517" y="-1" on="0"/>
        <pt x="497" y="-4" on="0"/>
        <pt x="470" y="-10" on="0"/>
        <pt x="450" y="-14" on="1"/>
        <pt x="438" y="-16" on="0"/>
        <pt x="405" y="-21" on="0"/>
        <pt x="388" y="-21" on="1"/>
        <pt x="333" y="-21" on="0"/>
        <pt x="235" y="21" on="0"/>
        <pt x="161" y="97" on="0"/>
        <pt x="118" y="207" on="0"/>
        <pt x="118" y="274" on="1"/>
        <pt x="118" y="331" on="0"/>
        <pt x="149" y="439" on="0"/>
        <pt x="203" y="534" on="0"/>
        <pt x="277" y="614" on="0"/>
        <pt x="364" y="672" on="0"/>
        <pt x="460" y="704" on="0"/>
        <pt x="509" y="704" on="1"/>
        <pt x="525" y="704" on="0"/>
        <pt x="552" y="700" on="0"/>
        <pt x="572" y="695" on="1"/>
        <pt x="589" y="691" on="0"/>
        <pt x="613" y="687" on="0"/>
        <pt x="631" y="684" on="0"/>
        <pt x="647" y="683" on="0"/>
        <pt x="656" y="683" on="1"/>
        <pt x="1026" y="683" on="1"/>
        <pt x="1015" y="460" on="1"/>
        <pt x="993" y="460" on="1"/>
        <pt x="994" y="470" on="0"/>
        <pt x="994" y="499" on="0"/>
        <pt x="994" y="509" on="1"/>
        <pt x="994" y="542" on="0"/>
        <pt x="986" y="596" on="0"/>
        <pt x="956" y="634" on="0"/>
        <pt x="897" y="654" on="0"/>
        <pt x="845" y="654" on="1"/>
        <pt x="727" y="654" on="1"/>
        <pt x="698" y="654" on="0"/>
        <pt x="679" y="642" on="0"/>
        <pt x="675" y="619" on="1"/>
        <pt x="634" y="369" on="1"/>
        <pt x="744" y="369" on="1"/>
        <pt x="777" y="369" on="0"/>
        <pt x="823" y="379" on="0"/>
        <pt x="854" y="405" on="0"/>
        <pt x="872" y="450" on="0"/>
        <pt x="877" y="486" on="1"/>
        <pt x="899" y="486" on="1"/>
        <pt x="855" y="223" on="1"/>
        <pt x="833" y="223" on="1"/>
        <pt x="836" y="237" on="0"/>
        <pt x="839" y="266" on="0"/>
        <pt x="839" y="273" on="1"/>
        <pt x="839" y="312" on="0"/>
        <pt x="793" y="340" on="0"/>
        <pt x="739" y="340" on="1"/>
        <pt x="629" y="340" on="1"/>
        <pt x="584" y="71" on="1"/>
        <pt x="582" y="59" on="0"/>
        <pt x="581" y="52" on="0"/>
        <pt x="581" y="50" on="1"/>
        <pt x="581" y="36" on="0"/>
        <pt x="599" y="29" on="0"/>
        <pt x="623" y="29" on="1"/>
        <pt x="739" y="29" on="1"/>
        <pt x="803" y="29" on="0"/>
        <pt x="882" y="58" on="0"/>
        <pt x="933" y="115" on="0"/>
        <pt x="967" y="200" on="0"/>
        <pt x="986" y="256" on="1"/>
        <pt x="1008" y="256" on="1"/>
      </contour>
      <contour>
        <pt x="585" y="496" on="1"/>
        <pt x="589" y="518" on="0"/>
        <pt x="595" y="574" on="0"/>
        <pt x="595" y="597" on="1"/>
        <pt x="595" y="611" on="0"/>
        <pt x="592" y="642" on="0"/>
        <pt x="576" y="668" on="0"/>
        <pt x="541" y="684" on="0"/>
        <pt x="508" y="684" on="1"/>
        <pt x="454" y="684" on="0"/>
        <pt x="347" y="619" on="0"/>
        <pt x="262" y="506" on="0"/>
        <pt x="209" y="353" on="0"/>
        <pt x="209" y="266" on="1"/>
        <pt x="209" y="215" on="0"/>
        <pt x="233" y="119" on="0"/>
        <pt x="280" y="44" on="0"/>
        <pt x="350" y="-1" on="0"/>
        <pt x="395" y="-1" on="1"/>
        <pt x="427" y="-1" on="0"/>
        <pt x="471" y="16" on="0"/>
        <pt x="502" y="58" on="0"/>
        <pt x="524" y="130" on="0"/>
        <pt x="533" y="184" on="1"/>
      </contour>
    </TTGlyph>
    <TTGlyph name="Oslash" xMin="99" yMin="-55" xMax="776" yMax="738">
      <contour>
        <pt x="690" y="623" on="1"/>
        <pt x="705" y="607" on="0"/>
        <pt x="733" y="565" on="0"/>
        <pt x="755" y="511" on="0"/>
        <pt x="769" y="445" on="0"/>
        <pt x="769" y="406" on="1"/>
        <pt x="769" y="320" on="0"/>
        <pt x="702" y="165" on="0"/>
        <pt x="593" y="48" on="0"/>
        <pt x="452" y="-21" on="0"/>
        <pt x="377" y="-21" on="1"/>
        <pt x="324" y="-21" on="0"/>
        <pt x="237" y="13" on="0"/>
        <pt x="199" y="45" on="1"/>
        <pt x="114" y="-55" on="1"/>
        <pt x="99" y="-43" on="1"/>
        <pt x="185" y="60" on="1"/>
        <pt x="147" y="99" on="0"/>
        <pt x="105" y="210" on="0"/>
        <pt x="105" y="274" on="1"/>
        <pt x="105" y="358" on="0"/>
        <pt x="170" y="513" on="0"/>
        <pt x="280" y="632" on="0"/>
        <pt x="422" y="704" on="0"/>
        <pt x="498" y="704" on="1"/>
        <pt x="547" y="704" on="0"/>
        <pt x="639" y="670" on="0"/>
        <pt x="675" y="638" on="1"/>
        <pt x="761" y="738" on="1"/>
        <pt x="776" y="726" on="1"/>
      </contour>
      <contour>
        <pt x="648" y="606" on="1"/>
        <pt x="640" y="617" on="0"/>
        <pt x="613" y="644" on="0"/>
        <pt x="575" y="668" on="0"/>
        <pt x="525" y="684" on="0"/>
        <pt x="494" y="684" on="1"/>
        <pt x="439" y="684" on="0"/>
        <pt x="325" y="626" on="0"/>
        <pt x="280" y="568" on="1"/>
        <pt x="246" y="525" on="0"/>
        <pt x="207" y="420" on="0"/>
        <pt x="187" y="324" on="0"/>
        <pt x="182" y="250" on="0"/>
        <pt x="182" y="237" on="1"/>
        <pt x="182" y="217" on="0"/>
        <pt x="191" y="139" on="0"/>
        <pt x="214" y="94" on="1"/>
      </contour>
      <contour>
        <pt x="226" y="76" on="1"/>
        <pt x="233" y="66" on="0"/>
        <pt x="259" y="40" on="0"/>
        <pt x="298" y="16" on="0"/>
        <pt x="349" y="-1" on="0"/>
        <pt x="381" y="-1" on="1"/>
        <pt x="412" y="-1" on="0"/>
        <pt x="471" y="16" on="0"/>
        <pt x="524" y="45" on="0"/>
        <pt x="568" y="82" on="0"/>
        <pt x="585" y="102" on="1"/>
        <pt x="625" y="151" on="0"/>
        <pt x="669" y="264" on="0"/>
        <pt x="689" y="364" on="0"/>
        <pt x="692" y="437" on="0"/>
        <pt x="692" y="444" on="1"/>
        <pt x="692" y="454" on="0"/>
        <pt x="691" y="485" on="0"/>
        <pt x="685" y="523" on="0"/>
        <pt x="672" y="566" on="0"/>
        <pt x="660" y="588" on="1"/>
      </contour>
    </TTGlyph>
    <TTGlyph name="P" xMin="42" yMin="0" xMax="696" yMax="683">
      <contour>
        <pt x="230" y="71" on="1"/>
        <pt x="229" y="65" on="0"/>
        <pt x="228" y="59" on="0"/>
        <pt x="228" y="57" on="1"/>
        <pt x="228" y="50" on="0"/>
        <pt x="233" y="39" on="0"/>
        <pt x="248" y="32" on="0"/>
        <pt x="275" y="29" on="0"/>
        <pt x="298" y="29" on="1"/>
        <pt x="318" y="29" on="1"/>
        <pt x="316" y="22" on="0"/>
        <pt x="314" y="6" on="0"/>
        <pt x="313" y="0" on="1"/>
        <pt x="304" y="1" on="0"/>
        <pt x="268" y="2" on="0"/>
        <pt x="227" y="2" on="0"/>
        <pt x="188" y="2" on="0"/>
        <pt x="177" y="2" on="1"/>
        <pt x="166" y="2" on="0"/>
        <pt x="128" y="2" on="0"/>
        <pt x="87" y="2" on="0"/>
        <pt x="51" y="1" on="0"/>
        <pt x="42" y="0" on="1"/>
        <pt x="47" y="29" on="1"/>
        <pt x="67" y="29" on="1"/>
        <pt x="93" y="29" on="0"/>
        <pt x="124" y="33" on="0"/>
        <pt x="140" y="43" on="0"/>
        <pt x="147" y="60" on="0"/>
        <pt x="149" y="72" on="1"/>
        <pt x="238" y="607" on="1"/>
        <pt x="240" y="617" on="0"/>
        <pt x="241" y="624" on="0"/>
        <pt x="241" y="626" on="1"/>
        <pt x="241" y="641" on="0"/>
        <pt x="216" y="654" on="0"/>
        <pt x="171" y="654" on="1"/>
        <pt x="151" y="654" on="1"/>
        <pt x="156" y="683" on="1"/>
        <pt x="493" y="683" on="1"/>
        <pt x="539" y="683" on="0"/>
        <pt x="614" y="657" on="0"/>
        <pt x="667" y="614" on="0"/>
        <pt x="696" y="555" on="0"/>
        <pt x="696" y="522" on="1"/>
        <pt x="696" y="480" on="0"/>
        <pt x="651" y="406" on="0"/>
        <pt x="579" y="350" on="0"/>
        <pt x="487" y="318" on="0"/>
        <pt x="440" y="318" on="1"/>
        <pt x="271" y="318" on="1"/>
      </contour>
      <contour>
        <pt x="273" y="342" on="1"/>
        <pt x="413" y="342" on="1"/>
        <pt x="511" y="342" on="0"/>
        <pt x="605" y="451" on="0"/>
        <pt x="605" y="543" on="1"/>
        <pt x="605" y="561" on="0"/>
        <pt x="595" y="601" on="0"/>
        <pt x="565" y="633" on="0"/>
        <pt x="510" y="654" on="0"/>
        <pt x="465" y="654" on="1"/>
        <pt x="371" y="654" on="1"/>
        <pt x="342" y="654" on="0"/>
        <pt x="323" y="642" on="0"/>
        <pt x="319" y="619" on="1"/>
      </contour>
    </TTGlyph>
    <TTGlyph name="Phi" xMin="109" yMin="0" xMax="711" yMax="683">
      <contour>
        <pt x="617" y="654" on="1"/>
        <pt x="587" y="654" on="1"/>
        <pt x="554" y="654" on="0"/>
        <pt x="517" y="649" on="0"/>
        <pt x="498" y="637" on="0"/>
        <pt x="492" y="616" on="0"/>
        <pt x="489" y="599" on="1"/>
        <pt x="486" y="582" on="0"/>
        <pt x="484" y="568" on="0"/>
        <pt x="481" y="551" on="1"/>
        <pt x="534" y="546" on="0"/>
        <pt x="619" y="513" on="0"/>
        <pt x="679" y="464" on="0"/>
        <pt x="711" y="400" on="0"/>
        <pt x="711" y="365" on="1"/>
        <pt x="711" y="323" on="0"/>
        <pt x="664" y="243" on="0"/>
        <pt x="582" y="180" on="0"/>
        <pt x="474" y="138" on="0"/>
        <pt x="412" y="133" on="1"/>
        <pt x="410" y="124" on="0"/>
        <pt x="406" y="100" on="0"/>
        <pt x="402" y="78" on="0"/>
        <pt x="399" y="61" on="0"/>
        <pt x="399" y="59" on="1"/>
        <pt x="399" y="50" on="0"/>
        <pt x="406" y="39" on="0"/>
        <pt x="424" y="32" on="0"/>
        <pt x="457" y="29" on="0"/>
        <pt x="483" y="29" on="1"/>
        <pt x="512" y="29" on="1"/>
        <pt x="508" y="0" on="1"/>
        <pt x="498" y="1" on="0"/>
        <pt x="456" y="2" on="0"/>
        <pt x="408" y="2" on="0"/>
        <pt x="363" y="2" on="0"/>
        <pt x="351" y="2" on="1"/>
        <pt x="339" y="2" on="0"/>
        <pt x="294" y="2" on="0"/>
        <pt x="246" y="2" on="0"/>
        <pt x="204" y="1" on="0"/>
        <pt x="194" y="0" on="1"/>
        <pt x="199" y="29" on="1"/>
        <pt x="229" y="29" on="1"/>
        <pt x="262" y="29" on="0"/>
        <pt x="299" y="34" on="0"/>
        <pt x="317" y="46" on="0"/>
        <pt x="324" y="68" on="0"/>
        <pt x="327" y="85" on="1"/>
        <pt x="330" y="102" on="0"/>
        <pt x="332" y="116" on="0"/>
        <pt x="335" y="133" on="1"/>
        <pt x="282" y="138" on="0"/>
        <pt x="198" y="172" on="0"/>
        <pt x="140" y="221" on="0"/>
        <pt x="109" y="284" on="0"/>
        <pt x="109" y="318" on="1"/>
        <pt x="109" y="359" on="0"/>
        <pt x="155" y="438" on="0"/>
        <pt x="234" y="501" on="0"/>
        <pt x="342" y="544" on="0"/>
        <pt x="405" y="550" on="1"/>
        <pt x="405" y="552" on="0"/>
        <pt x="407" y="563" on="0"/>
        <pt x="409" y="576" on="0"/>
        <pt x="410" y="586" on="0"/>
        <pt x="410" y="586" on="1"/>
        <pt x="412" y="598" on="0"/>
        <pt x="416" y="621" on="0"/>
        <pt x="416" y="624" on="1"/>
        <pt x="416" y="633" on="0"/>
        <pt x="410" y="644" on="0"/>
        <pt x="392" y="651" on="0"/>
        <pt x="359" y="654" on="0"/>
        <pt x="333" y="654" on="1"/>
        <pt x="303" y="654" on="1"/>
        <pt x="305" y="661" on="0"/>
        <pt x="307" y="677" on="0"/>
        <pt x="308" y="683" on="1"/>
        <pt x="318" y="682" on="0"/>
        <pt x="360" y="681" on="0"/>
        <pt x="408" y="681" on="0"/>
        <pt x="453" y="681" on="0"/>
        <pt x="465" y="681" on="1"/>
        <pt x="477" y="681" on="0"/>
        <pt x="522" y="681" on="0"/>
        <pt x="569" y="681" on="0"/>
        <pt x="611" y="682" on="0"/>
        <pt x="621" y="683" on="1"/>
      </contour>
      <contour>
        <pt x="401" y="529" on="1"/>
        <pt x="340" y="522" on="0"/>
        <pt x="261" y="472" on="0"/>
        <pt x="216" y="404" on="0"/>
        <pt x="198" y="330" on="0"/>
        <pt x="198" y="298" on="1"/>
        <pt x="198" y="261" on="0"/>
        <pt x="221" y="210" on="0"/>
        <pt x="260" y="176" on="0"/>
        <pt x="311" y="157" on="0"/>
        <pt x="338" y="154" on="1"/>
      </contour>
      <contour>
        <pt x="415" y="153" on="1"/>
        <pt x="480" y="161" on="0"/>
        <pt x="561" y="214" on="0"/>
        <pt x="606" y="283" on="0"/>
        <pt x="622" y="357" on="0"/>
        <pt x="622" y="385" on="1"/>
        <pt x="622" y="453" on="0"/>
        <pt x="541" y="523" on="0"/>
        <pt x="477" y="530" on="1"/>
      </contour>
    </TTGlyph>
    <TTGlyph name="Pi" xMin="41" yMin="0" xMax="805" yMax="681">
      <contour>
        <pt x="609" y="71" on="1"/>
        <pt x="608" y="65" on="0"/>
        <pt x="607" y="59" on="0"/>
        <pt x="607" y="57" on="1"/>
        <pt x="607" y="50" on="0"/>
        <pt x="612" y="39" on="0"/>
        <pt x="627" y="32" on="0"/>
        <pt x="654" y="29" on="0"/>
        <pt x="677" y="29" on="1"/>
        <pt x="697" y="29" on="1"/>
        <pt x="695" y="22" on="0"/>
        <pt x="693" y="6" on="0"/>
        <pt x="692" y="0" on="1"/>
        <pt x="683" y="1" on="0"/>
        <pt x="647" y="2" on="0"/>
        <pt x="606" y="2" on="0"/>
        <pt x="567" y="2" on="0"/>
        <pt x="556" y="2" on="1"/>
        <pt x="545" y="2" on="0"/>
        <pt x="507" y="2" on="0"/>
        <pt x="466" y="2" on="0"/>
        <pt x="430" y="1" on="0"/>
        <pt x="421" y="0" on="1"/>
        <pt x="426" y="29" on="1"/>
        <pt x="446" y="29" on="1"/>
        <pt x="472" y="29" on="0"/>
        <pt x="503" y="33" on="0"/>
        <pt x="519" y="43" on="0"/>
        <pt x="526" y="60" on="0"/>
        <pt x="528" y="72" on="1"/>
        <pt x="624" y="652" on="1"/>
        <pt x="326" y="652" on="1"/>
        <pt x="229" y="71" on="1"/>
        <pt x="228" y="65" on="0"/>
        <pt x="227" y="59" on="0"/>
        <pt x="227" y="57" on="1"/>
        <pt x="227" y="50" on="0"/>
        <pt x="232" y="39" on="0"/>
        <pt x="247" y="32" on="0"/>
        <pt x="274" y="29" on="0"/>
        <pt x="297" y="29" on="1"/>
        <pt x="317" y="29" on="1"/>
        <pt x="315" y="22" on="0"/>
        <pt x="313" y="6" on="0"/>
        <pt x="312" y="0" on="1"/>
        <pt x="303" y="1" on="0"/>
        <pt x="267" y="2" on="0"/>
        <pt x="226" y="2" on="0"/>
        <pt x="187" y="2" on="0"/>
        <pt x="176" y="2" on="1"/>
        <pt x="165" y="2" on="0"/>
        <pt x="127" y="2" on="0"/>
        <pt x="86" y="2" on="0"/>
        <pt x="50" y="1" on="0"/>
        <pt x="41" y="0" on="1"/>
        <pt x="46" y="29" on="1"/>
        <pt x="66" y="29" on="1"/>
        <pt x="92" y="29" on="0"/>
        <pt x="123" y="33" on="0"/>
        <pt x="139" y="43" on="0"/>
        <pt x="146" y="60" on="0"/>
        <pt x="148" y="72" on="1"/>
        <pt x="236" y="601" on="1"/>
        <pt x="238" y="614" on="0"/>
        <pt x="239" y="621" on="0"/>
        <pt x="239" y="624" on="1"/>
        <pt x="239" y="631" on="0"/>
        <pt x="235" y="642" on="0"/>
        <pt x="222" y="649" on="0"/>
        <pt x="194" y="652" on="0"/>
        <pt x="170" y="652" on="1"/>
        <pt x="150" y="652" on="1"/>
        <pt x="151" y="658" on="0"/>
        <pt x="153" y="674" on="0"/>
        <pt x="155" y="681" on="1"/>
        <pt x="805" y="681" on="1"/>
        <pt x="801" y="652" on="1"/>
        <pt x="780" y="652" on="1"/>
        <pt x="755" y="652" on="0"/>
        <pt x="725" y="648" on="0"/>
        <pt x="708" y="639" on="0"/>
        <pt x="701" y="623" on="0"/>
        <pt x="699" y="611" on="1"/>
      </contour>
    </TTGlyph>
    <TTGlyph name="Psi" xMin="145" yMin="0" xMax="797" yMax="683">
      <contour>
        <pt x="442" y="156" on="1"/>
        <pt x="497" y="168" on="0"/>
        <pt x="566" y="235" on="0"/>
        <pt x="606" y="315" on="0"/>
        <pt x="625" y="393" on="0"/>
        <pt x="629" y="415" on="1"/>
        <pt x="637" y="461" on="0"/>
        <pt x="662" y="516" on="0"/>
        <pt x="691" y="546" on="0"/>
        <pt x="724" y="555" on="0"/>
        <pt x="740" y="555" on="1"/>
        <pt x="773" y="555" on="1"/>
        <pt x="785" y="555" on="0"/>
        <pt x="797" y="553" on="0"/>
        <pt x="797" y="545" on="1"/>
        <pt x="797" y="539" on="0"/>
        <pt x="790" y="536" on="0"/>
        <pt x="785" y="535" on="1"/>
        <pt x="767" y="532" on="0"/>
        <pt x="740" y="510" on="0"/>
        <pt x="722" y="478" on="0"/>
        <pt x="710" y="439" on="0"/>
        <pt x="706" y="419" on="1"/>
        <pt x="703" y="401" on="0"/>
        <pt x="690" y="347" on="0"/>
        <pt x="667" y="288" on="0"/>
        <pt x="630" y="227" on="0"/>
        <pt x="573" y="176" on="0"/>
        <pt x="493" y="139" on="0"/>
        <pt x="438" y="133" on="1"/>
        <pt x="432" y="98" on="1"/>
        <pt x="432" y="96" on="0"/>
        <pt x="430" y="84" on="0"/>
        <pt x="428" y="71" on="0"/>
        <pt x="426" y="60" on="0"/>
        <pt x="426" y="59" on="1"/>
        <pt x="426" y="50" on="0"/>
        <pt x="433" y="39" on="0"/>
        <pt x="451" y="32" on="0"/>
        <pt x="484" y="29" on="0"/>
        <pt x="510" y="29" on="1"/>
        <pt x="539" y="29" on="1"/>
        <pt x="535" y="0" on="1"/>
        <pt x="525" y="1" on="0"/>
        <pt x="483" y="2" on="0"/>
        <pt x="435" y="2" on="0"/>
        <pt x="390" y="2" on="0"/>
        <pt x="378" y="2" on="1"/>
        <pt x="366" y="2" on="0"/>
        <pt x="321" y="2" on="0"/>
        <pt x="273" y="2" on="0"/>
        <pt x="231" y="1" on="0"/>
        <pt x="221" y="0" on="1"/>
        <pt x="226" y="29" on="1"/>
        <pt x="256" y="29" on="1"/>
        <pt x="289" y="29" on="0"/>
        <pt x="326" y="34" on="0"/>
        <pt x="344" y="46" on="0"/>
        <pt x="351" y="68" on="0"/>
        <pt x="354" y="85" on="1"/>
        <pt x="357" y="102" on="0"/>
        <pt x="359" y="116" on="0"/>
        <pt x="362" y="133" on="1"/>
        <pt x="270" y="146" on="0"/>
        <pt x="187" y="258" on="0"/>
        <pt x="187" y="341" on="1"/>
        <pt x="187" y="364" on="0"/>
        <pt x="192" y="406" on="0"/>
        <pt x="194" y="416" on="1"/>
        <pt x="195" y="422" on="0"/>
        <pt x="198" y="447" on="0"/>
        <pt x="198" y="462" on="1"/>
        <pt x="198" y="487" on="0"/>
        <pt x="189" y="516" on="0"/>
        <pt x="177" y="530" on="0"/>
        <pt x="162" y="534" on="0"/>
        <pt x="156" y="535" on="1"/>
        <pt x="153" y="536" on="0"/>
        <pt x="145" y="539" on="0"/>
        <pt x="145" y="545" on="1"/>
        <pt x="145" y="553" on="0"/>
        <pt x="157" y="555" on="0"/>
        <pt x="169" y="555" on="1"/>
        <pt x="202" y="555" on="1"/>
        <pt x="211" y="555" on="0"/>
        <pt x="236" y="552" on="0"/>
        <pt x="259" y="535" on="0"/>
        <pt x="274" y="498" on="0"/>
        <pt x="274" y="463" on="1"/>
        <pt x="274" y="453" on="0"/>
        <pt x="273" y="429" on="0"/>
        <pt x="269" y="406" on="1"/>
        <pt x="263" y="370" on="0"/>
        <pt x="261" y="325" on="0"/>
        <pt x="261" y="324" on="1"/>
        <pt x="261" y="263" on="0"/>
        <pt x="307" y="170" on="0"/>
        <pt x="366" y="155" on="1"/>
        <pt x="441" y="609" on="1"/>
        <pt x="441" y="611" on="0"/>
        <pt x="443" y="623" on="0"/>
        <pt x="443" y="624" on="1"/>
        <pt x="443" y="633" on="0"/>
        <pt x="437" y="644" on="0"/>
        <pt x="419" y="651" on="0"/>
        <pt x="386" y="654" on="0"/>
        <pt x="360" y="654" on="1"/>
        <pt x="330" y="654" on="1"/>
        <pt x="332" y="661" on="0"/>
        <pt x="334" y="677" on="0"/>
        <pt x="335" y="683" on="1"/>
        <pt x="345" y="682" on="0"/>
        <pt x="387" y="681" on="0"/>
        <pt x="435" y="681" on="0"/>
        <pt x="480" y="681" on="0"/>
        <pt x="492" y="681" on="1"/>
        <pt x="504" y="681" on="0"/>
        <pt x="549" y="681" on="0"/>
        <pt x="596" y="681" on="0"/>
        <pt x="638" y="682" on="0"/>
        <pt x="648" y="683" on="1"/>
        <pt x="644" y="654" on="1"/>
        <pt x="614" y="654" on="1"/>
        <pt x="584" y="654" on="0"/>
        <pt x="548" y="650" on="0"/>
        <pt x="528" y="640" on="0"/>
        <pt x="520" y="624" on="0"/>
        <pt x="518" y="612" on="1"/>
      </contour>
    </TTGlyph>
    <TTGlyph name="Q" xMin="105" yMin="-194" xMax="769" yMax="704">
      <contour>
        <pt x="504" y="6" on="1"/>
        <pt x="515" y="-49" on="0"/>
        <pt x="547" y="-101" on="0"/>
        <pt x="583" y="-101" on="1"/>
        <pt x="603" y="-101" on="0"/>
        <pt x="638" y="-85" on="0"/>
        <pt x="666" y="-59" on="0"/>
        <pt x="687" y="-25" on="0"/>
        <pt x="692" y="-7" on="1"/>
        <pt x="694" y="1" on="0"/>
        <pt x="697" y="9" on="0"/>
        <pt x="702" y="9" on="1"/>
        <pt x="712" y="9" on="0"/>
        <pt x="712" y="-1" on="1"/>
        <pt x="712" y="-3" on="0"/>
        <pt x="706" y="-33" on="0"/>
        <pt x="693" y="-76" on="0"/>
        <pt x="671" y="-125" on="0"/>
        <pt x="638" y="-167" on="0"/>
        <pt x="593" y="-194" on="0"/>
        <pt x="564" y="-194" on="1"/>
        <pt x="530" y="-194" on="0"/>
        <pt x="494" y="-164" on="0"/>
        <pt x="477" y="-119" on="0"/>
        <pt x="474" y="-67" on="0"/>
        <pt x="474" y="-44" on="1"/>
        <pt x="474" y="-35" on="0"/>
        <pt x="474" y="-25" on="0"/>
        <pt x="474" y="-17" on="0"/>
        <pt x="475" y="-10" on="0"/>
        <pt x="475" y="-5" on="1"/>
        <pt x="439" y="-17" on="0"/>
        <pt x="385" y="-21" on="0"/>
        <pt x="377" y="-21" on="1"/>
        <pt x="319" y="-21" on="0"/>
        <pt x="220" y="22" on="0"/>
        <pt x="147" y="100" on="0"/>
        <pt x="105" y="209" on="0"/>
        <pt x="105" y="274" on="1"/>
        <pt x="105" y="358" on="0"/>
        <pt x="170" y="513" on="0"/>
        <pt x="280" y="632" on="0"/>
        <pt x="422" y="704" on="0"/>
        <pt x="498" y="704" on="1"/>
        <pt x="554" y="704" on="0"/>
        <pt x="652" y="662" on="0"/>
        <pt x="726" y="584" on="0"/>
        <pt x="769" y="474" on="0"/>
        <pt x="769" y="406" on="1"/>
        <pt x="769" y="336" on="0"/>
        <pt x="725" y="209" on="0"/>
        <pt x="651" y="104" on="0"/>
        <pt x="555" y="26" on="0"/>
      </contour>
      <contour>
        <pt x="323" y="11" on="1"/>
        <pt x="317" y="19" on="0"/>
        <pt x="312" y="39" on="0"/>
        <pt x="312" y="50" on="1"/>
        <pt x="312" y="68" on="0"/>
        <pt x="326" y="102" on="0"/>
        <pt x="351" y="130" on="0"/>
        <pt x="385" y="147" on="0"/>
        <pt x="404" y="147" on="1"/>
        <pt x="427" y="147" on="0"/>
        <pt x="459" y="130" on="0"/>
        <pt x="481" y="101" on="0"/>
        <pt x="494" y="61" on="0"/>
        <pt x="498" y="38" on="1"/>
        <pt x="553" y="72" on="0"/>
        <pt x="624" y="174" on="0"/>
        <pt x="665" y="286" on="0"/>
        <pt x="681" y="396" on="0"/>
        <pt x="681" y="436" on="1"/>
        <pt x="681" y="502" on="0"/>
        <pt x="648" y="595" on="0"/>
        <pt x="595" y="654" on="0"/>
        <pt x="528" y="682" on="0"/>
        <pt x="494" y="682" on="1"/>
        <pt x="433" y="682" on="0"/>
        <pt x="324" y="612" on="0"/>
        <pt x="241" y="492" on="0"/>
        <pt x="193" y="333" on="0"/>
        <pt x="193" y="245" on="1"/>
        <pt x="193" y="194" on="0"/>
        <pt x="214" y="115" on="0"/>
        <pt x="250" y="58" on="0"/>
        <pt x="297" y="20" on="0"/>
      </contour>
      <contour>
        <pt x="474" y="24" on="1"/>
        <pt x="474" y="44" on="0"/>
        <pt x="468" y="82" on="0"/>
        <pt x="453" y="110" on="0"/>
        <pt x="426" y="127" on="0"/>
        <pt x="405" y="127" on="1"/>
        <pt x="390" y="127" on="0"/>
        <pt x="363" y="114" on="0"/>
        <pt x="344" y="92" on="0"/>
        <pt x="333" y="65" on="0"/>
        <pt x="333" y="51" on="1"/>
        <pt x="333" y="44" on="0"/>
        <pt x="337" y="26" on="0"/>
        <pt x="347" y="11" on="0"/>
        <pt x="366" y="1" on="0"/>
        <pt x="381" y="1" on="1"/>
        <pt x="412" y="1" on="0"/>
        <pt x="462" y="18" on="0"/>
      </contour>
    </TTGlyph>
    <TTGlyph name="R" xMin="42" yMin="-21" xMax="732" yMax="683">
      <contour>
        <pt x="478" y="340" on="1"/>
        <pt x="490" y="336" on="0"/>
        <pt x="526" y="320" on="0"/>
        <pt x="561" y="290" on="0"/>
        <pt x="585" y="243" on="0"/>
        <pt x="585" y="210" on="1"/>
        <pt x="585" y="200" on="0"/>
        <pt x="584" y="166" on="0"/>
        <pt x="582" y="129" on="0"/>
        <pt x="581" y="96" on="0"/>
        <pt x="581" y="85" on="1"/>
        <pt x="581" y="36" on="0"/>
        <pt x="603" y="-1" on="0"/>
        <pt x="628" y="-1" on="1"/>
        <pt x="643" y="-1" on="0"/>
        <pt x="670" y="14" on="0"/>
        <pt x="691" y="38" on="0"/>
        <pt x="705" y="68" on="0"/>
        <pt x="709" y="84" on="1"/>
        <pt x="711" y="94" on="0"/>
        <pt x="715" y="102" on="0"/>
        <pt x="721" y="102" on="1"/>
        <pt x="729" y="102" on="0"/>
        <pt x="732" y="94" on="0"/>
        <pt x="732" y="91" on="1"/>
        <pt x="732" y="86" on="0"/>
        <pt x="722" y="49" on="0"/>
        <pt x="697" y="10" on="0"/>
        <pt x="655" y="-21" on="0"/>
        <pt x="624" y="-21" on="1"/>
        <pt x="603" y="-21" on="0"/>
        <pt x="555" y="-11" on="0"/>
        <pt x="514" y="16" on="0"/>
        <pt x="487" y="61" on="0"/>
        <pt x="487" y="95" on="1"/>
        <pt x="487" y="107" on="0"/>
        <pt x="493" y="146" on="0"/>
        <pt x="496" y="163" on="1"/>
        <pt x="501" y="187" on="0"/>
        <pt x="506" y="222" on="0"/>
        <pt x="506" y="230" on="1"/>
        <pt x="506" y="242" on="0"/>
        <pt x="497" y="277" on="0"/>
        <pt x="471" y="309" on="0"/>
        <pt x="425" y="332" on="0"/>
        <pt x="389" y="332" on="1"/>
        <pt x="271" y="332" on="1"/>
        <pt x="228" y="71" on="1"/>
        <pt x="227" y="65" on="0"/>
        <pt x="226" y="59" on="0"/>
        <pt x="226" y="57" on="1"/>
        <pt x="226" y="50" on="0"/>
        <pt x="231" y="39" on="0"/>
        <pt x="246" y="32" on="0"/>
        <pt x="273" y="29" on="0"/>
        <pt x="296" y="29" on="1"/>
        <pt x="316" y="29" on="1"/>
        <pt x="314" y="22" on="0"/>
        <pt x="312" y="6" on="0"/>
        <pt x="311" y="0" on="1"/>
        <pt x="302" y="1" on="0"/>
        <pt x="267" y="2" on="0"/>
        <pt x="226" y="2" on="0"/>
        <pt x="188" y="2" on="0"/>
        <pt x="177" y="2" on="1"/>
        <pt x="166" y="2" on="0"/>
        <pt x="128" y="2" on="0"/>
        <pt x="87" y="2" on="0"/>
        <pt x="51" y="1" on="0"/>
        <pt x="42" y="0" on="1"/>
        <pt x="47" y="29" on="1"/>
        <pt x="67" y="29" on="1"/>
        <pt x="93" y="29" on="0"/>
        <pt x="124" y="33" on="0"/>
        <pt x="140" y="43" on="0"/>
        <pt x="147" y="60" on="0"/>
        <pt x="149" y="72" on="1"/>
        <pt x="238" y="607" on="1"/>
        <pt x="240" y="617" on="0"/>
        <pt x="241" y="624" on="0"/>
        <pt x="241" y="626" on="1"/>
        <pt x="241" y="641" on="0"/>
        <pt x="216" y="654" on="0"/>
        <pt x="171" y="654" on="1"/>
        <pt x="151" y="654" on="1"/>
        <pt x="156" y="683" on="1"/>
        <pt x="455" y="683" on="1"/>
        <pt x="507" y="683" on="0"/>
        <pt x="592" y="657" on="0"/>
        <pt x="652" y="613" on="0"/>
        <pt x="684" y="555" on="0"/>
        <pt x="684" y="524" on="1"/>
        <pt x="684" y="493" on="0"/>
        <pt x="653" y="435" on="0"/>
        <pt x="598" y="387" on="0"/>
        <pt x="523" y="350" on="0"/>
      </contour>
      <contour>
        <pt x="387" y="352" on="1"/>
        <pt x="487" y="352" on="0"/>
        <pt x="592" y="451" on="0"/>
        <pt x="592" y="539" on="1"/>
        <pt x="592" y="582" on="0"/>
        <pt x="554" y="629" on="0"/>
        <pt x="498" y="650" on="0"/>
        <pt x="433" y="654" on="0"/>
        <pt x="405" y="654" on="1"/>
        <pt x="390" y="654" on="0"/>
        <pt x="353" y="654" on="0"/>
        <pt x="345" y="653" on="1"/>
        <pt x="334" y="651" on="0"/>
        <pt x="322" y="637" on="0"/>
        <pt x="319" y="619" on="1"/>
        <pt x="275" y="352" on="1"/>
      </contour>
    </TTGlyph>
    <TTGlyph name="S" xMin="52" yMin="-21" xMax="577" yMax="704">
      <contour>
        <pt x="541" y="476" on="1"/>
        <pt x="539" y="463" on="0"/>
        <pt x="534" y="456" on="0"/>
        <pt x="527" y="456" on="1"/>
        <pt x="525" y="456" on="0"/>
        <pt x="516" y="459" on="0"/>
        <pt x="516" y="466" on="1"/>
        <pt x="516" y="473" on="0"/>
        <pt x="518" y="488" on="0"/>
        <pt x="518" y="495" on="1"/>
        <pt x="518" y="578" on="0"/>
        <pt x="440" y="677" on="0"/>
        <pt x="361" y="677" on="1"/>
        <pt x="328" y="677" on="0"/>
        <pt x="270" y="651" on="0"/>
        <pt x="226" y="607" on="0"/>
        <pt x="201" y="551" on="0"/>
        <pt x="201" y="521" on="1"/>
        <pt x="201" y="489" on="0"/>
        <pt x="223" y="449" on="0"/>
        <pt x="254" y="425" on="0"/>
        <pt x="290" y="413" on="0"/>
        <pt x="303" y="409" on="1"/>
        <pt x="327" y="403" on="0"/>
        <pt x="357" y="395" on="0"/>
        <pt x="368" y="392" on="1"/>
        <pt x="388" y="387" on="0"/>
        <pt x="422" y="377" on="0"/>
        <pt x="452" y="363" on="0"/>
        <pt x="478" y="343" on="0"/>
        <pt x="489" y="327" on="1"/>
        <pt x="514" y="291" on="0"/>
        <pt x="523" y="231" on="0"/>
        <pt x="523" y="219" on="1"/>
        <pt x="523" y="174" on="0"/>
        <pt x="487" y="88" on="0"/>
        <pt x="425" y="20" on="0"/>
        <pt x="342" y="-21" on="0"/>
        <pt x="294" y="-21" on="1"/>
        <pt x="275" y="-21" on="0"/>
        <pt x="228" y="-15" on="0"/>
        <pt x="181" y="2" on="0"/>
        <pt x="138" y="31" on="0"/>
        <pt x="122" y="53" on="1"/>
        <pt x="112" y="41" on="0"/>
        <pt x="92" y="12" on="0"/>
        <pt x="79" y="-5" on="1"/>
        <pt x="70" y="-16" on="0"/>
        <pt x="65" y="-21" on="0"/>
        <pt x="62" y="-21" on="1"/>
        <pt x="59" y="-21" on="0"/>
        <pt x="52" y="-18" on="0"/>
        <pt x="52" y="-11" on="1"/>
        <pt x="88" y="207" on="1"/>
        <pt x="90" y="220" on="0"/>
        <pt x="95" y="227" on="0"/>
        <pt x="102" y="227" on="1"/>
        <pt x="112" y="227" on="0"/>
        <pt x="112" y="218" on="1"/>
        <pt x="112" y="213" on="0"/>
        <pt x="109" y="198" on="0"/>
        <pt x="109" y="174" on="1"/>
        <pt x="109" y="123" on="0"/>
        <pt x="147" y="58" on="0"/>
        <pt x="203" y="21" on="0"/>
        <pt x="268" y="8" on="0"/>
        <pt x="295" y="8" on="1"/>
        <pt x="330" y="8" on="0"/>
        <pt x="390" y="39" on="0"/>
        <pt x="434" y="89" on="0"/>
        <pt x="459" y="150" on="0"/>
        <pt x="459" y="181" on="1"/>
        <pt x="459" y="216" on="0"/>
        <pt x="437" y="260" on="0"/>
        <pt x="407" y="285" on="0"/>
        <pt x="378" y="296" on="0"/>
        <pt x="371" y="298" on="1"/>
        <pt x="356" y="302" on="0"/>
        <pt x="306" y="315" on="0"/>
        <pt x="287" y="320" on="1"/>
        <pt x="267" y="325" on="0"/>
        <pt x="237" y="333" on="0"/>
        <pt x="211" y="345" on="0"/>
        <pt x="188" y="362" on="0"/>
        <pt x="176" y="375" on="1"/>
        <pt x="166" y="386" on="0"/>
        <pt x="137" y="440" on="0"/>
        <pt x="137" y="484" on="1"/>
        <pt x="137" y="525" on="0"/>
        <pt x="172" y="604" on="0"/>
        <pt x="234" y="666" on="0"/>
        <pt x="316" y="704" on="0"/>
        <pt x="362" y="704" on="1"/>
        <pt x="419" y="704" on="0"/>
        <pt x="486" y="663" on="0"/>
        <pt x="509" y="631" on="1"/>
        <pt x="553" y="693" on="1"/>
        <pt x="559" y="701" on="0"/>
        <pt x="565" y="704" on="0"/>
        <pt x="567" y="704" on="1"/>
        <pt x="577" y="704" on="0"/>
        <pt x="577" y="694" on="1"/>
        <pt x="577" y="693" on="0"/>
        <pt x="575" y="685" on="0"/>
        <pt x="575" y="683" on="1"/>
      </contour>
    </TTGlyph>
    <TTGlyph name="Sigma" xMin="57" yMin="0" xMax="740" yMax="683">
      <contour>
        <pt x="119" y="39" on="1"/>
        <pt x="395" y="39" on="1"/>
        <pt x="455" y="39" on="0"/>
        <pt x="543" y="53" on="0"/>
        <pt x="607" y="95" on="0"/>
        <pt x="652" y="171" on="0"/>
        <pt x="669" y="233" on="1"/>
        <pt x="691" y="233" on="1"/>
        <pt x="626" y="0" on="1"/>
        <pt x="80" y="0" on="1"/>
        <pt x="68" y="0" on="0"/>
        <pt x="57" y="2" on="0"/>
        <pt x="57" y="10" on="1"/>
        <pt x="57" y="12" on="0"/>
        <pt x="59" y="17" on="0"/>
        <pt x="66" y="24" on="1"/>
        <pt x="347" y="301" on="1"/>
        <pt x="165" y="661" on="1"/>
        <pt x="165" y="678" on="0"/>
        <pt x="175" y="683" on="0"/>
        <pt x="191" y="683" on="1"/>
        <pt x="740" y="683" on="1"/>
        <pt x="729" y="460" on="1"/>
        <pt x="707" y="460" on="1"/>
        <pt x="707" y="468" on="0"/>
        <pt x="708" y="484" on="0"/>
        <pt x="708" y="492" on="1"/>
        <pt x="708" y="543" on="0"/>
        <pt x="684" y="607" on="0"/>
        <pt x="634" y="642" on="0"/>
        <pt x="556" y="654" on="0"/>
        <pt x="501" y="654" on="1"/>
        <pt x="264" y="654" on="1"/>
        <pt x="416" y="355" on="1"/>
        <pt x="420" y="347" on="0"/>
        <pt x="421" y="343" on="0"/>
        <pt x="421" y="342" on="1"/>
        <pt x="421" y="339" on="0"/>
        <pt x="418" y="334" on="0"/>
        <pt x="410" y="326" on="1"/>
      </contour>
    </TTGlyph>
    <TTGlyph name="T" xMin="111" yMin="0" xMax="766" yMax="678">
      <contour>
        <pt x="407" y="77" on="1"/>
        <pt x="406" y="72" on="0"/>
        <pt x="404" y="62" on="0"/>
        <pt x="404" y="60" on="1"/>
        <pt x="404" y="37" on="0"/>
        <pt x="458" y="29" on="0"/>
        <pt x="497" y="29" on="1"/>
        <pt x="533" y="29" on="1"/>
        <pt x="528" y="0" on="1"/>
        <pt x="516" y="1" on="0"/>
        <pt x="469" y="2" on="0"/>
        <pt x="417" y="2" on="0"/>
        <pt x="368" y="2" on="0"/>
        <pt x="353" y="2" on="1"/>
        <pt x="338" y="2" on="0"/>
        <pt x="289" y="2" on="0"/>
        <pt x="237" y="2" on="0"/>
        <pt x="191" y="1" on="0"/>
        <pt x="179" y="0" on="1"/>
        <pt x="184" y="29" on="1"/>
        <pt x="219" y="29" on="1"/>
        <pt x="253" y="29" on="0"/>
        <pt x="293" y="33" on="0"/>
        <pt x="315" y="43" on="0"/>
        <pt x="323" y="60" on="0"/>
        <pt x="325" y="72" on="1"/>
        <pt x="414" y="607" on="1"/>
        <pt x="416" y="619" on="0"/>
        <pt x="417" y="626" on="0"/>
        <pt x="417" y="628" on="1"/>
        <pt x="417" y="640" on="0"/>
        <pt x="405" y="647" on="0"/>
        <pt x="391" y="649" on="1"/>
        <pt x="346" y="649" on="1"/>
        <pt x="292" y="649" on="0"/>
        <pt x="224" y="636" on="0"/>
        <pt x="178" y="595" on="0"/>
        <pt x="148" y="519" on="0"/>
        <pt x="133" y="455" on="1"/>
        <pt x="111" y="455" on="1"/>
        <pt x="166" y="678" on="1"/>
        <pt x="766" y="678" on="1"/>
        <pt x="747" y="455" on="1"/>
        <pt x="725" y="455" on="1"/>
        <pt x="728" y="490" on="0"/>
        <pt x="729" y="522" on="0"/>
        <pt x="729" y="532" on="1"/>
        <pt x="729" y="568" on="0"/>
        <pt x="717" y="613" on="0"/>
        <pt x="684" y="639" on="0"/>
        <pt x="624" y="649" on="0"/>
        <pt x="576" y="649" on="1"/>
        <pt x="562" y="649" on="0"/>
        <pt x="528" y="649" on="0"/>
        <pt x="521" y="647" on="1"/>
        <pt x="509" y="645" on="0"/>
        <pt x="499" y="631" on="0"/>
        <pt x="496" y="612" on="1"/>
      </contour>
    </TTGlyph>
    <TTGlyph name="Theta" xMin="105" yMin="-21" xMax="769" yMax="704">
      <contour>
        <pt x="769" y="406" on="1"/>
        <pt x="769" y="320" on="0"/>
        <pt x="702" y="165" on="0"/>
        <pt x="593" y="48" on="0"/>
        <pt x="452" y="-21" on="0"/>
        <pt x="377" y="-21" on="1"/>
        <pt x="319" y="-21" on="0"/>
        <pt x="220" y="22" on="0"/>
        <pt x="147" y="100" on="0"/>
        <pt x="105" y="209" on="0"/>
        <pt x="105" y="274" on="1"/>
        <pt x="105" y="358" on="0"/>
        <pt x="170" y="513" on="0"/>
        <pt x="280" y="632" on="0"/>
        <pt x="422" y="704" on="0"/>
        <pt x="498" y="704" on="1"/>
        <pt x="554" y="704" on="0"/>
        <pt x="652" y="662" on="0"/>
        <pt x="726" y="584" on="0"/>
        <pt x="769" y="474" on="0"/>
      </contour>
      <contour>
        <pt x="381" y="0" on="1"/>
        <pt x="440" y="0" on="0"/>
        <pt x="549" y="66" on="0"/>
        <pt x="633" y="183" on="0"/>
        <pt x="684" y="342" on="0"/>
        <pt x="684" y="435" on="1"/>
        <pt x="684" y="500" on="0"/>
        <pt x="652" y="593" on="0"/>
        <pt x="598" y="655" on="0"/>
        <pt x="530" y="684" on="0"/>
        <pt x="494" y="684" on="1"/>
        <pt x="433" y="684" on="0"/>
        <pt x="323" y="614" on="0"/>
        <pt x="239" y="494" on="0"/>
        <pt x="190" y="335" on="0"/>
        <pt x="190" y="246" on="1"/>
        <pt x="190" y="186" on="0"/>
        <pt x="221" y="94" on="0"/>
        <pt x="274" y="32" on="0"/>
        <pt x="343" y="0" on="0"/>
      </contour>
      <contour>
        <pt x="610" y="274" on="1"/>
        <pt x="588" y="274" on="1"/>
        <pt x="593" y="308" on="1"/>
        <pt x="270" y="308" on="1"/>
        <pt x="265" y="274" on="1"/>
        <pt x="243" y="274" on="1"/>
        <pt x="265" y="411" on="1"/>
        <pt x="287" y="411" on="1"/>
        <pt x="282" y="377" on="1"/>
        <pt x="605" y="377" on="1"/>
        <pt x="610" y="411" on="1"/>
        <pt x="632" y="411" on="1"/>
      </contour>
    </TTGlyph>
    <TTGlyph name="U" xMin="150" yMin="-21" xMax="806" yMax="683">
      <contour>
        <pt x="635" y="224" on="1"/>
        <pt x="628" y="179" on="0"/>
        <pt x="582" y="91" on="0"/>
        <pt x="513" y="22" on="0"/>
        <pt x="426" y="-21" on="0"/>
        <pt x="377" y="-21" on="1"/>
        <pt x="337" y="-21" on="0"/>
        <pt x="263" y="7" on="0"/>
        <pt x="206" y="60" on="0"/>
        <pt x="171" y="138" on="0"/>
        <pt x="171" y="188" on="1"/>
        <pt x="171" y="201" on="0"/>
        <pt x="172" y="214" on="0"/>
        <pt x="174" y="228" on="1"/>
        <pt x="237" y="607" on="1"/>
        <pt x="239" y="617" on="0"/>
        <pt x="240" y="624" on="0"/>
        <pt x="240" y="626" on="1"/>
        <pt x="240" y="641" on="0"/>
        <pt x="215" y="654" on="0"/>
        <pt x="170" y="654" on="1"/>
        <pt x="150" y="654" on="1"/>
        <pt x="155" y="683" on="1"/>
        <pt x="164" y="682" on="0"/>
        <pt x="200" y="681" on="0"/>
        <pt x="241" y="681" on="0"/>
        <pt x="279" y="681" on="0"/>
        <pt x="290" y="681" on="1"/>
        <pt x="301" y="681" on="0"/>
        <pt x="339" y="681" on="0"/>
        <pt x="380" y="681" on="0"/>
        <pt x="417" y="682" on="0"/>
        <pt x="426" y="683" on="1"/>
        <pt x="421" y="654" on="1"/>
        <pt x="401" y="654" on="1"/>
        <pt x="376" y="654" on="0"/>
        <pt x="345" y="650" on="0"/>
        <pt x="328" y="641" on="0"/>
        <pt x="321" y="624" on="0"/>
        <pt x="319" y="612" on="1"/>
        <pt x="251" y="203" on="1"/>
        <pt x="249" y="194" on="0"/>
        <pt x="249" y="169" on="0"/>
        <pt x="249" y="160" on="1"/>
        <pt x="249" y="112" on="0"/>
        <pt x="278" y="52" on="0"/>
        <pt x="319" y="19" on="0"/>
        <pt x="364" y="8" on="0"/>
        <pt x="380" y="8" on="1"/>
        <pt x="420" y="8" on="0"/>
        <pt x="496" y="42" on="0"/>
        <pt x="557" y="102" on="0"/>
        <pt x="601" y="182" on="0"/>
        <pt x="608" y="228" on="1"/>
        <pt x="666" y="577" on="1"/>
        <pt x="668" y="590" on="0"/>
        <pt x="669" y="597" on="0"/>
        <pt x="669" y="601" on="1"/>
        <pt x="669" y="618" on="0"/>
        <pt x="653" y="639" on="0"/>
        <pt x="629" y="650" on="0"/>
        <pt x="599" y="654" on="0"/>
        <pt x="584" y="654" on="1"/>
        <pt x="590" y="683" on="1"/>
        <pt x="601" y="682" on="0"/>
        <pt x="628" y="681" on="0"/>
        <pt x="657" y="681" on="0"/>
        <pt x="686" y="681" on="0"/>
        <pt x="697" y="681" on="1"/>
        <pt x="708" y="681" on="0"/>
        <pt x="737" y="681" on="0"/>
        <pt x="768" y="681" on="0"/>
        <pt x="797" y="682" on="0"/>
        <pt x="806" y="683" on="1"/>
        <pt x="804" y="676" on="0"/>
        <pt x="802" y="660" on="0"/>
        <pt x="801" y="654" on="1"/>
        <pt x="772" y="654" on="0"/>
        <pt x="733" y="643" on="0"/>
        <pt x="709" y="624" on="0"/>
        <pt x="697" y="598" on="0"/>
        <pt x="694" y="583" on="1"/>
      </contour>
    </TTGlyph>
    <TTGlyph name="Upsilon" xMin="145" yMin="0" xMax="801" yMax="704">
      <contour>
        <pt x="540" y="0" on="1"/>
        <pt x="529" y="1" on="0"/>
        <pt x="486" y="2" on="0"/>
        <pt x="438" y="2" on="0"/>
        <pt x="393" y="2" on="0"/>
        <pt x="380" y="2" on="1"/>
        <pt x="367" y="2" on="0"/>
        <pt x="322" y="2" on="0"/>
        <pt x="274" y="2" on="0"/>
        <pt x="232" y="1" on="0"/>
        <pt x="221" y="0" on="1"/>
        <pt x="226" y="29" on="1"/>
        <pt x="234" y="29" on="0"/>
        <pt x="259" y="29" on="0"/>
        <pt x="285" y="30" on="0"/>
        <pt x="310" y="32" on="0"/>
        <pt x="318" y="33" on="1"/>
        <pt x="321" y="34" on="0"/>
        <pt x="330" y="37" on="0"/>
        <pt x="340" y="43" on="0"/>
        <pt x="349" y="55" on="0"/>
        <pt x="350" y="64" on="1"/>
        <pt x="358" y="110" on="0"/>
        <pt x="373" y="201" on="0"/>
        <pt x="381" y="247" on="1"/>
        <pt x="389" y="297" on="0"/>
        <pt x="399" y="360" on="0"/>
        <pt x="405" y="402" on="0"/>
        <pt x="407" y="433" on="0"/>
        <pt x="407" y="451" on="1"/>
        <pt x="407" y="477" on="0"/>
        <pt x="399" y="540" on="0"/>
        <pt x="374" y="596" on="0"/>
        <pt x="326" y="634" on="0"/>
        <pt x="287" y="634" on="1"/>
        <pt x="248" y="634" on="0"/>
        <pt x="184" y="590" on="0"/>
        <pt x="174" y="553" on="1"/>
        <pt x="171" y="544" on="0"/>
        <pt x="166" y="537" on="0"/>
        <pt x="157" y="537" on="1"/>
        <pt x="154" y="537" on="0"/>
        <pt x="145" y="539" on="0"/>
        <pt x="145" y="546" on="1"/>
        <pt x="145" y="557" on="0"/>
        <pt x="163" y="609" on="0"/>
        <pt x="201" y="663" on="0"/>
        <pt x="259" y="704" on="0"/>
        <pt x="299" y="704" on="1"/>
        <pt x="338" y="704" on="0"/>
        <pt x="392" y="675" on="0"/>
        <pt x="427" y="628" on="0"/>
        <pt x="446" y="572" on="0"/>
        <pt x="455" y="517" on="0"/>
        <pt x="456" y="471" on="0"/>
        <pt x="456" y="459" on="1"/>
        <pt x="457" y="459" on="1"/>
        <pt x="461" y="471" on="0"/>
        <pt x="478" y="517" on="0"/>
        <pt x="505" y="572" on="0"/>
        <pt x="544" y="628" on="0"/>
        <pt x="594" y="675" on="0"/>
        <pt x="658" y="704" on="0"/>
        <pt x="697" y="704" on="1"/>
        <pt x="725" y="704" on="0"/>
        <pt x="765" y="681" on="0"/>
        <pt x="790" y="645" on="0"/>
        <pt x="801" y="601" on="0"/>
        <pt x="801" y="579" on="1"/>
        <pt x="801" y="563" on="0"/>
        <pt x="798" y="546" on="0"/>
        <pt x="793" y="538" on="0"/>
        <pt x="787" y="537" on="0"/>
        <pt x="783" y="537" on="1"/>
        <pt x="775" y="537" on="0"/>
        <pt x="772" y="543" on="0"/>
        <pt x="772" y="559" on="1"/>
        <pt x="771" y="580" on="0"/>
        <pt x="755" y="609" on="0"/>
        <pt x="730" y="627" on="0"/>
        <pt x="700" y="634" on="0"/>
        <pt x="686" y="634" on="1"/>
        <pt x="637" y="634" on="0"/>
        <pt x="568" y="579" on="0"/>
        <pt x="520" y="498" on="0"/>
        <pt x="491" y="407" on="0"/>
        <pt x="483" y="372" on="1"/>
        <pt x="483" y="369" on="0"/>
        <pt x="474" y="321" on="0"/>
        <pt x="463" y="252" on="0"/>
        <pt x="450" y="173" on="0"/>
        <pt x="438" y="105" on="0"/>
        <pt x="431" y="60" on="0"/>
        <pt x="431" y="59" on="1"/>
        <pt x="431" y="40" on="0"/>
        <pt x="458" y="33" on="0"/>
        <pt x="476" y="31" on="1"/>
        <pt x="484" y="30" on="0"/>
        <pt x="498" y="29" on="0"/>
        <pt x="513" y="29" on="0"/>
        <pt x="531" y="29" on="0"/>
        <pt x="544" y="29" on="1"/>
      </contour>
    </TTGlyph>
    <TTGlyph name="V" xMin="127" yMin="-21" xMax="829" yMax="683">
      <contour>
        <pt x="388" y="-3" on="1"/>
        <pt x="380" y="-17" on="0"/>
        <pt x="370" y="-21" on="0"/>
        <pt x="363" y="-21" on="1"/>
        <pt x="354" y="-21" on="0"/>
        <pt x="347" y="-14" on="0"/>
        <pt x="343" y="3" on="1"/>
        <pt x="214" y="613" on="1"/>
        <pt x="211" y="628" on="0"/>
        <pt x="200" y="645" on="0"/>
        <pt x="181" y="653" on="0"/>
        <pt x="150" y="654" on="0"/>
        <pt x="127" y="654" on="1"/>
        <pt x="132" y="683" on="1"/>
        <pt x="141" y="682" on="0"/>
        <pt x="173" y="681" on="0"/>
        <pt x="207" y="681" on="0"/>
        <pt x="240" y="681" on="0"/>
        <pt x="251" y="681" on="1"/>
        <pt x="262" y="681" on="0"/>
        <pt x="298" y="681" on="0"/>
        <pt x="337" y="681" on="0"/>
        <pt x="372" y="682" on="0"/>
        <pt x="381" y="683" on="1"/>
        <pt x="376" y="654" on="1"/>
        <pt x="368" y="654" on="0"/>
        <pt x="341" y="653" on="0"/>
        <pt x="315" y="647" on="0"/>
        <pt x="296" y="634" on="0"/>
        <pt x="296" y="622" on="1"/>
        <pt x="296" y="621" on="0"/>
        <pt x="297" y="616" on="0"/>
        <pt x="299" y="608" on="1"/>
        <pt x="409" y="90" on="1"/>
        <pt x="678" y="583" on="1"/>
        <pt x="685" y="596" on="0"/>
        <pt x="688" y="604" on="0"/>
        <pt x="688" y="612" on="1"/>
        <pt x="688" y="633" on="0"/>
        <pt x="654" y="653" on="0"/>
        <pt x="631" y="654" on="1"/>
        <pt x="635" y="683" on="1"/>
        <pt x="655" y="681" on="0"/>
        <pt x="715" y="681" on="0"/>
        <pt x="736" y="681" on="1"/>
        <pt x="749" y="681" on="0"/>
        <pt x="766" y="681" on="0"/>
        <pt x="784" y="681" on="0"/>
        <pt x="808" y="682" on="0"/>
        <pt x="829" y="683" on="1"/>
        <pt x="824" y="654" on="1"/>
        <pt x="795" y="654" on="0"/>
        <pt x="755" y="639" on="0"/>
        <pt x="729" y="618" on="0"/>
        <pt x="714" y="595" on="0"/>
        <pt x="710" y="587" on="1"/>
      </contour>
    </TTGlyph>
    <TTGlyph name="W" xMin="126" yMin="-21" xMax="1102" yMax="683">
      <contour>
        <pt x="704" y="-4" on="1"/>
        <pt x="696" y="-21" on="0"/>
        <pt x="684" y="-21" on="1"/>
        <pt x="675" y="-21" on="0"/>
        <pt x="671" y="-13" on="0"/>
        <pt x="669" y="1" on="1"/>
        <pt x="589" y="516" on="1"/>
        <pt x="335" y="-2" on="1"/>
        <pt x="330" y="-13" on="0"/>
        <pt x="323" y="-21" on="0"/>
        <pt x="315" y="-21" on="1"/>
        <pt x="306" y="-21" on="0"/>
        <pt x="302" y="-11" on="0"/>
        <pt x="300" y="-1" on="1"/>
        <pt x="205" y="614" on="1"/>
        <pt x="203" y="629" on="0"/>
        <pt x="194" y="645" on="0"/>
        <pt x="176" y="653" on="0"/>
        <pt x="147" y="654" on="0"/>
        <pt x="126" y="654" on="1"/>
        <pt x="132" y="683" on="1"/>
        <pt x="144" y="682" on="0"/>
        <pt x="179" y="681" on="0"/>
        <pt x="214" y="681" on="0"/>
        <pt x="243" y="681" on="0"/>
        <pt x="247" y="681" on="1"/>
        <pt x="258" y="681" on="0"/>
        <pt x="294" y="681" on="0"/>
        <pt x="331" y="681" on="0"/>
        <pt x="365" y="682" on="0"/>
        <pt x="374" y="683" on="1"/>
        <pt x="369" y="654" on="1"/>
        <pt x="361" y="654" on="0"/>
        <pt x="333" y="653" on="0"/>
        <pt x="306" y="647" on="0"/>
        <pt x="287" y="633" on="0"/>
        <pt x="287" y="621" on="1"/>
        <pt x="288" y="607" on="1"/>
        <pt x="366" y="107" on="1"/>
        <pt x="583" y="553" on="1"/>
        <pt x="579" y="580" on="0"/>
        <pt x="574" y="611" on="0"/>
        <pt x="571" y="627" on="0"/>
        <pt x="569" y="632" on="0"/>
        <pt x="568" y="634" on="1"/>
        <pt x="562" y="648" on="0"/>
        <pt x="534" y="654" on="0"/>
        <pt x="495" y="654" on="1"/>
        <pt x="500" y="683" on="1"/>
        <pt x="511" y="682" on="0"/>
        <pt x="541" y="681" on="0"/>
        <pt x="573" y="681" on="0"/>
        <pt x="604" y="681" on="0"/>
        <pt x="615" y="681" on="1"/>
        <pt x="626" y="681" on="0"/>
        <pt x="662" y="681" on="0"/>
        <pt x="700" y="681" on="0"/>
        <pt x="734" y="682" on="0"/>
        <pt x="743" y="683" on="1"/>
        <pt x="738" y="654" on="1"/>
        <pt x="730" y="654" on="0"/>
        <pt x="702" y="653" on="0"/>
        <pt x="675" y="647" on="0"/>
        <pt x="655" y="633" on="0"/>
        <pt x="655" y="621" on="1"/>
        <pt x="655" y="615" on="0"/>
        <pt x="657" y="607" on="1"/>
        <pt x="735" y="107" on="1"/>
        <pt x="968" y="584" on="1"/>
        <pt x="970" y="589" on="0"/>
        <pt x="974" y="602" on="0"/>
        <pt x="974" y="607" on="1"/>
        <pt x="974" y="622" on="0"/>
        <pt x="957" y="641" on="0"/>
        <pt x="933" y="651" on="0"/>
        <pt x="910" y="655" on="0"/>
        <pt x="904" y="655" on="1"/>
        <pt x="909" y="683" on="1"/>
        <pt x="918" y="682" on="0"/>
        <pt x="945" y="681" on="0"/>
        <pt x="974" y="681" on="0"/>
        <pt x="1002" y="681" on="0"/>
        <pt x="1012" y="681" on="1"/>
        <pt x="1029" y="681" on="0"/>
        <pt x="1049" y="681" on="0"/>
        <pt x="1066" y="681" on="0"/>
        <pt x="1086" y="682" on="0"/>
        <pt x="1102" y="683" on="1"/>
        <pt x="1100" y="676" on="0"/>
        <pt x="1098" y="660" on="0"/>
        <pt x="1097" y="654" on="1"/>
        <pt x="1090" y="654" on="0"/>
        <pt x="1064" y="652" on="0"/>
        <pt x="1034" y="639" on="0"/>
        <pt x="1004" y="612" on="0"/>
        <pt x="992" y="588" on="1"/>
      </contour>
    </TTGlyph>
    <TTGlyph name="X" xMin="22" yMin="0" xMax="784" yMax="683">
      <contour>
        <pt x="614" y="67" on="1"/>
        <pt x="621" y="53" on="0"/>
        <pt x="637" y="37" on="0"/>
        <pt x="660" y="30" on="0"/>
        <pt x="693" y="29" on="0"/>
        <pt x="716" y="29" on="1"/>
        <pt x="711" y="0" on="1"/>
        <pt x="702" y="1" on="0"/>
        <pt x="670" y="2" on="0"/>
        <pt x="634" y="2" on="0"/>
        <pt x="600" y="2" on="0"/>
        <pt x="589" y="2" on="1"/>
        <pt x="578" y="2" on="0"/>
        <pt x="541" y="2" on="0"/>
        <pt x="501" y="2" on="0"/>
        <pt x="466" y="1" on="0"/>
        <pt x="457" y="0" on="1"/>
        <pt x="462" y="29" on="1"/>
        <pt x="491" y="30" on="0"/>
        <pt x="524" y="50" on="0"/>
        <pt x="524" y="61" on="1"/>
        <pt x="524" y="65" on="0"/>
        <pt x="520" y="74" on="0"/>
        <pt x="518" y="77" on="1"/>
        <pt x="397" y="315" on="1"/>
        <pt x="213" y="98" on="1"/>
        <pt x="208" y="92" on="0"/>
        <pt x="199" y="78" on="0"/>
        <pt x="199" y="67" on="1"/>
        <pt x="199" y="54" on="0"/>
        <pt x="213" y="38" on="0"/>
        <pt x="229" y="30" on="0"/>
        <pt x="245" y="28" on="0"/>
        <pt x="246" y="28" on="1"/>
        <pt x="242" y="0" on="1"/>
        <pt x="241" y="0" on="1"/>
        <pt x="232" y="1" on="0"/>
        <pt x="202" y="2" on="0"/>
        <pt x="169" y="2" on="0"/>
        <pt x="137" y="2" on="0"/>
        <pt x="127" y="2" on="1"/>
        <pt x="108" y="2" on="0"/>
        <pt x="82" y="2" on="0"/>
        <pt x="61" y="2" on="0"/>
        <pt x="38" y="1" on="0"/>
        <pt x="22" y="0" on="1"/>
        <pt x="27" y="29" on="1"/>
        <pt x="58" y="29" on="0"/>
        <pt x="104" y="41" on="0"/>
        <pt x="139" y="59" on="0"/>
        <pt x="166" y="82" on="0"/>
        <pt x="176" y="94" on="1"/>
        <pt x="385" y="340" on="1"/>
        <pt x="245" y="617" on="1"/>
        <pt x="239" y="629" on="0"/>
        <pt x="226" y="644" on="0"/>
        <pt x="206" y="652" on="0"/>
        <pt x="172" y="654" on="0"/>
        <pt x="145" y="654" on="1"/>
        <pt x="150" y="683" on="1"/>
        <pt x="159" y="682" on="0"/>
        <pt x="192" y="681" on="0"/>
        <pt x="228" y="681" on="0"/>
        <pt x="262" y="681" on="0"/>
        <pt x="272" y="681" on="1"/>
        <pt x="283" y="681" on="0"/>
        <pt x="320" y="681" on="0"/>
        <pt x="359" y="681" on="0"/>
        <pt x="394" y="682" on="0"/>
        <pt x="403" y="683" on="1"/>
        <pt x="399" y="654" on="1"/>
        <pt x="368" y="653" on="0"/>
        <pt x="336" y="632" on="0"/>
        <pt x="336" y="622" on="1"/>
        <pt x="336" y="619" on="0"/>
        <pt x="340" y="610" on="0"/>
        <pt x="342" y="607" on="1"/>
        <pt x="443" y="408" on="1"/>
        <pt x="593" y="585" on="1"/>
        <pt x="598" y="591" on="0"/>
        <pt x="607" y="605" on="0"/>
        <pt x="607" y="616" on="1"/>
        <pt x="607" y="629" on="0"/>
        <pt x="593" y="645" on="0"/>
        <pt x="577" y="653" on="0"/>
        <pt x="562" y="655" on="0"/>
        <pt x="560" y="655" on="1"/>
        <pt x="564" y="683" on="1"/>
        <pt x="565" y="683" on="1"/>
        <pt x="574" y="682" on="0"/>
        <pt x="604" y="681" on="0"/>
        <pt x="637" y="681" on="0"/>
        <pt x="669" y="681" on="0"/>
        <pt x="679" y="681" on="1"/>
        <pt x="698" y="681" on="0"/>
        <pt x="724" y="681" on="0"/>
        <pt x="745" y="681" on="0"/>
        <pt x="768" y="682" on="0"/>
        <pt x="784" y="683" on="1"/>
        <pt x="779" y="654" on="1"/>
        <pt x="719" y="653" on="0"/>
        <pt x="652" y="615" on="0"/>
        <pt x="630" y="589" on="1"/>
        <pt x="455" y="384" on="1"/>
      </contour>
    </TTGlyph>
    <TTGlyph name="Xi" xMin="49" yMin="0" xMax="711" yMax="678">
      <contour>
        <pt x="694" y="528" on="1"/>
        <pt x="672" y="528" on="1"/>
        <pt x="674" y="550" on="0"/>
        <pt x="676" y="571" on="0"/>
        <pt x="676" y="580" on="1"/>
        <pt x="676" y="602" on="0"/>
        <pt x="668" y="610" on="0"/>
        <pt x="653" y="612" on="1"/>
        <pt x="641" y="613" on="0"/>
        <pt x="611" y="614" on="0"/>
        <pt x="599" y="614" on="1"/>
        <pt x="257" y="614" on="1"/>
        <pt x="246" y="614" on="0"/>
        <pt x="221" y="614" on="0"/>
        <pt x="199" y="612" on="0"/>
        <pt x="182" y="607" on="0"/>
        <pt x="179" y="603" on="1"/>
        <pt x="175" y="597" on="0"/>
        <pt x="168" y="576" on="0"/>
        <pt x="161" y="552" on="0"/>
        <pt x="157" y="532" on="0"/>
        <pt x="156" y="528" on="1"/>
        <pt x="134" y="528" on="1"/>
        <pt x="167" y="678" on="1"/>
        <pt x="711" y="678" on="1"/>
      </contour>
      <contour>
        <pt x="68" y="161" on="1"/>
        <pt x="90" y="161" on="1"/>
        <pt x="86" y="132" on="0"/>
        <pt x="85" y="108" on="0"/>
        <pt x="85" y="100" on="1"/>
        <pt x="85" y="78" on="0"/>
        <pt x="91" y="69" on="0"/>
        <pt x="108" y="67" on="1"/>
        <pt x="116" y="66" on="0"/>
        <pt x="125" y="65" on="0"/>
        <pt x="136" y="64" on="0"/>
        <pt x="152" y="64" on="0"/>
        <pt x="165" y="64" on="1"/>
        <pt x="508" y="64" on="1"/>
        <pt x="516" y="64" on="0"/>
        <pt x="541" y="64" on="0"/>
        <pt x="567" y="66" on="0"/>
        <pt x="587" y="71" on="0"/>
        <pt x="590" y="75" on="1"/>
        <pt x="596" y="84" on="0"/>
        <pt x="608" y="123" on="0"/>
        <pt x="616" y="161" on="1"/>
        <pt x="638" y="161" on="1"/>
        <pt x="603" y="0" on="1"/>
        <pt x="49" y="0" on="1"/>
      </contour>
      <contour>
        <pt x="562" y="274" on="1"/>
        <pt x="540" y="274" on="1"/>
        <pt x="547" y="321" on="1"/>
        <pt x="211" y="321" on="1"/>
        <pt x="204" y="274" on="1"/>
        <pt x="182" y="274" on="1"/>
        <pt x="208" y="432" on="1"/>
        <pt x="230" y="432" on="1"/>
        <pt x="222" y="385" on="1"/>
        <pt x="558" y="385" on="1"/>
        <pt x="566" y="432" on="1"/>
        <pt x="588" y="432" on="1"/>
      </contour>
    </TTGlyph>
    <TTGlyph name="Y" xMin="119" yMin="0" xMax="836" yMax="683">
      <contour>
        <pt x="451" y="272" on="1"/>
        <pt x="446" y="242" on="0"/>
        <pt x="442" y="214" on="0"/>
        <pt x="439" y="197" on="0"/>
        <pt x="436" y="183" on="0"/>
        <pt x="433" y="167" on="1"/>
        <pt x="427" y="130" on="0"/>
        <pt x="420" y="89" on="0"/>
        <pt x="417" y="67" on="0"/>
        <pt x="416" y="60" on="0"/>
        <pt x="416" y="57" on="1"/>
        <pt x="416" y="41" on="0"/>
        <pt x="433" y="33" on="0"/>
        <pt x="447" y="31" on="1"/>
        <pt x="460" y="29" on="0"/>
        <pt x="487" y="29" on="0"/>
        <pt x="505" y="29" on="1"/>
        <pt x="501" y="0" on="1"/>
        <pt x="492" y="1" on="0"/>
        <pt x="456" y="2" on="0"/>
        <pt x="415" y="2" on="0"/>
        <pt x="377" y="2" on="0"/>
        <pt x="366" y="2" on="1"/>
        <pt x="355" y="2" on="0"/>
        <pt x="317" y="2" on="0"/>
        <pt x="277" y="2" on="0"/>
        <pt x="241" y="1" on="0"/>
        <pt x="232" y="0" on="1"/>
        <pt x="237" y="29" on="1"/>
        <pt x="268" y="29" on="0"/>
        <pt x="305" y="30" on="0"/>
        <pt x="327" y="39" on="0"/>
        <pt x="336" y="58" on="0"/>
        <pt x="339" y="75" on="1"/>
        <pt x="348" y="127" on="0"/>
        <pt x="364" y="226" on="0"/>
        <pt x="372" y="274" on="1"/>
        <pt x="218" y="615" on="1"/>
        <pt x="212" y="628" on="0"/>
        <pt x="200" y="644" on="0"/>
        <pt x="180" y="652" on="0"/>
        <pt x="147" y="654" on="0"/>
        <pt x="119" y="654" on="1"/>
        <pt x="124" y="683" on="1"/>
        <pt x="133" y="682" on="0"/>
        <pt x="166" y="681" on="0"/>
        <pt x="202" y="681" on="0"/>
        <pt x="237" y="681" on="0"/>
        <pt x="247" y="681" on="1"/>
        <pt x="258" y="681" on="0"/>
        <pt x="295" y="681" on="0"/>
        <pt x="335" y="681" on="0"/>
        <pt x="370" y="682" on="0"/>
        <pt x="379" y="683" on="1"/>
        <pt x="375" y="654" on="1"/>
        <pt x="364" y="654" on="0"/>
        <pt x="340" y="653" on="0"/>
        <pt x="321" y="648" on="0"/>
        <pt x="308" y="637" on="0"/>
        <pt x="308" y="627" on="1"/>
        <pt x="308" y="625" on="0"/>
        <pt x="309" y="617" on="0"/>
        <pt x="314" y="607" on="1"/>
        <pt x="448" y="310" on="1"/>
        <pt x="665" y="587" on="1"/>
        <pt x="672" y="596" on="0"/>
        <pt x="682" y="612" on="0"/>
        <pt x="682" y="623" on="1"/>
        <pt x="682" y="634" on="0"/>
        <pt x="661" y="654" on="0"/>
        <pt x="637" y="654" on="1"/>
        <pt x="642" y="683" on="1"/>
        <pt x="652" y="682" on="0"/>
        <pt x="678" y="681" on="0"/>
        <pt x="706" y="681" on="0"/>
        <pt x="734" y="681" on="0"/>
        <pt x="744" y="681" on="1"/>
        <pt x="757" y="681" on="0"/>
        <pt x="773" y="681" on="0"/>
        <pt x="791" y="681" on="0"/>
        <pt x="815" y="682" on="0"/>
        <pt x="836" y="683" on="1"/>
        <pt x="832" y="654" on="1"/>
        <pt x="823" y="654" on="0"/>
        <pt x="794" y="651" on="0"/>
        <pt x="758" y="639" on="0"/>
        <pt x="718" y="613" on="0"/>
        <pt x="699" y="589" on="1"/>
      </contour>
    </TTGlyph>
    <TTGlyph name="Z" xMin="56" yMin="0" xMax="655" yMax="683">
      <contour>
        <pt x="152" y="31" on="1"/>
        <pt x="321" y="31" on="1"/>
        <pt x="389" y="31" on="0"/>
        <pt x="475" y="64" on="0"/>
        <pt x="529" y="125" on="0"/>
        <pt x="558" y="211" on="0"/>
        <pt x="570" y="264" on="1"/>
        <pt x="592" y="264" on="1"/>
        <pt x="532" y="0" on="1"/>
        <pt x="79" y="0" on="1"/>
        <pt x="67" y="0" on="0"/>
        <pt x="56" y="2" on="0"/>
        <pt x="56" y="9" on="1"/>
        <pt x="56" y="13" on="0"/>
        <pt x="57" y="15" on="1"/>
        <pt x="58" y="20" on="0"/>
        <pt x="60" y="26" on="0"/>
        <pt x="67" y="34" on="1"/>
        <pt x="559" y="654" on="1"/>
        <pt x="399" y="654" on="1"/>
        <pt x="349" y="654" on="0"/>
        <pt x="272" y="633" on="0"/>
        <pt x="215" y="587" on="0"/>
        <pt x="178" y="513" on="0"/>
        <pt x="167" y="460" on="1"/>
        <pt x="145" y="460" on="1"/>
        <pt x="193" y="683" on="1"/>
        <pt x="632" y="683" on="1"/>
        <pt x="646" y="683" on="0"/>
        <pt x="655" y="681" on="0"/>
        <pt x="655" y="673" on="1"/>
        <pt x="655" y="667" on="0"/>
        <pt x="653" y="661" on="1"/>
      </contour>
    </TTGlyph>
    <TTGlyph name="a" xMin="58" yMin="-10" xMax="508" yMax="446">
      <contour>
        <pt x="508" y="145" on="1"/>
        <pt x="503" y="117" on="0"/>
        <pt x="500" y="97" on="0"/>
        <pt x="498" y="87" on="1"/>
        <pt x="494" y="59" on="0"/>
        <pt x="471" y="24" on="0"/>
        <pt x="443" y="3" on="0"/>
        <pt x="414" y="-5" on="0"/>
        <pt x="404" y="-5" on="1"/>
        <pt x="372" y="-5" on="0"/>
        <pt x="340" y="39" on="0"/>
        <pt x="340" y="65" on="1"/>
        <pt x="340" y="74" on="0"/>
        <pt x="341" y="77" on="1"/>
        <pt x="334" y="65" on="0"/>
        <pt x="309" y="34" on="0"/>
        <pt x="273" y="8" on="0"/>
        <pt x="226" y="-10" on="0"/>
        <pt x="197" y="-10" on="1"/>
        <pt x="172" y="-10" on="0"/>
        <pt x="122" y="1" on="0"/>
        <pt x="82" y="23" on="0"/>
        <pt x="58" y="57" on="0"/>
        <pt x="58" y="80" on="1"/>
        <pt x="58" y="108" on="0"/>
        <pt x="93" y="170" on="0"/>
        <pt x="167" y="223" on="0"/>
        <pt x="283" y="258" on="0"/>
        <pt x="364" y="258" on="1"/>
        <pt x="366" y="267" on="0"/>
        <pt x="369" y="289" on="0"/>
        <pt x="372" y="309" on="0"/>
        <pt x="374" y="326" on="0"/>
        <pt x="374" y="329" on="1"/>
        <pt x="374" y="368" on="0"/>
        <pt x="330" y="426" on="0"/>
        <pt x="288" y="426" on="1"/>
        <pt x="279" y="426" on="0"/>
        <pt x="249" y="422" on="0"/>
        <pt x="215" y="409" on="0"/>
        <pt x="181" y="385" on="0"/>
        <pt x="167" y="366" on="1"/>
        <pt x="172" y="366" on="0"/>
        <pt x="186" y="365" on="0"/>
        <pt x="201" y="359" on="0"/>
        <pt x="211" y="345" on="0"/>
        <pt x="211" y="332" on="1"/>
        <pt x="211" y="315" on="0"/>
        <pt x="186" y="284" on="0"/>
        <pt x="163" y="284" on="1"/>
        <pt x="148" y="284" on="0"/>
        <pt x="127" y="302" on="0"/>
        <pt x="127" y="319" on="1"/>
        <pt x="127" y="340" on="0"/>
        <pt x="151" y="384" on="0"/>
        <pt x="194" y="422" on="0"/>
        <pt x="255" y="446" on="0"/>
        <pt x="291" y="446" on="1"/>
        <pt x="320" y="446" on="0"/>
        <pt x="374" y="429" on="0"/>
        <pt x="414" y="397" on="0"/>
        <pt x="438" y="351" on="0"/>
        <pt x="438" y="322" on="1"/>
        <pt x="438" y="311" on="0"/>
        <pt x="431" y="261" on="0"/>
        <pt x="421" y="204" on="0"/>
        <pt x="412" y="151" on="0"/>
        <pt x="409" y="137" on="1"/>
        <pt x="409" y="134" on="0"/>
        <pt x="405" y="115" on="0"/>
        <pt x="401" y="91" on="0"/>
        <pt x="398" y="70" on="0"/>
        <pt x="398" y="66" on="1"/>
        <pt x="398" y="52" on="0"/>
        <pt x="411" y="24" on="0"/>
        <pt x="428" y="24" on="1"/>
        <pt x="445" y="24" on="0"/>
        <pt x="467" y="52" on="0"/>
        <pt x="472" y="68" on="1"/>
        <pt x="473" y="71" on="0"/>
        <pt x="477" y="89" on="0"/>
        <pt x="481" y="111" on="0"/>
        <pt x="485" y="135" on="0"/>
        <pt x="486" y="145" on="1"/>
      </contour>
      <contour>
        <pt x="361" y="240" on="1"/>
        <pt x="303" y="236" on="0"/>
        <pt x="224" y="210" on="0"/>
        <pt x="172" y="175" on="0"/>
        <pt x="144" y="136" on="0"/>
        <pt x="131" y="103" on="0"/>
        <pt x="129" y="80" on="0"/>
        <pt x="129" y="79" on="1"/>
        <pt x="129" y="51" on="0"/>
        <pt x="170" y="10" on="0"/>
        <pt x="205" y="10" on="1"/>
        <pt x="212" y="10" on="0"/>
        <pt x="252" y="17" on="0"/>
        <pt x="297" y="45" on="0"/>
        <pt x="338" y="101" on="0"/>
        <pt x="346" y="150" on="1"/>
      </contour>
    </TTGlyph>
    <TTGlyph name="acute" xMin="290" yMin="511" xMax="494" yMax="698">
      <contour>
        <pt x="303" y="511" on="1"/>
        <pt x="296" y="518" on="0"/>
        <pt x="294" y="522" on="0"/>
        <pt x="292" y="524" on="1"/>
        <pt x="290" y="527" on="1"/>
        <pt x="436" y="681" on="1"/>
        <pt x="442" y="687" on="0"/>
        <pt x="455" y="698" on="0"/>
        <pt x="465" y="698" on="1"/>
        <pt x="475" y="698" on="0"/>
        <pt x="494" y="682" on="0"/>
        <pt x="494" y="668" on="1"/>
        <pt x="494" y="655" on="0"/>
        <pt x="480" y="640" on="0"/>
        <pt x="472" y="635" on="1"/>
      </contour>
    </TTGlyph>
    <TTGlyph name="ae" xMin="60" yMin="-10" xMax="724" yMax="446">
      <contour>
        <pt x="425" y="232" on="1"/>
        <pt x="423" y="221" on="0"/>
        <pt x="417" y="180" on="0"/>
        <pt x="417" y="159" on="1"/>
        <pt x="417" y="119" on="0"/>
        <pt x="438" y="63" on="0"/>
        <pt x="471" y="28" on="0"/>
        <pt x="513" y="12" on="0"/>
        <pt x="533" y="12" on="1"/>
        <pt x="578" y="12" on="0"/>
        <pt x="654" y="71" on="0"/>
        <pt x="674" y="116" on="1"/>
        <pt x="678" y="124" on="0"/>
        <pt x="682" y="129" on="0"/>
        <pt x="688" y="129" on="1"/>
        <pt x="698" y="129" on="0"/>
        <pt x="698" y="119" on="1"/>
        <pt x="698" y="114" on="0"/>
        <pt x="676" y="72" on="0"/>
        <pt x="634" y="26" on="0"/>
        <pt x="570" y="-10" on="0"/>
        <pt x="528" y="-10" on="1"/>
        <pt x="483" y="-10" on="0"/>
        <pt x="401" y="35" on="0"/>
        <pt x="377" y="80" on="1"/>
        <pt x="368" y="64" on="0"/>
        <pt x="334" y="32" on="0"/>
        <pt x="288" y="6" on="0"/>
        <pt x="231" y="-10" on="0"/>
        <pt x="198" y="-10" on="1"/>
        <pt x="176" y="-10" on="0"/>
        <pt x="128" y="-2" on="0"/>
        <pt x="87" y="19" on="0"/>
        <pt x="60" y="53" on="0"/>
        <pt x="60" y="78" on="1"/>
        <pt x="60" y="101" on="0"/>
        <pt x="88" y="157" on="0"/>
        <pt x="153" y="208" on="0"/>
        <pt x="260" y="245" on="0"/>
        <pt x="340" y="248" on="1"/>
        <pt x="356" y="249" on="0"/>
        <pt x="362" y="251" on="0"/>
        <pt x="363" y="254" on="1"/>
        <pt x="366" y="269" on="0"/>
        <pt x="374" y="315" on="0"/>
        <pt x="374" y="329" on="1"/>
        <pt x="374" y="347" on="0"/>
        <pt x="363" y="382" on="0"/>
        <pt x="342" y="409" on="0"/>
        <pt x="309" y="426" on="0"/>
        <pt x="288" y="426" on="1"/>
        <pt x="260" y="426" on="0"/>
        <pt x="190" y="398" on="0"/>
        <pt x="167" y="366" on="1"/>
        <pt x="172" y="366" on="0"/>
        <pt x="186" y="365" on="0"/>
        <pt x="201" y="359" on="0"/>
        <pt x="211" y="345" on="0"/>
        <pt x="211" y="332" on="1"/>
        <pt x="211" y="315" on="0"/>
        <pt x="186" y="284" on="0"/>
        <pt x="163" y="284" on="1"/>
        <pt x="148" y="284" on="0"/>
        <pt x="127" y="302" on="0"/>
        <pt x="127" y="319" on="1"/>
        <pt x="127" y="340" on="0"/>
        <pt x="151" y="384" on="0"/>
        <pt x="194" y="422" on="0"/>
        <pt x="254" y="446" on="0"/>
        <pt x="291" y="446" on="1"/>
        <pt x="336" y="446" on="0"/>
        <pt x="411" y="407" on="0"/>
        <pt x="429" y="369" on="1"/>
        <pt x="439" y="380" on="0"/>
        <pt x="471" y="407" on="0"/>
        <pt x="512" y="430" on="0"/>
        <pt x="561" y="446" on="0"/>
        <pt x="588" y="446" on="1"/>
        <pt x="658" y="446" on="0"/>
        <pt x="724" y="363" on="0"/>
        <pt x="724" y="297" on="1"/>
        <pt x="724" y="273" on="0"/>
        <pt x="722" y="246" on="0"/>
        <pt x="715" y="234" on="0"/>
        <pt x="704" y="232" on="0"/>
        <pt x="695" y="232" on="1"/>
      </contour>
      <contour>
        <pt x="659" y="251" on="1"/>
        <pt x="661" y="263" on="0"/>
        <pt x="663" y="277" on="0"/>
        <pt x="664" y="290" on="0"/>
        <pt x="664" y="303" on="0"/>
        <pt x="664" y="313" on="1"/>
        <pt x="664" y="320" on="0"/>
        <pt x="662" y="357" on="0"/>
        <pt x="647" y="396" on="0"/>
        <pt x="616" y="426" on="0"/>
        <pt x="587" y="426" on="1"/>
        <pt x="568" y="426" on="0"/>
        <pt x="521" y="406" on="0"/>
        <pt x="477" y="364" on="0"/>
        <pt x="440" y="298" on="0"/>
        <pt x="429" y="251" on="1"/>
      </contour>
      <contour>
        <pt x="359" y="230" on="1"/>
        <pt x="302" y="227" on="0"/>
        <pt x="224" y="202" on="0"/>
        <pt x="173" y="168" on="0"/>
        <pt x="146" y="131" on="0"/>
        <pt x="133" y="99" on="0"/>
        <pt x="131" y="77" on="0"/>
        <pt x="131" y="76" on="1"/>
        <pt x="131" y="46" on="0"/>
        <pt x="174" y="10" on="0"/>
        <pt x="205" y="10" on="1"/>
        <pt x="236" y="10" on="0"/>
        <pt x="291" y="36" on="0"/>
        <pt x="332" y="76" on="0"/>
        <pt x="356" y="125" on="0"/>
        <pt x="356" y="148" on="1"/>
        <pt x="356" y="151" on="0"/>
        <pt x="354" y="165" on="0"/>
        <pt x="354" y="179" on="1"/>
        <pt x="354" y="181" on="0"/>
        <pt x="355" y="210" on="0"/>
      </contour>
    </TTGlyph>
    <TTGlyph name="ampersand" xMin="61" yMin="-21" xMax="784" yMax="715">
      <contour>
        <pt x="779" y="402" on="1"/>
        <pt x="752" y="402" on="0"/>
        <pt x="705" y="390" on="0"/>
        <pt x="682" y="374" on="1"/>
        <pt x="665" y="362" on="0"/>
        <pt x="623" y="308" on="0"/>
        <pt x="569" y="234" on="0"/>
        <pt x="498" y="144" on="0"/>
        <pt x="452" y="97" on="1"/>
        <pt x="487" y="46" on="0"/>
        <pt x="545" y="8" on="0"/>
        <pt x="573" y="8" on="1"/>
        <pt x="593" y="8" on="0"/>
        <pt x="635" y="23" on="0"/>
        <pt x="673" y="52" on="0"/>
        <pt x="700" y="94" on="0"/>
        <pt x="705" y="121" on="1"/>
        <pt x="727" y="121" on="1"/>
        <pt x="721" y="89" on="0"/>
        <pt x="690" y="37" on="0"/>
        <pt x="646" y="-1" on="0"/>
        <pt x="593" y="-21" on="0"/>
        <pt x="566" y="-21" on="1"/>
        <pt x="533" y="-21" on="0"/>
        <pt x="481" y="-3" on="0"/>
        <pt x="441" y="23" on="0"/>
        <pt x="414" y="49" on="0"/>
        <pt x="407" y="56" on="1"/>
        <pt x="362" y="19" on="0"/>
        <pt x="266" y="-21" on="0"/>
        <pt x="217" y="-21" on="1"/>
        <pt x="186" y="-21" on="0"/>
        <pt x="129" y="-3" on="0"/>
        <pt x="86" y="30" on="0"/>
        <pt x="61" y="78" on="0"/>
        <pt x="61" y="108" on="1"/>
        <pt x="61" y="131" on="0"/>
        <pt x="74" y="169" on="0"/>
        <pt x="93" y="199" on="0"/>
        <pt x="116" y="222" on="0"/>
        <pt x="126" y="232" on="1"/>
        <pt x="260" y="355" on="1"/>
        <pt x="252" y="394" on="0"/>
        <pt x="247" y="460" on="0"/>
        <pt x="247" y="473" on="1"/>
        <pt x="247" y="538" on="0"/>
        <pt x="268" y="615" on="0"/>
        <pt x="286" y="641" on="1"/>
        <pt x="310" y="677" on="0"/>
        <pt x="378" y="715" on="0"/>
        <pt x="410" y="715" on="1"/>
        <pt x="430" y="715" on="0"/>
        <pt x="455" y="699" on="0"/>
        <pt x="470" y="672" on="0"/>
        <pt x="476" y="640" on="0"/>
        <pt x="476" y="623" on="1"/>
        <pt x="476" y="605" on="0"/>
        <pt x="471" y="573" on="0"/>
        <pt x="457" y="540" on="0"/>
        <pt x="432" y="503" on="0"/>
        <pt x="413" y="480" on="1"/>
        <pt x="384" y="445" on="0"/>
        <pt x="333" y="398" on="0"/>
        <pt x="322" y="385" on="1"/>
        <pt x="329" y="349" on="0"/>
        <pt x="357" y="274" on="0"/>
        <pt x="390" y="202" on="0"/>
        <pt x="425" y="139" on="0"/>
        <pt x="439" y="116" on="1"/>
        <pt x="462" y="138" on="0"/>
        <pt x="521" y="208" on="0"/>
        <pt x="575" y="277" on="0"/>
        <pt x="616" y="334" on="0"/>
        <pt x="623" y="343" on="1"/>
        <pt x="625" y="345" on="0"/>
        <pt x="629" y="355" on="0"/>
        <pt x="629" y="364" on="1"/>
        <pt x="629" y="378" on="0"/>
        <pt x="610" y="394" on="0"/>
        <pt x="587" y="402" on="0"/>
        <pt x="567" y="403" on="0"/>
        <pt x="566" y="403" on="1"/>
        <pt x="571" y="431" on="1"/>
        <pt x="580" y="430" on="0"/>
        <pt x="610" y="429" on="0"/>
        <pt x="643" y="429" on="0"/>
        <pt x="675" y="429" on="0"/>
        <pt x="685" y="429" on="1"/>
        <pt x="710" y="429" on="0"/>
        <pt x="759" y="430" on="0"/>
        <pt x="784" y="431" on="1"/>
      </contour>
      <contour>
        <pt x="317" y="409" on="1"/>
        <pt x="364" y="454" on="0"/>
        <pt x="418" y="517" on="0"/>
        <pt x="446" y="564" on="0"/>
        <pt x="454" y="603" on="0"/>
        <pt x="454" y="625" on="1"/>
        <pt x="454" y="652" on="0"/>
        <pt x="437" y="695" on="0"/>
        <pt x="411" y="695" on="1"/>
        <pt x="401" y="695" on="0"/>
        <pt x="367" y="683" on="0"/>
        <pt x="334" y="642" on="0"/>
        <pt x="310" y="563" on="0"/>
        <pt x="310" y="496" on="1"/>
        <pt x="310" y="490" on="0"/>
        <pt x="312" y="442" on="0"/>
      </contour>
      <contour>
        <pt x="266" y="333" on="1"/>
        <pt x="255" y="323" on="0"/>
        <pt x="230" y="300" on="0"/>
        <pt x="207" y="278" on="0"/>
        <pt x="188" y="258" on="0"/>
        <pt x="183" y="252" on="1"/>
        <pt x="168" y="232" on="0"/>
        <pt x="150" y="190" on="0"/>
        <pt x="142" y="154" on="0"/>
        <pt x="140" y="126" on="0"/>
        <pt x="140" y="121" on="1"/>
        <pt x="140" y="115" on="0"/>
        <pt x="144" y="78" on="0"/>
        <pt x="160" y="39" on="0"/>
        <pt x="195" y="8" on="0"/>
        <pt x="226" y="8" on="1"/>
        <pt x="276" y="8" on="0"/>
        <pt x="360" y="48" on="0"/>
        <pt x="392" y="74" on="1"/>
        <pt x="382" y="87" on="0"/>
        <pt x="348" y="139" on="0"/>
        <pt x="311" y="208" on="0"/>
        <pt x="277" y="290" on="0"/>
      </contour>
    </TTGlyph>
    <TTGlyph name="asterisk" xMin="137" yMin="319" xMax="530" yMax="750">
      <contour>
        <pt x="328" y="357" on="1"/>
        <pt x="327" y="346" on="0"/>
        <pt x="318" y="319" on="0"/>
        <pt x="298" y="319" on="1"/>
        <pt x="291" y="319" on="0"/>
        <pt x="276" y="328" on="0"/>
        <pt x="276" y="339" on="1"/>
        <pt x="276" y="343" on="0"/>
        <pt x="278" y="350" on="0"/>
        <pt x="280" y="359" on="1"/>
        <pt x="320" y="516" on="1"/>
        <pt x="176" y="420" on="1"/>
        <pt x="173" y="418" on="0"/>
        <pt x="165" y="414" on="0"/>
        <pt x="159" y="414" on="1"/>
        <pt x="137" y="414" on="0"/>
        <pt x="137" y="437" on="1"/>
        <pt x="137" y="443" on="0"/>
        <pt x="145" y="459" on="0"/>
        <pt x="161" y="466" on="1"/>
        <pt x="314" y="535" on="1"/>
        <pt x="185" y="603" on="1"/>
        <pt x="178" y="607" on="0"/>
        <pt x="168" y="615" on="0"/>
        <pt x="168" y="624" on="1"/>
        <pt x="168" y="635" on="0"/>
        <pt x="186" y="655" on="0"/>
        <pt x="199" y="655" on="1"/>
        <pt x="201" y="655" on="0"/>
        <pt x="211" y="653" on="0"/>
        <pt x="219" y="645" on="1"/>
        <pt x="326" y="553" on="1"/>
        <pt x="339" y="716" on="1"/>
        <pt x="340" y="727" on="0"/>
        <pt x="352" y="750" on="0"/>
        <pt x="369" y="750" on="1"/>
        <pt x="377" y="750" on="0"/>
        <pt x="391" y="741" on="0"/>
        <pt x="391" y="730" on="1"/>
        <pt x="391" y="726" on="0"/>
        <pt x="389" y="719" on="0"/>
        <pt x="387" y="710" on="1"/>
        <pt x="347" y="553" on="1"/>
        <pt x="491" y="649" on="1"/>
        <pt x="493" y="651" on="0"/>
        <pt x="502" y="655" on="0"/>
        <pt x="508" y="655" on="1"/>
        <pt x="516" y="655" on="0"/>
        <pt x="530" y="643" on="0"/>
        <pt x="530" y="632" on="1"/>
        <pt x="530" y="618" on="0"/>
        <pt x="514" y="607" on="0"/>
        <pt x="507" y="604" on="1"/>
        <pt x="353" y="534" on="1"/>
        <pt x="483" y="466" on="1"/>
        <pt x="494" y="460" on="0"/>
        <pt x="499" y="450" on="0"/>
        <pt x="499" y="445" on="1"/>
        <pt x="499" y="433" on="0"/>
        <pt x="480" y="414" on="0"/>
        <pt x="468" y="414" on="1"/>
        <pt x="464" y="414" on="0"/>
        <pt x="458" y="417" on="0"/>
        <pt x="449" y="425" on="1"/>
        <pt x="341" y="516" on="1"/>
      </contour>
    </TTGlyph>
    <TTGlyph name="at" xMin="107" yMin="-10" xMax="770" yMax="704">
      <contour>
        <pt x="631" y="480" on="1"/>
        <pt x="642" y="480" on="0"/>
        <pt x="654" y="478" on="0"/>
        <pt x="654" y="471" on="1"/>
        <pt x="654" y="470" on="0"/>
        <pt x="649" y="439" on="0"/>
        <pt x="643" y="402" on="0"/>
        <pt x="638" y="369" on="0"/>
        <pt x="637" y="364" on="1"/>
        <pt x="625" y="291" on="0"/>
        <pt x="609" y="197" on="0"/>
        <pt x="609" y="189" on="1"/>
        <pt x="609" y="171" on="0"/>
        <pt x="621" y="149" on="0"/>
        <pt x="635" y="149" on="1"/>
        <pt x="656" y="149" on="0"/>
        <pt x="685" y="169" on="0"/>
        <pt x="706" y="199" on="0"/>
        <pt x="718" y="233" on="0"/>
        <pt x="722" y="246" on="1"/>
        <pt x="724" y="255" on="0"/>
        <pt x="733" y="292" on="0"/>
        <pt x="742" y="339" on="0"/>
        <pt x="748" y="389" on="0"/>
        <pt x="748" y="410" on="1"/>
        <pt x="748" y="471" on="0"/>
        <pt x="709" y="572" on="0"/>
        <pt x="641" y="644" on="0"/>
        <pt x="549" y="684" on="0"/>
        <pt x="496" y="684" on="1"/>
        <pt x="427" y="684" on="0"/>
        <pt x="295" y="619" on="0"/>
        <pt x="192" y="510" on="0"/>
        <pt x="129" y="365" on="0"/>
        <pt x="129" y="284" on="1"/>
        <pt x="129" y="226" on="0"/>
        <pt x="165" y="125" on="0"/>
        <pt x="232" y="52" on="0"/>
        <pt x="327" y="10" on="0"/>
        <pt x="385" y="10" on="1"/>
        <pt x="404" y="10" on="0"/>
        <pt x="461" y="14" on="0"/>
        <pt x="530" y="26" on="0"/>
        <pt x="611" y="49" on="0"/>
        <pt x="654" y="68" on="1"/>
        <pt x="668" y="75" on="0"/>
        <pt x="679" y="77" on="0"/>
        <pt x="690" y="77" on="1"/>
        <pt x="696" y="77" on="1"/>
        <pt x="707" y="77" on="0"/>
        <pt x="718" y="75" on="0"/>
        <pt x="718" y="69" on="1"/>
        <pt x="718" y="63" on="0"/>
        <pt x="677" y="46" on="0"/>
        <pt x="625" y="28" on="0"/>
        <pt x="574" y="14" on="0"/>
        <pt x="565" y="12" on="1"/>
        <pt x="514" y="0" on="0"/>
        <pt x="421" y="-10" on="0"/>
        <pt x="386" y="-10" on="1"/>
        <pt x="322" y="-10" on="0"/>
        <pt x="218" y="35" on="0"/>
        <pt x="146" y="115" on="0"/>
        <pt x="107" y="222" on="0"/>
        <pt x="107" y="284" on="1"/>
        <pt x="107" y="341" on="0"/>
        <pt x="137" y="447" on="0"/>
        <pt x="191" y="540" on="0"/>
        <pt x="265" y="618" on="0"/>
        <pt x="351" y="673" on="0"/>
        <pt x="447" y="704" on="0"/>
        <pt x="496" y="704" on="1"/>
        <pt x="554" y="704" on="0"/>
        <pt x="654" y="661" on="0"/>
        <pt x="728" y="583" on="0"/>
        <pt x="770" y="475" on="0"/>
        <pt x="770" y="410" on="1"/>
        <pt x="770" y="385" on="0"/>
        <pt x="763" y="330" on="0"/>
        <pt x="753" y="282" on="0"/>
        <pt x="744" y="246" on="0"/>
        <pt x="741" y="238" on="1"/>
        <pt x="734" y="215" on="0"/>
        <pt x="714" y="175" on="0"/>
        <pt x="688" y="146" on="0"/>
        <pt x="653" y="129" on="0"/>
        <pt x="630" y="129" on="1"/>
        <pt x="622" y="129" on="0"/>
        <pt x="593" y="134" on="0"/>
        <pt x="566" y="149" on="0"/>
        <pt x="545" y="178" on="0"/>
        <pt x="545" y="201" on="1"/>
        <pt x="542" y="198" on="0"/>
        <pt x="519" y="175" on="0"/>
        <pt x="482" y="150" on="0"/>
        <pt x="432" y="129" on="0"/>
        <pt x="403" y="129" on="1"/>
        <pt x="371" y="129" on="0"/>
        <pt x="312" y="153" on="0"/>
        <pt x="267" y="199" on="0"/>
        <pt x="240" y="266" on="0"/>
        <pt x="240" y="308" on="1"/>
        <pt x="240" y="362" on="0"/>
        <pt x="281" y="455" on="0"/>
        <pt x="347" y="525" on="0"/>
        <pt x="430" y="565" on="0"/>
        <pt x="472" y="565" on="1"/>
        <pt x="514" y="565" on="0"/>
        <pt x="579" y="521" on="0"/>
        <pt x="598" y="480" on="1"/>
      </contour>
      <contour>
        <pt x="586" y="451" on="1"/>
        <pt x="572" y="495" on="0"/>
        <pt x="512" y="545" on="0"/>
        <pt x="474" y="545" on="1"/>
        <pt x="441" y="545" on="0"/>
        <pt x="380" y="503" on="0"/>
        <pt x="332" y="433" on="0"/>
        <pt x="303" y="343" on="0"/>
        <pt x="303" y="296" on="1"/>
        <pt x="303" y="269" on="0"/>
        <pt x="316" y="217" on="0"/>
        <pt x="341" y="175" on="0"/>
        <pt x="380" y="149" on="0"/>
        <pt x="405" y="149" on="1"/>
        <pt x="432" y="149" on="0"/>
        <pt x="484" y="173" on="0"/>
        <pt x="525" y="208" on="0"/>
        <pt x="552" y="246" on="0"/>
        <pt x="554" y="259" on="1"/>
      </contour>
    </TTGlyph>
    <TTGlyph name="b" xMin="104" yMin="-10" xMax="547" yMax="694">
      <contour>
        <pt x="230" y="376" on="1"/>
        <pt x="238" y="385" on="0"/>
        <pt x="266" y="407" on="0"/>
        <pt x="303" y="427" on="0"/>
        <pt x="348" y="441" on="0"/>
        <pt x="375" y="441" on="1"/>
        <pt x="410" y="441" on="0"/>
        <pt x="473" y="415" on="0"/>
        <pt x="520" y="366" on="0"/>
        <pt x="547" y="297" on="0"/>
        <pt x="547" y="255" on="1"/>
        <pt x="547" y="200" on="0"/>
        <pt x="502" y="103" on="0"/>
        <pt x="430" y="31" on="0"/>
        <pt x="339" y="-10" on="0"/>
        <pt x="292" y="-10" on="1"/>
        <pt x="247" y="-10" on="0"/>
        <pt x="189" y="33" on="0"/>
        <pt x="173" y="66" on="1"/>
        <pt x="126" y="0" on="1"/>
        <pt x="104" y="0" on="1"/>
        <pt x="205" y="605" on="1"/>
        <pt x="206" y="608" on="0"/>
        <pt x="207" y="620" on="0"/>
        <pt x="207" y="623" on="1"/>
        <pt x="207" y="644" on="0"/>
        <pt x="174" y="654" on="0"/>
        <pt x="137" y="654" on="1"/>
        <pt x="137" y="656" on="0"/>
        <pt x="140" y="674" on="0"/>
        <pt x="141" y="676" on="1"/>
        <pt x="142" y="681" on="0"/>
        <pt x="147" y="683" on="0"/>
        <pt x="159" y="684" on="1"/>
        <pt x="283" y="694" on="1"/>
      </contour>
      <contour>
        <pt x="186" y="97" on="1"/>
        <pt x="186" y="94" on="0"/>
        <pt x="195" y="67" on="0"/>
        <pt x="218" y="35" on="0"/>
        <pt x="258" y="10" on="0"/>
        <pt x="289" y="10" on="1"/>
        <pt x="320" y="10" on="0"/>
        <pt x="396" y="48" on="0"/>
        <pt x="425" y="92" on="1"/>
        <pt x="443" y="119" on="0"/>
        <pt x="463" y="186" on="0"/>
        <pt x="473" y="245" on="0"/>
        <pt x="475" y="286" on="0"/>
        <pt x="475" y="288" on="1"/>
        <pt x="475" y="324" on="0"/>
        <pt x="456" y="375" on="0"/>
        <pt x="426" y="407" on="0"/>
        <pt x="388" y="421" on="0"/>
        <pt x="369" y="421" on="1"/>
        <pt x="350" y="421" on="0"/>
        <pt x="302" y="405" on="0"/>
        <pt x="259" y="378" on="0"/>
        <pt x="226" y="342" on="0"/>
        <pt x="223" y="322" on="1"/>
      </contour>
    </TTGlyph>
    <TTGlyph name="bracketleft" xMin="74" yMin="-250" xMax="375" yMax="750">
      <contour>
        <pt x="118" y="-213" on="1"/>
        <pt x="214" y="-213" on="1"/>
        <pt x="208" y="-250" on="1"/>
        <pt x="74" y="-250" on="1"/>
        <pt x="241" y="750" on="1"/>
        <pt x="375" y="750" on="1"/>
        <pt x="369" y="713" on="1"/>
        <pt x="272" y="713" on="1"/>
      </contour>
    </TTGlyph>
    <TTGlyph name="bracketright" xMin="-21" yMin="-250" xMax="280" yMax="750">
      <contour>
        <pt x="113" y="-250" on="1"/>
        <pt x="-21" y="-250" on="1"/>
        <pt x="-15" y="-213" on="1"/>
        <pt x="83" y="-213" on="1"/>
        <pt x="237" y="713" on="1"/>
        <pt x="140" y="713" on="1"/>
        <pt x="146" y="750" on="1"/>
        <pt x="280" y="750" on="1"/>
      </contour>
    </TTGlyph>
    <TTGlyph name="breve" xMin="212" yMin="522" xMax="506" yMax="694">
      <contour>
        <pt x="506" y="694" on="1"/>
        <pt x="500" y="660" on="0"/>
        <pt x="468" y="597" on="0"/>
        <pt x="421" y="550" on="0"/>
        <pt x="364" y="522" on="0"/>
        <pt x="332" y="522" on="1"/>
        <pt x="304" y="522" on="0"/>
        <pt x="259" y="544" on="0"/>
        <pt x="228" y="582" on="0"/>
        <pt x="212" y="632" on="0"/>
        <pt x="212" y="660" on="1"/>
        <pt x="212" y="663" on="0"/>
        <pt x="212" y="680" on="0"/>
        <pt x="214" y="687" on="1"/>
        <pt x="215" y="692" on="0"/>
        <pt x="221" y="694" on="0"/>
        <pt x="235" y="694" on="1"/>
        <pt x="233" y="687" on="0"/>
        <pt x="233" y="679" on="0"/>
        <pt x="233" y="670" on="1"/>
        <pt x="233" y="643" on="0"/>
        <pt x="250" y="600" on="0"/>
        <pt x="279" y="572" on="0"/>
        <pt x="317" y="557" on="0"/>
        <pt x="337" y="557" on="1"/>
        <pt x="365" y="557" on="0"/>
        <pt x="415" y="580" on="0"/>
        <pt x="455" y="618" on="0"/>
        <pt x="482" y="667" on="0"/>
        <pt x="486" y="694" on="1"/>
      </contour>
    </TTGlyph>
    <TTGlyph name="c" xMin="68" yMin="-10" xMax="452" yMax="446">
      <contour>
        <pt x="425" y="370" on="1"/>
        <pt x="416" y="389" on="0"/>
        <pt x="385" y="410" on="0"/>
        <pt x="353" y="421" on="0"/>
        <pt x="325" y="424" on="0"/>
        <pt x="318" y="424" on="1"/>
        <pt x="280" y="424" on="0"/>
        <pt x="215" y="379" on="0"/>
        <pt x="168" y="305" on="0"/>
        <pt x="142" y="208" on="0"/>
        <pt x="142" y="157" on="1"/>
        <pt x="142" y="118" on="0"/>
        <pt x="162" y="62" on="0"/>
        <pt x="194" y="28" on="0"/>
        <pt x="234" y="12" on="0"/>
        <pt x="254" y="12" on="1"/>
        <pt x="298" y="12" on="0"/>
        <pt x="377" y="63" on="0"/>
        <pt x="401" y="112" on="1"/>
        <pt x="406" y="123" on="0"/>
        <pt x="411" y="128" on="0"/>
        <pt x="416" y="128" on="1"/>
        <pt x="418" y="128" on="0"/>
        <pt x="426" y="126" on="0"/>
        <pt x="426" y="120" on="1"/>
        <pt x="426" y="117" on="0"/>
        <pt x="406" y="75" on="0"/>
        <pt x="362" y="28" on="0"/>
        <pt x="293" y="-10" on="0"/>
        <pt x="244" y="-10" on="1"/>
        <pt x="208" y="-10" on="0"/>
        <pt x="144" y="16" on="0"/>
        <pt x="96" y="65" on="0"/>
        <pt x="68" y="134" on="0"/>
        <pt x="68" y="177" on="1"/>
        <pt x="68" y="230" on="0"/>
        <pt x="110" y="328" on="0"/>
        <pt x="179" y="402" on="0"/>
        <pt x="269" y="446" on="0"/>
        <pt x="317" y="446" on="1"/>
        <pt x="344" y="446" on="0"/>
        <pt x="393" y="432" on="0"/>
        <pt x="430" y="406" on="0"/>
        <pt x="452" y="369" on="0"/>
        <pt x="452" y="345" on="1"/>
        <pt x="452" y="326" on="0"/>
        <pt x="441" y="304" on="0"/>
        <pt x="426" y="292" on="0"/>
        <pt x="410" y="288" on="0"/>
        <pt x="404" y="288" on="1"/>
        <pt x="382" y="288" on="0"/>
        <pt x="367" y="312" on="0"/>
        <pt x="367" y="323" on="1"/>
        <pt x="367" y="341" on="0"/>
        <pt x="382" y="360" on="0"/>
        <pt x="402" y="369" on="0"/>
        <pt x="421" y="370" on="0"/>
      </contour>
    </TTGlyph>
    <TTGlyph name="caron" xMin="219" yMin="518" xMax="476" yMax="637">
      <contour>
        <pt x="467" y="637" on="1"/>
        <pt x="476" y="619" on="1"/>
        <pt x="331" y="518" on="1"/>
        <pt x="219" y="619" on="1"/>
        <pt x="235" y="637" on="1"/>
        <pt x="339" y="566" on="1"/>
      </contour>
    </TTGlyph>
    <TTGlyph name="cedilla" xMin="97" yMin="-201" xMax="338" yMax="-21">
      <contour>
        <pt x="268" y="-55" on="1"/>
        <pt x="338" y="-70" on="0"/>
        <pt x="338" y="-115" on="1"/>
        <pt x="338" y="-160" on="0"/>
        <pt x="238" y="-201" on="0"/>
        <pt x="138" y="-201" on="1"/>
        <pt x="97" y="-201" on="1"/>
        <pt x="100" y="-181" on="1"/>
        <pt x="129" y="-181" on="1"/>
        <pt x="156" y="-181" on="0"/>
        <pt x="207" y="-176" on="0"/>
        <pt x="248" y="-163" on="0"/>
        <pt x="273" y="-138" on="0"/>
        <pt x="273" y="-118" on="1"/>
        <pt x="273" y="-101" on="0"/>
        <pt x="251" y="-81" on="0"/>
        <pt x="224" y="-71" on="0"/>
        <pt x="201" y="-69" on="0"/>
        <pt x="200" y="-69" on="1"/>
        <pt x="208" y="-21" on="1"/>
        <pt x="273" y="-21" on="1"/>
      </contour>
    </TTGlyph>
    <TTGlyph name="circumflex" xMin="208" yMin="543" xMax="468" yMax="694">
      <contour>
        <pt x="468" y="558" on="1"/>
        <pt x="450" y="543" on="1"/>
        <pt x="352" y="646" on="1"/>
        <pt x="220" y="543" on="1"/>
        <pt x="208" y="558" on="1"/>
        <pt x="360" y="694" on="1"/>
      </contour>
    </TTGlyph>
    <TTGlyph name="colon" xMin="95" yMin="0" xMax="248" yMax="431">
      <contour>
        <pt x="248" y="389" on="1"/>
        <pt x="248" y="366" on="0"/>
        <pt x="213" y="334" on="0"/>
        <pt x="193" y="334" on="1"/>
        <pt x="173" y="334" on="0"/>
        <pt x="150" y="359" on="0"/>
        <pt x="150" y="376" on="1"/>
        <pt x="150" y="396" on="0"/>
        <pt x="183" y="431" on="0"/>
        <pt x="206" y="431" on="1"/>
        <pt x="222" y="431" on="0"/>
        <pt x="248" y="410" on="0"/>
      </contour>
      <contour>
        <pt x="193" y="55" on="1"/>
        <pt x="193" y="35" on="0"/>
        <pt x="161" y="0" on="0"/>
        <pt x="137" y="0" on="1"/>
        <pt x="123" y="0" on="0"/>
        <pt x="95" y="19" on="0"/>
        <pt x="95" y="42" on="1"/>
        <pt x="95" y="68" on="0"/>
        <pt x="131" y="97" on="0"/>
        <pt x="150" y="97" on="1"/>
        <pt x="171" y="97" on="0"/>
        <pt x="193" y="71" on="0"/>
      </contour>
    </TTGlyph>
    <TTGlyph name="comma" xMin="69" yMin="-193" xMax="197" yMax="97">
      <contour>
        <pt x="177" y="16" on="1"/>
        <pt x="171" y="11" on="0"/>
        <pt x="155" y="0" on="0"/>
        <pt x="137" y="0" on="1"/>
        <pt x="114" y="0" on="0"/>
        <pt x="94" y="27" on="0"/>
        <pt x="94" y="41" on="1"/>
        <pt x="94" y="60" on="0"/>
        <pt x="123" y="97" on="0"/>
        <pt x="150" y="97" on="1"/>
        <pt x="168" y="97" on="0"/>
        <pt x="187" y="80" on="0"/>
        <pt x="196" y="57" on="0"/>
        <pt x="197" y="34" on="0"/>
        <pt x="197" y="29" on="1"/>
        <pt x="197" y="-18" on="0"/>
        <pt x="163" y="-99" on="0"/>
        <pt x="121" y="-159" on="0"/>
        <pt x="83" y="-193" on="0"/>
        <pt x="79" y="-193" on="1"/>
        <pt x="74" y="-193" on="0"/>
        <pt x="69" y="-186" on="0"/>
        <pt x="69" y="-183" on="1"/>
        <pt x="69" y="-181" on="0"/>
        <pt x="72" y="-178" on="0"/>
        <pt x="79" y="-171" on="1"/>
        <pt x="114" y="-139" on="0"/>
        <pt x="169" y="-49" on="0"/>
      </contour>
    </TTGlyph>
    <TTGlyph name="d" xMin="68" yMin="-10" xMax="555" yMax="694">
      <contour>
        <pt x="453" y="80" on="1"/>
        <pt x="453" y="78" on="0"/>
        <pt x="450" y="62" on="0"/>
        <pt x="450" y="60" on="1"/>
        <pt x="450" y="39" on="0"/>
        <pt x="483" y="29" on="0"/>
        <pt x="520" y="29" on="1"/>
        <pt x="520" y="28" on="0"/>
        <pt x="517" y="9" on="0"/>
        <pt x="516" y="7" on="1"/>
        <pt x="515" y="2" on="0"/>
        <pt x="510" y="0" on="0"/>
        <pt x="498" y="-1" on="1"/>
        <pt x="372" y="-10" on="1"/>
        <pt x="383" y="57" on="1"/>
        <pt x="361" y="33" on="0"/>
        <pt x="288" y="-10" on="0"/>
        <pt x="240" y="-10" on="1"/>
        <pt x="207" y="-10" on="0"/>
        <pt x="145" y="15" on="0"/>
        <pt x="97" y="63" on="0"/>
        <pt x="68" y="132" on="0"/>
        <pt x="68" y="176" on="1"/>
        <pt x="68" y="232" on="0"/>
        <pt x="113" y="329" on="0"/>
        <pt x="185" y="400" on="0"/>
        <pt x="276" y="441" on="0"/>
        <pt x="323" y="441" on="1"/>
        <pt x="365" y="441" on="0"/>
        <pt x="422" y="405" on="0"/>
        <pt x="439" y="376" on="1"/>
        <pt x="477" y="605" on="1"/>
        <pt x="479" y="612" on="0"/>
        <pt x="479" y="618" on="0"/>
        <pt x="479" y="623" on="1"/>
        <pt x="479" y="644" on="0"/>
        <pt x="446" y="654" on="0"/>
        <pt x="409" y="654" on="1"/>
        <pt x="409" y="656" on="0"/>
        <pt x="412" y="674" on="0"/>
        <pt x="413" y="676" on="1"/>
        <pt x="414" y="681" on="0"/>
        <pt x="419" y="683" on="0"/>
        <pt x="431" y="684" on="1"/>
        <pt x="555" y="694" on="1"/>
      </contour>
      <contour>
        <pt x="428" y="326" on="1"/>
        <pt x="428" y="328" on="0"/>
        <pt x="430" y="339" on="0"/>
        <pt x="430" y="340" on="1"/>
        <pt x="430" y="343" on="0"/>
        <pt x="420" y="369" on="0"/>
        <pt x="396" y="398" on="0"/>
        <pt x="356" y="421" on="0"/>
        <pt x="326" y="421" on="1"/>
        <pt x="292" y="421" on="0"/>
        <pt x="213" y="378" on="0"/>
        <pt x="185" y="331" on="1"/>
        <pt x="170" y="306" on="0"/>
        <pt x="153" y="248" on="0"/>
        <pt x="143" y="194" on="0"/>
        <pt x="140" y="152" on="0"/>
        <pt x="140" y="144" on="1"/>
        <pt x="140" y="105" on="0"/>
        <pt x="160" y="54" on="0"/>
        <pt x="191" y="23" on="0"/>
        <pt x="229" y="10" on="0"/>
        <pt x="246" y="10" on="1"/>
        <pt x="273" y="10" on="0"/>
        <pt x="343" y="40" on="0"/>
        <pt x="374" y="78" on="1"/>
        <pt x="386" y="92" on="0"/>
        <pt x="391" y="103" on="0"/>
        <pt x="393" y="117" on="1"/>
      </contour>
    </TTGlyph>
    <TTGlyph name="dieresis" xMin="206" yMin="573" xMax="489" yMax="665">
      <contour>
        <pt x="299" y="625" on="1"/>
        <pt x="299" y="603" on="0"/>
        <pt x="267" y="573" on="0"/>
        <pt x="247" y="573" on="1"/>
        <pt x="227" y="573" on="0"/>
        <pt x="206" y="598" on="0"/>
        <pt x="206" y="613" on="1"/>
        <pt x="206" y="632" on="0"/>
        <pt x="236" y="665" on="0"/>
        <pt x="259" y="665" on="1"/>
        <pt x="275" y="665" on="0"/>
        <pt x="299" y="644" on="0"/>
      </contour>
      <contour>
        <pt x="489" y="625" on="1"/>
        <pt x="489" y="604" on="0"/>
        <pt x="457" y="573" on="0"/>
        <pt x="437" y="573" on="1"/>
        <pt x="417" y="573" on="0"/>
        <pt x="396" y="598" on="0"/>
        <pt x="396" y="613" on="1"/>
        <pt x="396" y="633" on="0"/>
        <pt x="427" y="665" on="0"/>
        <pt x="449" y="665" on="1"/>
        <pt x="464" y="665" on="0"/>
        <pt x="489" y="645" on="0"/>
      </contour>
    </TTGlyph>
    <TTGlyph name="dollar" xMin="81" yMin="-56" xMax="526" yMax="750">
      <contour>
        <pt x="326" y="398" on="1"/>
        <pt x="352" y="392" on="0"/>
        <pt x="406" y="372" on="0"/>
        <pt x="429" y="344" on="1"/>
        <pt x="459" y="309" on="0"/>
        <pt x="470" y="245" on="0"/>
        <pt x="470" y="228" on="1"/>
        <pt x="470" y="194" on="0"/>
        <pt x="446" y="118" on="0"/>
        <pt x="395" y="50" on="0"/>
        <pt x="316" y="-1" on="0"/>
        <pt x="261" y="-9" on="1"/>
        <pt x="259" y="-10" on="0"/>
        <pt x="257" y="-14" on="0"/>
        <pt x="255" y="-25" on="1"/>
        <pt x="250" y="-56" on="1"/>
        <pt x="221" y="-56" on="1"/>
        <pt x="228" y="-10" on="1"/>
        <pt x="202" y="-9" on="0"/>
        <pt x="150" y="9" on="0"/>
        <pt x="108" y="45" on="0"/>
        <pt x="81" y="102" on="0"/>
        <pt x="81" y="143" on="1"/>
        <pt x="81" y="152" on="0"/>
        <pt x="83" y="180" on="0"/>
        <pt x="92" y="205" on="0"/>
        <pt x="112" y="224" on="0"/>
        <pt x="131" y="224" on="1"/>
        <pt x="151" y="224" on="0"/>
        <pt x="168" y="203" on="0"/>
        <pt x="168" y="189" on="1"/>
        <pt x="168" y="167" on="0"/>
        <pt x="138" y="141" on="0"/>
        <pt x="121" y="141" on="1"/>
        <pt x="111" y="141" on="0"/>
        <pt x="103" y="145" on="1"/>
        <pt x="104" y="110" on="0"/>
        <pt x="127" y="63" on="0"/>
        <pt x="163" y="34" on="0"/>
        <pt x="209" y="21" on="0"/>
        <pt x="233" y="19" on="1"/>
        <pt x="284" y="323" on="1"/>
        <pt x="251" y="332" on="0"/>
        <pt x="200" y="351" on="0"/>
        <pt x="179" y="375" on="1"/>
        <pt x="175" y="380" on="0"/>
        <pt x="161" y="397" on="0"/>
        <pt x="147" y="424" on="0"/>
        <pt x="137" y="461" on="0"/>
        <pt x="137" y="485" on="1"/>
        <pt x="137" y="525" on="0"/>
        <pt x="170" y="601" on="0"/>
        <pt x="227" y="661" on="0"/>
        <pt x="304" y="701" on="0"/>
        <pt x="347" y="704" on="1"/>
        <pt x="355" y="750" on="1"/>
        <pt x="384" y="750" on="1"/>
        <pt x="376" y="704" on="1"/>
        <pt x="450" y="699" on="0"/>
        <pt x="526" y="621" on="0"/>
        <pt x="526" y="560" on="1"/>
        <pt x="526" y="553" on="0"/>
        <pt x="524" y="527" on="0"/>
        <pt x="515" y="502" on="0"/>
        <pt x="494" y="484" on="0"/>
        <pt x="476" y="484" on="1"/>
        <pt x="458" y="484" on="0"/>
        <pt x="439" y="504" on="0"/>
        <pt x="439" y="519" on="1"/>
        <pt x="439" y="540" on="0"/>
        <pt x="468" y="567" on="0"/>
        <pt x="486" y="567" on="1"/>
        <pt x="492" y="567" on="0"/>
        <pt x="500" y="565" on="0"/>
        <pt x="503" y="564" on="1"/>
        <pt x="502" y="572" on="0"/>
        <pt x="496" y="606" on="0"/>
        <pt x="470" y="643" on="0"/>
        <pt x="418" y="673" on="0"/>
        <pt x="371" y="675" on="1"/>
      </contour>
      <contour>
        <pt x="342" y="674" on="1"/>
        <pt x="307" y="670" on="0"/>
        <pt x="250" y="639" on="0"/>
        <pt x="210" y="596" on="0"/>
        <pt x="189" y="544" on="0"/>
        <pt x="189" y="520" on="1"/>
        <pt x="189" y="487" on="0"/>
        <pt x="215" y="446" on="0"/>
        <pt x="250" y="420" on="0"/>
        <pt x="287" y="409" on="0"/>
        <pt x="297" y="406" on="1"/>
      </contour>
      <contour>
        <pt x="262" y="20" on="1"/>
        <pt x="297" y="25" on="0"/>
        <pt x="355" y="58" on="0"/>
        <pt x="396" y="107" on="0"/>
        <pt x="418" y="165" on="0"/>
        <pt x="418" y="193" on="1"/>
        <pt x="418" y="231" on="0"/>
        <pt x="390" y="277" on="0"/>
        <pt x="354" y="303" on="0"/>
        <pt x="319" y="314" on="0"/>
        <pt x="311" y="315" on="1"/>
      </contour>
    </TTGlyph>
    <TTGlyph name="dotaccent" xMin="189" yMin="568" xMax="287" yMax="665">
      <contour>
        <pt x="287" y="622" on="1"/>
        <pt x="287" y="601" on="0"/>
        <pt x="254" y="568" on="0"/>
        <pt x="232" y="568" on="1"/>
        <pt x="212" y="568" on="0"/>
        <pt x="189" y="594" on="0"/>
        <pt x="189" y="610" on="1"/>
        <pt x="189" y="632" on="0"/>
        <pt x="223" y="665" on="0"/>
        <pt x="244" y="665" on="1"/>
        <pt x="259" y="665" on="0"/>
        <pt x="287" y="645" on="0"/>
      </contour>
    </TTGlyph>
    <TTGlyph name="dotlessi" xMin="33" yMin="0" xMax="246" yMax="441">
      <contour>
        <pt x="245" y="441" on="1"/>
        <pt x="243" y="426" on="0"/>
        <pt x="233" y="366" on="0"/>
        <pt x="222" y="299" on="0"/>
        <pt x="211" y="235" on="0"/>
        <pt x="208" y="215" on="1"/>
        <pt x="204" y="192" on="0"/>
        <pt x="195" y="138" on="0"/>
        <pt x="187" y="90" on="0"/>
        <pt x="182" y="57" on="0"/>
        <pt x="182" y="54" on="1"/>
        <pt x="182" y="46" on="0"/>
        <pt x="185" y="36" on="0"/>
        <pt x="198" y="31" on="0"/>
        <pt x="224" y="29" on="0"/>
        <pt x="246" y="29" on="1"/>
        <pt x="244" y="22" on="0"/>
        <pt x="242" y="6" on="0"/>
        <pt x="241" y="0" on="1"/>
        <pt x="228" y="1" on="0"/>
        <pt x="196" y="2" on="0"/>
        <pt x="166" y="2" on="0"/>
        <pt x="142" y="2" on="0"/>
        <pt x="138" y="2" on="1"/>
        <pt x="128" y="2" on="0"/>
        <pt x="99" y="2" on="0"/>
        <pt x="70" y="2" on="0"/>
        <pt x="43" y="1" on="0"/>
        <pt x="33" y="0" on="1"/>
        <pt x="37" y="29" on="1"/>
        <pt x="77" y="29" on="0"/>
        <pt x="113" y="36" on="0"/>
        <pt x="118" y="59" on="1"/>
        <pt x="119" y="60" on="0"/>
        <pt x="125" y="95" on="0"/>
        <pt x="134" y="147" on="0"/>
        <pt x="144" y="209" on="0"/>
        <pt x="153" y="265" on="0"/>
        <pt x="160" y="308" on="0"/>
        <pt x="161" y="314" on="1"/>
        <pt x="163" y="328" on="0"/>
        <pt x="169" y="363" on="0"/>
        <pt x="169" y="369" on="1"/>
        <pt x="169" y="389" on="0"/>
        <pt x="144" y="401" on="0"/>
        <pt x="103" y="401" on="1"/>
        <pt x="109" y="430" on="1"/>
      </contour>
    </TTGlyph>
    <TTGlyph name="e" xMin="63" yMin="-10" xMax="452" yMax="446">
      <contour>
        <pt x="145" y="232" on="1"/>
        <pt x="139" y="199" on="0"/>
        <pt x="136" y="160" on="0"/>
        <pt x="136" y="151" on="1"/>
        <pt x="136" y="111" on="0"/>
        <pt x="158" y="57" on="0"/>
        <pt x="192" y="25" on="0"/>
        <pt x="232" y="12" on="0"/>
        <pt x="249" y="12" on="1"/>
        <pt x="271" y="12" on="0"/>
        <pt x="316" y="26" on="0"/>
        <pt x="356" y="53" on="0"/>
        <pt x="390" y="91" on="0"/>
        <pt x="402" y="115" on="1"/>
        <pt x="407" y="124" on="0"/>
        <pt x="411" y="129" on="0"/>
        <pt x="416" y="129" on="1"/>
        <pt x="426" y="129" on="0"/>
        <pt x="426" y="119" on="1"/>
        <pt x="426" y="113" on="0"/>
        <pt x="403" y="72" on="0"/>
        <pt x="357" y="26" on="0"/>
        <pt x="288" y="-10" on="0"/>
        <pt x="243" y="-10" on="1"/>
        <pt x="206" y="-10" on="0"/>
        <pt x="140" y="18" on="0"/>
        <pt x="91" y="68" on="0"/>
        <pt x="63" y="138" on="0"/>
        <pt x="63" y="180" on="1"/>
        <pt x="63" y="230" on="0"/>
        <pt x="102" y="326" on="0"/>
        <pt x="168" y="401" on="0"/>
        <pt x="256" y="446" on="0"/>
        <pt x="304" y="446" on="1"/>
        <pt x="330" y="446" on="0"/>
        <pt x="383" y="432" on="0"/>
        <pt x="425" y="397" on="0"/>
        <pt x="452" y="338" on="0"/>
        <pt x="452" y="294" on="1"/>
        <pt x="452" y="271" on="0"/>
        <pt x="449" y="246" on="0"/>
        <pt x="443" y="234" on="0"/>
        <pt x="432" y="232" on="0"/>
        <pt x="423" y="232" on="1"/>
      </contour>
      <contour>
        <pt x="387" y="251" on="1"/>
        <pt x="389" y="263" on="0"/>
        <pt x="391" y="277" on="0"/>
        <pt x="392" y="288" on="0"/>
        <pt x="392" y="299" on="0"/>
        <pt x="392" y="308" on="1"/>
        <pt x="392" y="322" on="0"/>
        <pt x="386" y="362" on="0"/>
        <pt x="368" y="399" on="0"/>
        <pt x="333" y="426" on="0"/>
        <pt x="303" y="426" on="1"/>
        <pt x="289" y="426" on="0"/>
        <pt x="246" y="412" on="0"/>
        <pt x="201" y="373" on="0"/>
        <pt x="161" y="305" on="0"/>
        <pt x="149" y="251" on="1"/>
      </contour>
    </TTGlyph>
    <TTGlyph name="eight" xMin="64" yMin="-21" xMax="509" yMax="665">
      <contour>
        <pt x="358" y="360" on="1"/>
        <pt x="384" y="342" on="0"/>
        <pt x="428" y="309" on="0"/>
        <pt x="460" y="271" on="0"/>
        <pt x="478" y="224" on="0"/>
        <pt x="478" y="193" on="1"/>
        <pt x="478" y="151" on="0"/>
        <pt x="439" y="73" on="0"/>
        <pt x="374" y="14" on="0"/>
        <pt x="289" y="-21" on="0"/>
        <pt x="242" y="-21" on="1"/>
        <pt x="205" y="-21" on="0"/>
        <pt x="140" y="0" on="0"/>
        <pt x="92" y="39" on="0"/>
        <pt x="64" y="93" on="0"/>
        <pt x="64" y="126" on="1"/>
        <pt x="64" y="193" on="0"/>
        <pt x="162" y="301" on="0"/>
        <pt x="244" y="337" on="1"/>
        <pt x="224" y="352" on="0"/>
        <pt x="189" y="379" on="0"/>
        <pt x="164" y="411" on="0"/>
        <pt x="149" y="450" on="0"/>
        <pt x="149" y="477" on="1"/>
        <pt x="149" y="513" on="0"/>
        <pt x="182" y="581" on="0"/>
        <pt x="238" y="634" on="0"/>
        <pt x="313" y="665" on="0"/>
        <pt x="354" y="665" on="1"/>
        <pt x="386" y="665" on="0"/>
        <pt x="442" y="647" on="0"/>
        <pt x="484" y="614" on="0"/>
        <pt x="509" y="567" on="0"/>
        <pt x="509" y="538" on="1"/>
        <pt x="509" y="507" on="0"/>
        <pt x="483" y="453" on="0"/>
        <pt x="441" y="409" on="0"/>
        <pt x="387" y="374" on="0"/>
      </contour>
      <contour>
        <pt x="340" y="375" on="1"/>
        <pt x="379" y="395" on="0"/>
        <pt x="429" y="440" on="0"/>
        <pt x="458" y="484" on="0"/>
        <pt x="468" y="523" on="0"/>
        <pt x="468" y="538" on="1"/>
        <pt x="468" y="560" on="0"/>
        <pt x="451" y="597" on="0"/>
        <pt x="420" y="625" on="0"/>
        <pt x="378" y="641" on="0"/>
        <pt x="352" y="641" on="1"/>
        <pt x="322" y="641" on="0"/>
        <pt x="266" y="622" on="0"/>
        <pt x="223" y="589" on="0"/>
        <pt x="197" y="545" on="0"/>
        <pt x="197" y="520" on="1"/>
        <pt x="197" y="490" on="0"/>
        <pt x="228" y="457" on="0"/>
        <pt x="254" y="437" on="1"/>
        <pt x="258" y="434" on="0"/>
        <pt x="278" y="419" on="0"/>
        <pt x="304" y="401" on="0"/>
        <pt x="330" y="382" on="0"/>
      </contour>
      <contour>
        <pt x="263" y="322" on="1"/>
        <pt x="226" y="306" on="0"/>
        <pt x="169" y="260" on="0"/>
        <pt x="130" y="208" on="0"/>
        <pt x="110" y="153" on="0"/>
        <pt x="110" y="127" on="1"/>
        <pt x="110" y="101" on="0"/>
        <pt x="130" y="57" on="0"/>
        <pt x="166" y="24" on="0"/>
        <pt x="215" y="6" on="0"/>
        <pt x="245" y="6" on="1"/>
        <pt x="280" y="6" on="0"/>
        <pt x="345" y="29" on="0"/>
        <pt x="396" y="70" on="0"/>
        <pt x="426" y="123" on="0"/>
        <pt x="426" y="153" on="1"/>
        <pt x="426" y="190" on="0"/>
        <pt x="388" y="231" on="0"/>
        <pt x="364" y="249" on="1"/>
      </contour>
    </TTGlyph>
    <TTGlyph name="emdash" xMin="43" yMin="256" xMax="1024" yMax="276">
      <contour>
        <pt x="1021" y="256" on="1"/>
        <pt x="43" y="256" on="1"/>
        <pt x="46" y="276" on="1"/>
        <pt x="1024" y="276" on="1"/>
      </contour>
    </TTGlyph>
    <TTGlyph name="endash" xMin="43" yMin="256" xMax="535" yMax="276">
      <contour>
        <pt x="532" y="256" on="1"/>
        <pt x="43" y="256" on="1"/>
        <pt x="46" y="276" on="1"/>
        <pt x="535" y="276" on="1"/>
      </contour>
    </TTGlyph>
    <TTGlyph name="equal" xMin="80" yMin="138" xMax="764" yMax="361">
      <contour>
        <pt x="143" y="324" on="1"/>
        <pt x="132" y="324" on="0"/>
        <pt x="111" y="329" on="0"/>
        <pt x="111" y="343" on="1"/>
        <pt x="111" y="357" on="0"/>
        <pt x="133" y="361" on="0"/>
        <pt x="143" y="361" on="1"/>
        <pt x="732" y="361" on="1"/>
        <pt x="743" y="361" on="0"/>
        <pt x="764" y="356" on="0"/>
        <pt x="764" y="342" on="1"/>
        <pt x="764" y="328" on="0"/>
        <pt x="743" y="324" on="0"/>
        <pt x="732" y="324" on="1"/>
      </contour>
      <contour>
        <pt x="112" y="138" on="1"/>
        <pt x="101" y="138" on="0"/>
        <pt x="80" y="143" on="0"/>
        <pt x="80" y="157" on="1"/>
        <pt x="80" y="171" on="0"/>
        <pt x="102" y="175" on="0"/>
        <pt x="112" y="175" on="1"/>
        <pt x="701" y="175" on="1"/>
        <pt x="712" y="175" on="0"/>
        <pt x="733" y="170" on="0"/>
        <pt x="733" y="156" on="1"/>
        <pt x="733" y="142" on="0"/>
        <pt x="712" y="138" on="0"/>
        <pt x="701" y="138" on="1"/>
      </contour>
    </TTGlyph>
    <TTGlyph name="exclam" xMin="95" yMin="0" xMax="296" yMax="715">
      <contour>
        <pt x="181" y="198" on="1"/>
        <pt x="179" y="188" on="0"/>
        <pt x="174" y="180" on="0"/>
        <pt x="167" y="180" on="1"/>
        <pt x="159" y="180" on="0"/>
        <pt x="155" y="190" on="0"/>
        <pt x="157" y="193" on="1"/>
        <pt x="157" y="197" on="1"/>
        <pt x="197" y="659" on="1"/>
        <pt x="199" y="678" on="0"/>
        <pt x="214" y="700" on="0"/>
        <pt x="232" y="712" on="0"/>
        <pt x="250" y="715" on="0"/>
        <pt x="253" y="715" on="1"/>
        <pt x="271" y="715" on="0"/>
        <pt x="296" y="693" on="0"/>
        <pt x="296" y="675" on="1"/>
        <pt x="296" y="671" on="0"/>
        <pt x="295" y="664" on="0"/>
        <pt x="292" y="653" on="1"/>
      </contour>
      <contour>
        <pt x="193" y="55" on="1"/>
        <pt x="193" y="35" on="0"/>
        <pt x="161" y="0" on="0"/>
        <pt x="137" y="0" on="1"/>
        <pt x="131" y="0" on="0"/>
        <pt x="117" y="4" on="0"/>
        <pt x="104" y="14" on="0"/>
        <pt x="95" y="30" on="0"/>
        <pt x="95" y="43" on="1"/>
        <pt x="95" y="66" on="0"/>
        <pt x="130" y="97" on="0"/>
        <pt x="150" y="97" on="1"/>
        <pt x="173" y="97" on="0"/>
        <pt x="193" y="67" on="0"/>
      </contour>
    </TTGlyph>
    <TTGlyph name="exclamdown" xMin="58" yMin="-215" xMax="260" yMax="500">
      <contour>
        <pt x="260" y="458" on="1"/>
        <pt x="260" y="436" on="0"/>
        <pt x="226" y="403" on="0"/>
        <pt x="205" y="403" on="1"/>
        <pt x="190" y="403" on="0"/>
        <pt x="162" y="423" on="0"/>
        <pt x="162" y="446" on="1"/>
        <pt x="162" y="467" on="0"/>
        <pt x="195" y="500" on="0"/>
        <pt x="217" y="500" on="1"/>
        <pt x="237" y="500" on="0"/>
        <pt x="260" y="474" on="0"/>
      </contour>
      <contour>
        <pt x="174" y="303" on="1"/>
        <pt x="176" y="312" on="0"/>
        <pt x="180" y="320" on="0"/>
        <pt x="187" y="320" on="1"/>
        <pt x="194" y="320" on="0"/>
        <pt x="199" y="312" on="0"/>
        <pt x="197" y="298" on="1"/>
        <pt x="157" y="-160" on="1"/>
        <pt x="155" y="-180" on="0"/>
        <pt x="139" y="-202" on="0"/>
        <pt x="120" y="-213" on="0"/>
        <pt x="103" y="-215" on="0"/>
        <pt x="101" y="-215" on="1"/>
        <pt x="81" y="-215" on="0"/>
        <pt x="58" y="-191" on="0"/>
        <pt x="58" y="-175" on="1"/>
        <pt x="58" y="-173" on="0"/>
        <pt x="59" y="-166" on="0"/>
        <pt x="62" y="-155" on="1"/>
      </contour>
    </TTGlyph>
    <TTGlyph name="f" xMin="33" yMin="0" xMax="449" yMax="704">
      <contour>
        <pt x="184" y="71" on="1"/>
        <pt x="183" y="65" on="0"/>
        <pt x="182" y="59" on="0"/>
        <pt x="182" y="57" on="1"/>
        <pt x="182" y="50" on="0"/>
        <pt x="187" y="39" on="0"/>
        <pt x="202" y="32" on="0"/>
        <pt x="229" y="29" on="0"/>
        <pt x="252" y="29" on="1"/>
        <pt x="272" y="29" on="1"/>
        <pt x="268" y="0" on="1"/>
        <pt x="259" y="1" on="0"/>
        <pt x="227" y="2" on="0"/>
        <pt x="191" y="2" on="0"/>
        <pt x="158" y="2" on="0"/>
        <pt x="147" y="2" on="1"/>
        <pt x="136" y="2" on="0"/>
        <pt x="105" y="2" on="0"/>
        <pt x="73" y="2" on="0"/>
        <pt x="43" y="1" on="0"/>
        <pt x="33" y="0" on="1"/>
        <pt x="37" y="29" on="1"/>
        <pt x="38" y="29" on="1"/>
        <pt x="61" y="29" on="0"/>
        <pt x="91" y="30" on="0"/>
        <pt x="109" y="38" on="0"/>
        <pt x="118" y="55" on="0"/>
        <pt x="121" y="71" on="1"/>
        <pt x="176" y="402" on="1"/>
        <pt x="98" y="402" on="1"/>
        <pt x="103" y="431" on="1"/>
        <pt x="181" y="431" on="1"/>
        <pt x="201" y="555" on="1"/>
        <pt x="206" y="583" on="0"/>
        <pt x="237" y="637" on="0"/>
        <pt x="283" y="679" on="0"/>
        <pt x="342" y="704" on="0"/>
        <pt x="374" y="704" on="1"/>
        <pt x="406" y="704" on="0"/>
        <pt x="449" y="672" on="0"/>
        <pt x="449" y="645" on="1"/>
        <pt x="449" y="625" on="0"/>
        <pt x="424" y="598" on="0"/>
        <pt x="404" y="598" on="1"/>
        <pt x="387" y="598" on="0"/>
        <pt x="369" y="617" on="0"/>
        <pt x="369" y="631" on="1"/>
        <pt x="369" y="651" on="0"/>
        <pt x="391" y="673" on="0"/>
        <pt x="405" y="676" on="1"/>
        <pt x="394" y="682" on="0"/>
        <pt x="376" y="684" on="0"/>
        <pt x="372" y="684" on="1"/>
        <pt x="355" y="684" on="0"/>
        <pt x="320" y="664" on="0"/>
        <pt x="290" y="629" on="0"/>
        <pt x="267" y="580" on="0"/>
        <pt x="262" y="551" on="1"/>
        <pt x="242" y="431" on="1"/>
        <pt x="357" y="431" on="1"/>
        <pt x="352" y="402" on="1"/>
        <pt x="239" y="402" on="1"/>
      </contour>
    </TTGlyph>
    <TTGlyph name="f_f" xMin="28" yMin="0" xMax="716" yMax="704">
      <contour>
        <pt x="450" y="71" on="1"/>
        <pt x="449" y="65" on="0"/>
        <pt x="448" y="59" on="0"/>
        <pt x="448" y="57" on="1"/>
        <pt x="448" y="50" on="0"/>
        <pt x="453" y="39" on="0"/>
        <pt x="468" y="32" on="0"/>
        <pt x="495" y="29" on="0"/>
        <pt x="518" y="29" on="1"/>
        <pt x="538" y="29" on="1"/>
        <pt x="534" y="0" on="1"/>
        <pt x="525" y="1" on="0"/>
        <pt x="493" y="2" on="0"/>
        <pt x="457" y="2" on="0"/>
        <pt x="424" y="2" on="0"/>
        <pt x="413" y="2" on="1"/>
        <pt x="402" y="2" on="0"/>
        <pt x="371" y="2" on="0"/>
        <pt x="339" y="2" on="0"/>
        <pt x="309" y="1" on="0"/>
        <pt x="299" y="0" on="1"/>
        <pt x="303" y="29" on="1"/>
        <pt x="304" y="29" on="1"/>
        <pt x="327" y="29" on="0"/>
        <pt x="357" y="30" on="0"/>
        <pt x="375" y="38" on="0"/>
        <pt x="384" y="55" on="0"/>
        <pt x="387" y="71" on="1"/>
        <pt x="442" y="402" on="1"/>
        <pt x="234" y="402" on="1"/>
        <pt x="180" y="77" on="1"/>
        <pt x="178" y="65" on="0"/>
        <pt x="177" y="58" on="0"/>
        <pt x="177" y="54" on="1"/>
        <pt x="177" y="38" on="0"/>
        <pt x="203" y="29" on="0"/>
        <pt x="248" y="29" on="1"/>
        <pt x="243" y="0" on="1"/>
        <pt x="233" y="1" on="0"/>
        <pt x="205" y="2" on="0"/>
        <pt x="176" y="2" on="0"/>
        <pt x="147" y="2" on="0"/>
        <pt x="136" y="2" on="1"/>
        <pt x="126" y="2" on="0"/>
        <pt x="96" y="2" on="0"/>
        <pt x="66" y="2" on="0"/>
        <pt x="38" y="1" on="0"/>
        <pt x="28" y="0" on="1"/>
        <pt x="32" y="29" on="1"/>
        <pt x="33" y="29" on="1"/>
        <pt x="56" y="29" on="0"/>
        <pt x="86" y="30" on="0"/>
        <pt x="104" y="38" on="0"/>
        <pt x="113" y="55" on="0"/>
        <pt x="116" y="71" on="1"/>
        <pt x="171" y="402" on="1"/>
        <pt x="93" y="402" on="1"/>
        <pt x="98" y="431" on="1"/>
        <pt x="176" y="431" on="1"/>
        <pt x="195" y="550" on="1"/>
        <pt x="200" y="583" on="0"/>
        <pt x="243" y="640" on="0"/>
        <pt x="307" y="681" on="0"/>
        <pt x="386" y="704" on="0"/>
        <pt x="428" y="704" on="1"/>
        <pt x="473" y="704" on="0"/>
        <pt x="522" y="678" on="0"/>
        <pt x="531" y="663" on="1"/>
        <pt x="561" y="686" on="0"/>
        <pt x="617" y="704" on="0"/>
        <pt x="640" y="704" on="1"/>
        <pt x="675" y="704" on="0"/>
        <pt x="716" y="670" on="0"/>
        <pt x="716" y="645" on="1"/>
        <pt x="716" y="625" on="0"/>
        <pt x="691" y="598" on="0"/>
        <pt x="671" y="598" on="1"/>
        <pt x="654" y="598" on="0"/>
        <pt x="636" y="617" on="0"/>
        <pt x="636" y="631" on="1"/>
        <pt x="636" y="651" on="0"/>
        <pt x="658" y="673" on="0"/>
        <pt x="672" y="676" on="1"/>
        <pt x="661" y="682" on="0"/>
        <pt x="643" y="684" on="0"/>
        <pt x="639" y="684" on="1"/>
        <pt x="620" y="684" on="0"/>
        <pt x="584" y="662" on="0"/>
        <pt x="554" y="625" on="0"/>
        <pt x="532" y="578" on="0"/>
        <pt x="528" y="552" on="1"/>
        <pt x="508" y="431" on="1"/>
        <pt x="624" y="431" on="1"/>
        <pt x="619" y="402" on="1"/>
        <pt x="505" y="402" on="1"/>
      </contour>
      <contour>
        <pt x="237" y="431" on="1"/>
        <pt x="447" y="431" on="1"/>
        <pt x="467" y="554" on="1"/>
        <pt x="469" y="561" on="0"/>
        <pt x="473" y="578" on="0"/>
        <pt x="477" y="588" on="1"/>
        <pt x="463" y="593" on="0"/>
        <pt x="458" y="615" on="0"/>
        <pt x="458" y="618" on="1"/>
        <pt x="458" y="622" on="0"/>
        <pt x="461" y="635" on="0"/>
        <pt x="470" y="650" on="0"/>
        <pt x="487" y="662" on="0"/>
        <pt x="501" y="664" on="1"/>
        <pt x="482" y="678" on="0"/>
        <pt x="436" y="684" on="0"/>
        <pt x="426" y="684" on="1"/>
        <pt x="397" y="684" on="0"/>
        <pt x="341" y="665" on="0"/>
        <pt x="294" y="629" on="0"/>
        <pt x="261" y="578" on="0"/>
        <pt x="256" y="546" on="1"/>
      </contour>
    </TTGlyph>
    <TTGlyph name="f_f_i" xMin="28" yMin="0" xMax="812" yMax="704">
      <contour>
        <pt x="724" y="77" on="1"/>
        <pt x="722" y="65" on="0"/>
        <pt x="721" y="58" on="0"/>
        <pt x="721" y="54" on="1"/>
        <pt x="721" y="38" on="0"/>
        <pt x="747" y="29" on="0"/>
        <pt x="792" y="29" on="1"/>
        <pt x="787" y="0" on="1"/>
        <pt x="777" y="1" on="0"/>
        <pt x="749" y="2" on="0"/>
        <pt x="720" y="2" on="0"/>
        <pt x="691" y="2" on="0"/>
        <pt x="680" y="2" on="1"/>
        <pt x="670" y="2" on="0"/>
        <pt x="640" y="2" on="0"/>
        <pt x="610" y="2" on="0"/>
        <pt x="582" y="1" on="0"/>
        <pt x="572" y="0" on="1"/>
        <pt x="576" y="29" on="1"/>
        <pt x="577" y="29" on="1"/>
        <pt x="600" y="29" on="0"/>
        <pt x="630" y="30" on="0"/>
        <pt x="648" y="38" on="0"/>
        <pt x="657" y="55" on="0"/>
        <pt x="660" y="71" on="1"/>
        <pt x="706" y="351" on="1"/>
        <pt x="708" y="361" on="0"/>
        <pt x="709" y="369" on="0"/>
        <pt x="709" y="372" on="1"/>
        <pt x="709" y="392" on="0"/>
        <pt x="683" y="402" on="0"/>
        <pt x="663" y="402" on="1"/>
        <pt x="506" y="402" on="1"/>
        <pt x="452" y="77" on="1"/>
        <pt x="450" y="65" on="0"/>
        <pt x="449" y="58" on="0"/>
        <pt x="449" y="54" on="1"/>
        <pt x="449" y="38" on="0"/>
        <pt x="475" y="29" on="0"/>
        <pt x="520" y="29" on="1"/>
        <pt x="515" y="0" on="1"/>
        <pt x="505" y="1" on="0"/>
        <pt x="477" y="2" on="0"/>
        <pt x="448" y="2" on="0"/>
        <pt x="419" y="2" on="0"/>
        <pt x="408" y="2" on="1"/>
        <pt x="398" y="2" on="0"/>
        <pt x="368" y="2" on="0"/>
        <pt x="338" y="2" on="0"/>
        <pt x="310" y="1" on="0"/>
        <pt x="300" y="0" on="1"/>
        <pt x="304" y="29" on="1"/>
        <pt x="305" y="29" on="1"/>
        <pt x="328" y="29" on="0"/>
        <pt x="358" y="30" on="0"/>
        <pt x="376" y="38" on="0"/>
        <pt x="385" y="55" on="0"/>
        <pt x="388" y="71" on="1"/>
        <pt x="443" y="402" on="1"/>
        <pt x="234" y="402" on="1"/>
        <pt x="180" y="77" on="1"/>
        <pt x="178" y="65" on="0"/>
        <pt x="177" y="58" on="0"/>
        <pt x="177" y="54" on="1"/>
        <pt x="177" y="38" on="0"/>
        <pt x="203" y="29" on="0"/>
        <pt x="248" y="29" on="1"/>
        <pt x="243" y="0" on="1"/>
        <pt x="233" y="1" on="0"/>
        <pt x="205" y="2" on="0"/>
        <pt x="176" y="2" on="0"/>
        <pt x="147" y="2" on="0"/>
        <pt x="136" y="2" on="1"/>
        <pt x="126" y="2" on="0"/>
        <pt x="96" y="2" on="0"/>
        <pt x="66" y="2" on="0"/>
        <pt x="38" y="1" on="0"/>
        <pt x="28" y="0" on="1"/>
        <pt x="32" y="29" on="1"/>
        <pt x="33" y="29" on="1"/>
        <pt x="56" y="29" on="0"/>
        <pt x="86" y="30" on="0"/>
        <pt x="104" y="38" on="0"/>
        <pt x="113" y="55" on="0"/>
        <pt x="116" y="71" on="1"/>
        <pt x="171" y="402" on="1"/>
        <pt x="93" y="402" on="1"/>
        <pt x="98" y="431" on="1"/>
        <pt x="176" y="431" on="1"/>
        <pt x="195" y="550" on="1"/>
        <pt x="200" y="583" on="0"/>
        <pt x="243" y="640" on="0"/>
        <pt x="308" y="681" on="0"/>
        <pt x="387" y="704" on="0"/>
        <pt x="428" y="704" on="1"/>
        <pt x="468" y="704" on="0"/>
        <pt x="520" y="674" on="0"/>
        <pt x="532" y="650" on="1"/>
        <pt x="542" y="658" on="0"/>
        <pt x="574" y="676" on="0"/>
        <pt x="617" y="693" on="0"/>
        <pt x="670" y="704" on="0"/>
        <pt x="701" y="704" on="1"/>
        <pt x="730" y="704" on="0"/>
        <pt x="771" y="689" on="0"/>
        <pt x="799" y="665" on="0"/>
        <pt x="812" y="635" on="0"/>
        <pt x="812" y="620" on="1"/>
        <pt x="812" y="604" on="0"/>
        <pt x="802" y="583" on="0"/>
        <pt x="787" y="570" on="0"/>
        <pt x="770" y="565" on="0"/>
        <pt x="763" y="565" on="1"/>
        <pt x="752" y="565" on="0"/>
        <pt x="726" y="581" on="0"/>
        <pt x="726" y="601" on="1"/>
        <pt x="726" y="602" on="0"/>
        <pt x="728" y="617" on="0"/>
        <pt x="738" y="635" on="0"/>
        <pt x="760" y="649" on="0"/>
        <pt x="780" y="649" on="1"/>
        <pt x="771" y="662" on="0"/>
        <pt x="746" y="676" on="0"/>
        <pt x="722" y="683" on="0"/>
        <pt x="702" y="684" on="0"/>
        <pt x="698" y="684" on="1"/>
        <pt x="672" y="684" on="0"/>
        <pt x="616" y="666" on="0"/>
        <pt x="568" y="631" on="0"/>
        <pt x="534" y="579" on="0"/>
        <pt x="528" y="546" on="1"/>
        <pt x="509" y="431" on="1"/>
        <pt x="626" y="431" on="1"/>
        <pt x="637" y="431" on="0"/>
        <pt x="642" y="431" on="0"/>
        <pt x="644" y="432" on="1"/>
        <pt x="646" y="433" on="0"/>
        <pt x="657" y="434" on="0"/>
        <pt x="662" y="434" on="1"/>
        <pt x="785" y="442" on="1"/>
      </contour>
      <contour>
        <pt x="237" y="431" on="1"/>
        <pt x="448" y="431" on="1"/>
        <pt x="467" y="550" on="1"/>
        <pt x="468" y="558" on="0"/>
        <pt x="472" y="569" on="1"/>
        <pt x="467" y="571" on="0"/>
        <pt x="452" y="584" on="0"/>
        <pt x="452" y="601" on="1"/>
        <pt x="452" y="604" on="0"/>
        <pt x="455" y="620" on="0"/>
        <pt x="465" y="637" on="0"/>
        <pt x="487" y="649" on="0"/>
        <pt x="506" y="649" on="1"/>
        <pt x="497" y="662" on="0"/>
        <pt x="473" y="676" on="0"/>
        <pt x="449" y="683" on="0"/>
        <pt x="429" y="684" on="0"/>
        <pt x="425" y="684" on="1"/>
        <pt x="398" y="684" on="0"/>
        <pt x="343" y="666" on="0"/>
        <pt x="295" y="630" on="0"/>
        <pt x="261" y="579" on="0"/>
        <pt x="256" y="546" on="1"/>
      </contour>
    </TTGlyph>
    <TTGlyph name="f_f_l" xMin="28" yMin="0" xMax="827" yMax="704">
      <contour>
        <pt x="724" y="77" on="1"/>
        <pt x="722" y="65" on="0"/>
        <pt x="721" y="58" on="0"/>
        <pt x="721" y="54" on="1"/>
        <pt x="721" y="38" on="0"/>
        <pt x="747" y="29" on="0"/>
        <pt x="792" y="29" on="1"/>
        <pt x="787" y="0" on="1"/>
        <pt x="777" y="1" on="0"/>
        <pt x="749" y="2" on="0"/>
        <pt x="720" y="2" on="0"/>
        <pt x="691" y="2" on="0"/>
        <pt x="680" y="2" on="1"/>
        <pt x="670" y="2" on="0"/>
        <pt x="640" y="2" on="0"/>
        <pt x="610" y="2" on="0"/>
        <pt x="582" y="1" on="0"/>
        <pt x="572" y="0" on="1"/>
        <pt x="576" y="29" on="1"/>
        <pt x="577" y="29" on="1"/>
        <pt x="600" y="29" on="0"/>
        <pt x="630" y="30" on="0"/>
        <pt x="648" y="38" on="0"/>
        <pt x="657" y="55" on="0"/>
        <pt x="660" y="71" on="1"/>
        <pt x="715" y="402" on="1"/>
        <pt x="506" y="402" on="1"/>
        <pt x="452" y="77" on="1"/>
        <pt x="450" y="65" on="0"/>
        <pt x="449" y="58" on="0"/>
        <pt x="449" y="54" on="1"/>
        <pt x="449" y="38" on="0"/>
        <pt x="475" y="29" on="0"/>
        <pt x="520" y="29" on="1"/>
        <pt x="515" y="0" on="1"/>
        <pt x="505" y="1" on="0"/>
        <pt x="477" y="2" on="0"/>
        <pt x="448" y="2" on="0"/>
        <pt x="419" y="2" on="0"/>
        <pt x="408" y="2" on="1"/>
        <pt x="398" y="2" on="0"/>
        <pt x="368" y="2" on="0"/>
        <pt x="338" y="2" on="0"/>
        <pt x="310" y="1" on="0"/>
        <pt x="300" y="0" on="1"/>
        <pt x="304" y="29" on="1"/>
        <pt x="305" y="29" on="1"/>
        <pt x="328" y="29" on="0"/>
        <pt x="358" y="30" on="0"/>
        <pt x="376" y="38" on="0"/>
        <pt x="385" y="55" on="0"/>
        <pt x="388" y="71" on="1"/>
        <pt x="443" y="402" on="1"/>
        <pt x="234" y="402" on="1"/>
        <pt x="180" y="77" on="1"/>
        <pt x="178" y="65" on="0"/>
        <pt x="177" y="58" on="0"/>
        <pt x="177" y="54" on="1"/>
        <pt x="177" y="38" on="0"/>
        <pt x="203" y="29" on="0"/>
        <pt x="248" y="29" on="1"/>
        <pt x="243" y="0" on="1"/>
        <pt x="233" y="1" on="0"/>
        <pt x="205" y="2" on="0"/>
        <pt x="176" y="2" on="0"/>
        <pt x="147" y="2" on="0"/>
        <pt x="136" y="2" on="1"/>
        <pt x="126" y="2" on="0"/>
        <pt x="96" y="2" on="0"/>
        <pt x="66" y="2" on="0"/>
        <pt x="38" y="1" on="0"/>
        <pt x="28" y="0" on="1"/>
        <pt x="32" y="29" on="1"/>
        <pt x="33" y="29" on="1"/>
        <pt x="56" y="29" on="0"/>
        <pt x="86" y="30" on="0"/>
        <pt x="104" y="38" on="0"/>
        <pt x="113" y="55" on="0"/>
        <pt x="116" y="71" on="1"/>
        <pt x="171" y="402" on="1"/>
        <pt x="93" y="402" on="1"/>
        <pt x="98" y="431" on="1"/>
        <pt x="176" y="431" on="1"/>
        <pt x="195" y="550" on="1"/>
        <pt x="200" y="583" on="0"/>
        <pt x="243" y="639" on="0"/>
        <pt x="306" y="681" on="0"/>
        <pt x="386" y="704" on="0"/>
        <pt x="429" y="704" on="1"/>
        <pt x="460" y="704" on="0"/>
        <pt x="524" y="683" on="0"/>
        <pt x="537" y="653" on="1"/>
        <pt x="574" y="679" on="0"/>
        <pt x="658" y="704" on="0"/>
        <pt x="703" y="704" on="1"/>
        <pt x="709" y="704" on="0"/>
        <pt x="728" y="704" on="0"/>
        <pt x="751" y="701" on="0"/>
        <pt x="776" y="694" on="0"/>
        <pt x="786" y="688" on="1"/>
        <pt x="789" y="688" on="0"/>
        <pt x="801" y="690" on="0"/>
        <pt x="814" y="692" on="0"/>
        <pt x="825" y="694" on="0"/>
        <pt x="827" y="694" on="1"/>
      </contour>
      <contour>
        <pt x="237" y="431" on="1"/>
        <pt x="448" y="431" on="1"/>
        <pt x="467" y="549" on="1"/>
        <pt x="469" y="563" on="0"/>
        <pt x="477" y="582" on="0"/>
        <pt x="479" y="587" on="1"/>
        <pt x="468" y="591" on="0"/>
        <pt x="460" y="608" on="0"/>
        <pt x="460" y="618" on="1"/>
        <pt x="460" y="631" on="0"/>
        <pt x="477" y="659" on="0"/>
        <pt x="502" y="663" on="1"/>
        <pt x="482" y="679" on="0"/>
        <pt x="434" y="684" on="0"/>
        <pt x="426" y="684" on="1"/>
        <pt x="398" y="684" on="0"/>
        <pt x="342" y="665" on="0"/>
        <pt x="295" y="629" on="0"/>
        <pt x="261" y="578" on="0"/>
        <pt x="256" y="546" on="1"/>
      </contour>
      <contour>
        <pt x="509" y="431" on="1"/>
        <pt x="720" y="431" on="1"/>
        <pt x="748" y="603" on="1"/>
        <pt x="744" y="605" on="0"/>
        <pt x="734" y="616" on="0"/>
        <pt x="734" y="631" on="1"/>
        <pt x="734" y="639" on="0"/>
        <pt x="740" y="658" on="0"/>
        <pt x="758" y="672" on="1"/>
        <pt x="759" y="673" on="0"/>
        <pt x="760" y="676" on="0"/>
        <pt x="761" y="677" on="1"/>
        <pt x="741" y="682" on="0"/>
        <pt x="706" y="684" on="0"/>
        <pt x="701" y="684" on="1"/>
        <pt x="669" y="684" on="0"/>
        <pt x="611" y="664" on="0"/>
        <pt x="564" y="627" on="0"/>
        <pt x="533" y="576" on="0"/>
        <pt x="528" y="546" on="1"/>
      </contour>
    </TTGlyph>
    <TTGlyph name="fi" xMin="28" yMin="0" xMax="540" yMax="704">
      <contour>
        <pt x="452" y="77" on="1"/>
        <pt x="450" y="65" on="0"/>
        <pt x="449" y="58" on="0"/>
        <pt x="449" y="54" on="1"/>
        <pt x="449" y="38" on="0"/>
        <pt x="475" y="29" on="0"/>
        <pt x="520" y="29" on="1"/>
        <pt x="515" y="0" on="1"/>
        <pt x="505" y="1" on="0"/>
        <pt x="477" y="2" on="0"/>
        <pt x="448" y="2" on="0"/>
        <pt x="419" y="2" on="0"/>
        <pt x="408" y="2" on="1"/>
        <pt x="398" y="2" on="0"/>
        <pt x="368" y="2" on="0"/>
        <pt x="338" y="2" on="0"/>
        <pt x="310" y="1" on="0"/>
        <pt x="300" y="0" on="1"/>
        <pt x="304" y="29" on="1"/>
        <pt x="305" y="29" on="1"/>
        <pt x="328" y="29" on="0"/>
        <pt x="358" y="30" on="0"/>
        <pt x="376" y="38" on="0"/>
        <pt x="385" y="55" on="0"/>
        <pt x="388" y="71" on="1"/>
        <pt x="434" y="351" on="1"/>
        <pt x="436" y="361" on="0"/>
        <pt x="437" y="369" on="0"/>
        <pt x="437" y="372" on="1"/>
        <pt x="437" y="392" on="0"/>
        <pt x="411" y="402" on="0"/>
        <pt x="391" y="402" on="1"/>
        <pt x="234" y="402" on="1"/>
        <pt x="180" y="77" on="1"/>
        <pt x="178" y="65" on="0"/>
        <pt x="177" y="58" on="0"/>
        <pt x="177" y="54" on="1"/>
        <pt x="177" y="38" on="0"/>
        <pt x="203" y="29" on="0"/>
        <pt x="248" y="29" on="1"/>
        <pt x="243" y="0" on="1"/>
        <pt x="233" y="1" on="0"/>
        <pt x="205" y="2" on="0"/>
        <pt x="176" y="2" on="0"/>
        <pt x="147" y="2" on="0"/>
        <pt x="136" y="2" on="1"/>
        <pt x="126" y="2" on="0"/>
        <pt x="96" y="2" on="0"/>
        <pt x="66" y="2" on="0"/>
        <pt x="38" y="1" on="0"/>
        <pt x="28" y="0" on="1"/>
        <pt x="32" y="29" on="1"/>
        <pt x="33" y="29" on="1"/>
        <pt x="56" y="29" on="0"/>
        <pt x="86" y="30" on="0"/>
        <pt x="104" y="38" on="0"/>
        <pt x="113" y="55" on="0"/>
        <pt x="116" y="71" on="1"/>
        <pt x="171" y="402" on="1"/>
        <pt x="93" y="402" on="1"/>
        <pt x="98" y="431" on="1"/>
        <pt x="176" y="431" on="1"/>
        <pt x="195" y="550" on="1"/>
        <pt x="201" y="584" on="0"/>
        <pt x="245" y="641" on="0"/>
        <pt x="309" y="681" on="0"/>
        <pt x="388" y="704" on="0"/>
        <pt x="429" y="704" on="1"/>
        <pt x="458" y="704" on="0"/>
        <pt x="499" y="689" on="0"/>
        <pt x="527" y="665" on="0"/>
        <pt x="540" y="635" on="0"/>
        <pt x="540" y="620" on="1"/>
        <pt x="540" y="604" on="0"/>
        <pt x="530" y="583" on="0"/>
        <pt x="515" y="570" on="0"/>
        <pt x="498" y="565" on="0"/>
        <pt x="491" y="565" on="1"/>
        <pt x="480" y="565" on="0"/>
        <pt x="454" y="581" on="0"/>
        <pt x="454" y="601" on="1"/>
        <pt x="454" y="602" on="0"/>
        <pt x="456" y="617" on="0"/>
        <pt x="466" y="635" on="0"/>
        <pt x="488" y="649" on="0"/>
        <pt x="508" y="649" on="1"/>
        <pt x="499" y="662" on="0"/>
        <pt x="474" y="676" on="0"/>
        <pt x="450" y="683" on="0"/>
        <pt x="430" y="684" on="0"/>
        <pt x="426" y="684" on="1"/>
        <pt x="400" y="684" on="0"/>
        <pt x="344" y="666" on="0"/>
        <pt x="296" y="631" on="0"/>
        <pt x="262" y="579" on="0"/>
        <pt x="256" y="546" on="1"/>
        <pt x="237" y="431" on="1"/>
        <pt x="354" y="431" on="1"/>
        <pt x="365" y="431" on="0"/>
        <pt x="370" y="431" on="0"/>
        <pt x="372" y="432" on="1"/>
        <pt x="374" y="433" on="0"/>
        <pt x="385" y="434" on="0"/>
        <pt x="390" y="434" on="1"/>
        <pt x="513" y="442" on="1"/>
      </contour>
    </TTGlyph>
    <TTGlyph name="five" xMin="74" yMin="-21" xMax="511" yMax="664">
      <contour>
        <pt x="189" y="367" on="1"/>
        <pt x="213" y="389" on="0"/>
        <pt x="281" y="419" on="0"/>
        <pt x="324" y="419" on="1"/>
        <pt x="357" y="419" on="0"/>
        <pt x="414" y="393" on="0"/>
        <pt x="454" y="346" on="0"/>
        <pt x="477" y="281" on="0"/>
        <pt x="477" y="242" on="1"/>
        <pt x="477" y="187" on="0"/>
        <pt x="433" y="91" on="0"/>
        <pt x="363" y="20" on="0"/>
        <pt x="273" y="-21" on="0"/>
        <pt x="226" y="-21" on="1"/>
        <pt x="192" y="-21" on="0"/>
        <pt x="136" y="3" on="0"/>
        <pt x="96" y="45" on="0"/>
        <pt x="74" y="102" on="0"/>
        <pt x="74" y="135" on="1"/>
        <pt x="74" y="141" on="0"/>
        <pt x="76" y="166" on="0"/>
        <pt x="85" y="190" on="0"/>
        <pt x="107" y="209" on="0"/>
        <pt x="126" y="209" on="1"/>
        <pt x="144" y="209" on="0"/>
        <pt x="165" y="190" on="0"/>
        <pt x="165" y="172" on="1"/>
        <pt x="165" y="146" on="0"/>
        <pt x="132" y="121" on="0"/>
        <pt x="115" y="121" on="1"/>
        <pt x="107" y="121" on="0"/>
        <pt x="99" y="123" on="0"/>
        <pt x="97" y="124" on="1"/>
        <pt x="100" y="94" on="0"/>
        <pt x="124" y="50" on="0"/>
        <pt x="160" y="20" on="0"/>
        <pt x="204" y="6" on="0"/>
        <pt x="226" y="6" on="1"/>
        <pt x="244" y="6" on="0"/>
        <pt x="287" y="19" on="0"/>
        <pt x="330" y="50" on="0"/>
        <pt x="367" y="101" on="0"/>
        <pt x="379" y="140" on="1"/>
        <pt x="383" y="155" on="0"/>
        <pt x="391" y="195" on="0"/>
        <pt x="398" y="236" on="0"/>
        <pt x="402" y="274" on="0"/>
        <pt x="402" y="286" on="1"/>
        <pt x="402" y="304" on="0"/>
        <pt x="394" y="344" on="0"/>
        <pt x="376" y="377" on="0"/>
        <pt x="345" y="399" on="0"/>
        <pt x="321" y="399" on="1"/>
        <pt x="312" y="399" on="0"/>
        <pt x="282" y="396" on="0"/>
        <pt x="245" y="382" on="0"/>
        <pt x="203" y="354" on="0"/>
        <pt x="182" y="330" on="1"/>
        <pt x="177" y="325" on="0"/>
        <pt x="173" y="321" on="0"/>
        <pt x="168" y="321" on="1"/>
        <pt x="166" y="321" on="0"/>
        <pt x="156" y="324" on="0"/>
        <pt x="156" y="332" on="1"/>
        <pt x="156" y="334" on="0"/>
        <pt x="156" y="337" on="0"/>
        <pt x="158" y="345" on="1"/>
        <pt x="208" y="646" on="1"/>
        <pt x="210" y="654" on="0"/>
        <pt x="213" y="664" on="0"/>
        <pt x="218" y="664" on="1"/>
        <pt x="220" y="664" on="0"/>
        <pt x="224" y="663" on="0"/>
        <pt x="232" y="659" on="1"/>
        <pt x="246" y="654" on="0"/>
        <pt x="307" y="633" on="0"/>
        <pt x="356" y="633" on="1"/>
        <pt x="383" y="633" on="0"/>
        <pt x="451" y="644" on="0"/>
        <pt x="489" y="660" on="1"/>
        <pt x="497" y="663" on="0"/>
        <pt x="502" y="664" on="0"/>
        <pt x="503" y="664" on="1"/>
        <pt x="511" y="664" on="0"/>
        <pt x="511" y="656" on="1"/>
        <pt x="511" y="650" on="0"/>
        <pt x="480" y="618" on="0"/>
        <pt x="426" y="584" on="0"/>
        <pt x="353" y="558" on="0"/>
        <pt x="311" y="558" on="1"/>
        <pt x="290" y="558" on="0"/>
        <pt x="243" y="566" on="0"/>
        <pt x="223" y="573" on="1"/>
      </contour>
    </TTGlyph>
    <TTGlyph name="fl" xMin="28" yMin="0" xMax="555" yMax="704">
      <contour>
        <pt x="452" y="77" on="1"/>
        <pt x="450" y="65" on="0"/>
        <pt x="449" y="58" on="0"/>
        <pt x="449" y="54" on="1"/>
        <pt x="449" y="38" on="0"/>
        <pt x="475" y="29" on="0"/>
        <pt x="520" y="29" on="1"/>
        <pt x="515" y="0" on="1"/>
        <pt x="505" y="1" on="0"/>
        <pt x="477" y="2" on="0"/>
        <pt x="448" y="2" on="0"/>
        <pt x="419" y="2" on="0"/>
        <pt x="408" y="2" on="1"/>
        <pt x="398" y="2" on="0"/>
        <pt x="368" y="2" on="0"/>
        <pt x="338" y="2" on="0"/>
        <pt x="310" y="1" on="0"/>
        <pt x="300" y="0" on="1"/>
        <pt x="304" y="29" on="1"/>
        <pt x="305" y="29" on="1"/>
        <pt x="328" y="29" on="0"/>
        <pt x="358" y="30" on="0"/>
        <pt x="376" y="38" on="0"/>
        <pt x="385" y="55" on="0"/>
        <pt x="388" y="71" on="1"/>
        <pt x="443" y="402" on="1"/>
        <pt x="234" y="402" on="1"/>
        <pt x="180" y="77" on="1"/>
        <pt x="178" y="65" on="0"/>
        <pt x="177" y="58" on="0"/>
        <pt x="177" y="54" on="1"/>
        <pt x="177" y="38" on="0"/>
        <pt x="203" y="29" on="0"/>
        <pt x="248" y="29" on="1"/>
        <pt x="243" y="0" on="1"/>
        <pt x="233" y="1" on="0"/>
        <pt x="205" y="2" on="0"/>
        <pt x="176" y="2" on="0"/>
        <pt x="147" y="2" on="0"/>
        <pt x="136" y="2" on="1"/>
        <pt x="126" y="2" on="0"/>
        <pt x="96" y="2" on="0"/>
        <pt x="66" y="2" on="0"/>
        <pt x="38" y="1" on="0"/>
        <pt x="28" y="0" on="1"/>
        <pt x="32" y="29" on="1"/>
        <pt x="33" y="29" on="1"/>
        <pt x="56" y="29" on="0"/>
        <pt x="86" y="30" on="0"/>
        <pt x="104" y="38" on="0"/>
        <pt x="113" y="55" on="0"/>
        <pt x="116" y="71" on="1"/>
        <pt x="171" y="402" on="1"/>
        <pt x="93" y="402" on="1"/>
        <pt x="98" y="431" on="1"/>
        <pt x="176" y="431" on="1"/>
        <pt x="195" y="550" on="1"/>
        <pt x="200" y="582" on="0"/>
        <pt x="241" y="638" on="0"/>
        <pt x="304" y="680" on="0"/>
        <pt x="386" y="704" on="0"/>
        <pt x="431" y="704" on="1"/>
        <pt x="437" y="704" on="0"/>
        <pt x="456" y="704" on="0"/>
        <pt x="479" y="701" on="0"/>
        <pt x="504" y="694" on="0"/>
        <pt x="514" y="688" on="1"/>
        <pt x="517" y="688" on="0"/>
        <pt x="529" y="690" on="0"/>
        <pt x="542" y="692" on="0"/>
        <pt x="553" y="694" on="0"/>
        <pt x="555" y="694" on="1"/>
      </contour>
      <contour>
        <pt x="237" y="431" on="1"/>
        <pt x="448" y="431" on="1"/>
        <pt x="476" y="603" on="1"/>
        <pt x="472" y="605" on="0"/>
        <pt x="462" y="616" on="0"/>
        <pt x="462" y="631" on="1"/>
        <pt x="462" y="639" on="0"/>
        <pt x="468" y="658" on="0"/>
        <pt x="486" y="672" on="1"/>
        <pt x="487" y="673" on="0"/>
        <pt x="488" y="676" on="0"/>
        <pt x="489" y="677" on="1"/>
        <pt x="469" y="682" on="0"/>
        <pt x="434" y="684" on="0"/>
        <pt x="429" y="684" on="1"/>
        <pt x="397" y="684" on="0"/>
        <pt x="339" y="664" on="0"/>
        <pt x="292" y="627" on="0"/>
        <pt x="261" y="576" on="0"/>
        <pt x="256" y="546" on="1"/>
      </contour>
    </TTGlyph>
    <TTGlyph name="four" xMin="55" yMin="0" xMax="495" yMax="675">
      <contour>
        <pt x="394" y="196" on="1"/>
        <pt x="495" y="196" on="1"/>
        <pt x="493" y="189" on="0"/>
        <pt x="491" y="173" on="0"/>
        <pt x="490" y="167" on="1"/>
        <pt x="389" y="167" on="1"/>
        <pt x="383" y="134" on="0"/>
        <pt x="376" y="92" on="0"/>
        <pt x="372" y="68" on="0"/>
        <pt x="371" y="58" on="0"/>
        <pt x="371" y="57" on="1"/>
        <pt x="371" y="50" on="0"/>
        <pt x="376" y="39" on="0"/>
        <pt x="391" y="32" on="0"/>
        <pt x="418" y="29" on="0"/>
        <pt x="441" y="29" on="1"/>
        <pt x="461" y="29" on="1"/>
        <pt x="456" y="0" on="1"/>
        <pt x="447" y="1" on="0"/>
        <pt x="412" y="2" on="0"/>
        <pt x="373" y="2" on="0"/>
        <pt x="336" y="2" on="0"/>
        <pt x="325" y="2" on="1"/>
        <pt x="315" y="2" on="0"/>
        <pt x="278" y="2" on="0"/>
        <pt x="239" y="2" on="0"/>
        <pt x="204" y="1" on="0"/>
        <pt x="195" y="0" on="1"/>
        <pt x="200" y="29" on="1"/>
        <pt x="220" y="29" on="1"/>
        <pt x="243" y="29" on="0"/>
        <pt x="273" y="32" on="0"/>
        <pt x="290" y="40" on="0"/>
        <pt x="298" y="53" on="0"/>
        <pt x="300" y="62" on="1"/>
        <pt x="302" y="68" on="0"/>
        <pt x="303" y="77" on="0"/>
        <pt x="306" y="96" on="0"/>
        <pt x="312" y="133" on="0"/>
        <pt x="318" y="167" on="1"/>
        <pt x="55" y="167" on="1"/>
        <pt x="55" y="189" on="0"/>
        <pt x="67" y="204" on="1"/>
        <pt x="439" y="664" on="1"/>
        <pt x="446" y="672" on="0"/>
        <pt x="454" y="675" on="0"/>
        <pt x="459" y="675" on="1"/>
        <pt x="463" y="675" on="0"/>
        <pt x="472" y="673" on="0"/>
        <pt x="472" y="666" on="1"/>
        <pt x="472" y="665" on="0"/>
        <pt x="472" y="661" on="0"/>
        <pt x="470" y="654" on="1"/>
      </contour>
      <contour>
        <pt x="84" y="196" on="1"/>
        <pt x="328" y="196" on="1"/>
        <pt x="390" y="571" on="1"/>
        <pt x="389" y="571" on="1"/>
      </contour>
    </TTGlyph>
</ttFont>
